<svg width="50" height="49" viewBox="0 0 50 49" fill="none" xmlns="http://www.w3.org/2000/svg">
<path d="M9.18552 0.384521H41.0285C43.3447 0.384521 45.5659 1.29952 47.2037 2.92823C48.8414 4.55694 49.7615 6.76596 49.7615 9.0693V39.5059C49.7615 41.8092 48.8414 44.0183 47.2037 45.647C45.5659 47.2757 43.3447 48.1907 41.0285 48.1907H9.18552C6.87093 48.1883 4.65195 47.2723 3.01612 45.6438C1.38029 44.0154 0.461425 41.8077 0.461426 39.5059V9.08701C0.461425 6.7852 1.38029 4.57753 3.01612 2.94907C4.65195 1.32062 6.87093 0.404578 9.18552 0.402231" fill="#FA0F00"/>
<path d="M38.7941 36.3452H32.9365C32.6822 36.3488 32.4324 36.2777 32.2186 36.1407C32.0048 36.0036 31.8365 35.8068 31.7347 35.575L25.3786 20.7993C25.3632 20.7405 25.3286 20.6885 25.2803 20.6513C25.232 20.6142 25.1726 20.594 25.1115 20.594C25.0505 20.594 24.9911 20.6142 24.9427 20.6513C24.8944 20.6885 24.8598 20.7405 24.8444 20.7993L20.883 30.1835C20.8656 30.2236 20.8563 30.2667 20.8558 30.3103C20.8553 30.354 20.8636 30.3973 20.8802 30.4377C20.8968 30.4781 20.9214 30.5148 20.9524 30.5456C20.9835 30.5765 21.0204 30.6008 21.061 30.6173H21.1946H25.5922C25.7238 30.6164 25.8526 30.6547 25.9621 30.7273C26.0716 30.7999 26.1567 30.9034 26.2065 31.0245L28.1205 35.2474C28.1613 35.3415 28.1827 35.4426 28.1837 35.545C28.1847 35.6475 28.1652 35.749 28.1262 35.8438C28.0873 35.9386 28.0297 36.0248 27.9568 36.0972C27.884 36.1696 27.7974 36.2268 27.702 36.2655C27.6067 36.3072 27.5036 36.3283 27.3994 36.3275H11.5001C11.3089 36.3275 11.1255 36.2519 10.9903 36.1175C10.855 35.983 10.7791 35.8006 10.7791 35.6104C10.7788 35.5135 10.7969 35.4173 10.8325 35.3271L20.9186 11.424C21.0235 11.1726 21.2015 10.9581 21.43 10.8082C21.6585 10.6584 21.9268 10.5799 22.2005 10.583H28.0225C28.2955 10.578 28.5635 10.6558 28.7909 10.8061C29.0183 10.9563 29.1943 11.1719 29.2955 11.424L39.4529 35.3271C39.491 35.4142 39.5112 35.508 39.5126 35.6029C39.5139 35.6979 39.4963 35.7922 39.4607 35.8803C39.4251 35.9684 39.3721 36.0487 39.3051 36.1163C39.2381 36.184 39.1582 36.2377 39.0701 36.2744C38.9827 36.3106 38.8888 36.3287 38.7941 36.3275" fill="white"/>
</svg>
