<svg width="50" height="50" viewBox="0 0 50 50" fill="none" xmlns="http://www.w3.org/2000/svg">
<path d="M26.303 28.4211H32.6005C34.3912 28.4211 35.5253 27.4355 35.5253 25.8527C35.5253 24.3595 34.3912 23.2844 32.6005 23.2844H26.303C26.0941 23.2844 25.915 23.4636 25.915 23.6428V28.0627C25.9449 28.2717 26.0941 28.4211 26.303 28.4211Z" fill="#34313F"/>
<path d="M26.303 38.6044H32.8094C34.809 38.6044 36.0029 37.5891 36.0029 35.7972C36.0029 34.2443 34.8687 32.99 32.8094 32.99H26.303C26.0941 32.99 25.915 33.1692 25.915 33.3484V38.2162C25.9449 38.4551 26.0941 38.6044 26.303 38.6044Z" fill="#34313F"/>
<path d="M49.3436 0.109728L30.72 18.6852H33.7642C38.5097 18.6852 41.3152 21.6716 41.3152 24.9268C41.3152 27.4951 39.5841 29.3766 37.7337 30.2128C37.4353 30.3322 37.4353 30.7503 37.7636 30.8698C39.9124 31.706 41.4346 33.9458 41.4346 36.5738C41.4346 40.277 38.9574 43.2335 34.1522 43.2335H20.9605C20.7516 43.2335 20.5725 43.0543 20.5725 42.8751V28.8091L0.128248 49.1765C-0.140363 49.4453 0.0387112 49.9231 0.426704 49.9231H49.5824C49.7615 49.9231 49.9107 49.7738 49.9107 49.5946V0.378503C50.0002 0.0499974 49.5824 -0.129185 49.3436 0.109728Z" fill="#34313F"/>
</svg>
