<svg width="150" height="60" viewBox="0 0 150 60" fill="none" xmlns="http://www.w3.org/2000/svg">
<g opacity="0.8" clip-path="url(#clip0)">
<path fill-rule="evenodd" clip-rule="evenodd" d="M82.0257 39.9501C79.9866 40.3111 81.0374 32.5564 82.8905 32.2559C85.4235 31.9558 83.5698 39.6496 82.0257 39.9501ZM71.4182 39.6822C69.7856 40.912 70.0995 37.7504 70.4134 36.8134C71.0413 34.8234 72.4225 33.1251 74.2431 32.2473C75.3109 33.1838 72.1716 39.0972 71.4182 39.6822ZM61.5469 29.5269C61.3418 31.3099 57.8092 38.6152 56.6827 38.8452C56.4267 38.9029 56.3243 38.7879 56.2729 38.6152C55.5562 36.2569 59.294 29.2965 61.0858 28.9516C61.4955 28.8939 61.5983 29.0666 61.5469 29.5269ZM124.838 32.5138C124.45 31.5994 123.231 31.3704 122.455 32.0563C121.734 32.6854 121.291 33.7715 120.792 34.6291C119.905 36.1727 118.741 37.8873 117.522 38.9734C117.3 39.2024 117.023 39.4309 116.801 39.6599C113.975 41.4893 116.358 36.4012 116.691 35.8294C117.134 35.0292 117.966 34.1143 118.243 33.1998C118.409 32.5707 118.243 32.0563 117.966 31.7136C116.636 30.1127 114.696 32.6281 113.92 33.6573C112.312 35.7152 110.816 37.8305 108.821 39.4883C108.544 39.7168 107.712 40.517 107.435 40.1169C106.715 39.0882 108.211 36.1727 108.932 35.3151C109.208 34.9718 109.985 34.0574 110.095 33.7141C110.483 32.2848 109.541 31.3135 108.599 31.542C107.768 31.7705 106.77 32.1137 106.659 32.0563C107.768 29.8842 106.548 27.712 104.332 29.1408C103.943 29.4267 103.722 29.7699 103.5 30.2274C102.336 32.5138 103.002 33.0855 102.89 33.8858C102.78 34.5149 101.616 36.1727 101.006 36.9729C100.507 37.6589 98.2906 40.8028 97.5699 39.145C97.5699 39.145 97.5143 38.8592 97.5143 38.7449C97.6251 38.288 98.4014 37.6015 98.678 37.2014C99.3436 36.3438 99.953 35.4293 100.341 34.2859C100.618 33.4283 101.228 31.8279 100.563 30.856C100.23 30.3985 99.5651 30.17 98.9 30.3985C96.9049 31.0845 95.7963 33.8284 95.1869 35.9437C94.9649 36.6296 95.0205 37.4872 94.6878 38.059C94.4106 38.5738 93.0249 40.1743 92.1384 39.7741C91.7505 39.5452 91.9168 38.8023 91.972 38.4022C92.5819 34.686 96.1286 32.6854 95.5192 30.6275C95.2977 29.8268 94.4106 29.4841 93.5241 29.7699C92.4155 30.1127 92.0827 30.9703 91.3626 31.7705C90.6419 32.5138 89.4782 33.3714 88.4253 33.7715C88.2033 33.8858 88.0925 33.8284 87.8154 33.8858C87.5938 32.0563 87.2616 30.4559 86.0418 29.4841C85.3216 28.9124 84.3794 28.9697 83.548 28.9697C84.1022 26.7971 85.1552 24.7965 86.4296 23.253C86.9839 22.5665 87.871 21.9953 88.2589 21.1946C88.5916 20.5091 88.3696 19.5367 87.9261 19.1366C85.931 17.4788 84.5458 20.6233 83.548 21.3088C82.6058 21.9953 80.9986 22.338 79.3357 22.1664C78.4487 22.1095 77.3957 21.8237 76.7863 21.4804C75.8441 20.8518 74.7356 18.5075 73.184 18.9655C72.1862 19.2509 71.8534 20.4517 72.2418 21.4235C73.0727 23.5957 74.4028 25.025 74.4028 28.1116C72.3525 29.2551 70.3569 30.5128 69.0268 32.7423C68.1403 34.1716 67.3089 36.5728 67.4196 37.7157C67.4196 38.0016 66.4223 39.0308 65.8129 39.374C63.6509 40.746 62.8751 38.8023 62.9863 36.8013C63.0971 35.3151 63.263 34.1148 63.5958 32.7423C63.928 31.1988 65.3694 28.5691 64.6487 26.5686C64.2052 25.4251 62.5428 25.2535 61.2123 25.711C58.3306 26.6254 55.6699 29.6552 54.1739 32.228C53.6753 33.0856 53.4533 33.9431 52.9546 34.686C52.456 35.4293 51.1254 35.9437 50.3496 36.4012C46.6916 38.5164 41.1493 40.8028 35.9953 39.0308C34.9419 38.6881 34.2217 38.1732 33.4459 37.5446C33.0575 37.2014 32.614 36.8586 32.2817 36.458C30.8409 34.5717 30.5081 31.8852 30.5638 29.5409C30.896 20.6233 40.5399 11.4762 50.0725 11.0192C52.8434 10.905 55.0054 11.2477 56.6126 12.5054C58.2198 13.7631 58.8292 16.3359 58.1642 18.6792C56.7233 23.8242 50.516 28.6265 44.9736 29.084C41.2605 29.3693 38.4891 26.7397 39.8748 22.9097C40.2627 21.881 41.0942 20.6233 41.4821 20.1658C41.87 19.7084 42.4794 19.0798 42.757 18.7939C43.4215 18.2222 44.6409 17.3646 45.3064 17.0214C47.1908 16.0495 49.5738 15.3635 51.5689 15.3067C51.9017 15.3067 52.456 14.9066 52.5667 14.6207C53.0654 13.363 51.2918 12.9624 50.516 12.9624C50.4047 12.9624 49.9617 13.0198 49.9617 13.0198C46.9136 13.2483 43.8095 14.6207 41.5377 15.9926C37.2147 18.5649 32.2266 26.9687 38.1564 31.8279C40.0412 33.3714 43.2 33.314 45.9158 32.6854C51.7353 31.4277 57.6099 26.9687 59.9934 22.0521C64.2608 13.2483 57.8319 7.41726 49.241 8.04636C39.5977 8.7892 32.3925 13.9347 28.0144 21.0803C25.908 24.5107 24.4672 28.5122 25.1878 33.7141C25.6865 37.373 27.626 40.2885 30.231 41.8321C31.3947 42.518 32.614 42.9755 34.1105 43.3182C41.0385 44.976 47.1908 41.7747 51.8461 38.8592C51.9568 40.3459 51.7353 42.5754 53.3425 43.3756C54.2847 43.8331 55.3376 43.4899 56.0583 43.0898C57.444 42.4038 58.3857 41.2035 59.2171 39.9458C61.0464 43.89 64.2052 44.5759 67.3645 41.4319C68.639 44.1758 71.5767 44.5759 73.7382 41.7747C75.8993 38.9734 77.1186 35.0292 77.4513 30.3985C77.5621 28.5691 77.1742 26.9687 77.4513 25.482C78.8922 25.8252 80.1671 25.482 81.3865 25.482C80.8878 27.1403 80.1671 28.7407 79.668 30.3985C78.9478 32.9139 77.6177 38.7449 79.0034 41.6036C79.5021 42.6896 80.2779 43.6041 81.6636 43.7757C84.4902 44.119 85.8759 41.0318 86.6517 39.0308C86.818 38.5738 87.0396 37.2587 87.2616 37.2014C87.5938 37.1445 88.4253 36.8013 88.7575 36.6296C88.4804 38.4591 87.0952 42.0037 89.8661 43.4899C91.4182 44.2901 93.5792 42.6896 94.6321 41.7747C95.1313 42.4038 95.1869 43.0324 96.295 43.4899C99.2879 44.6902 102.447 39.0308 103.556 37.1445C103.832 36.687 104.165 35.4867 104.609 35.2003C104.83 35.0861 105.218 35.1435 105.495 35.0861C104.941 36.458 104.165 37.7157 103.888 39.6025C103.5 42.4038 104.997 44.7476 107.712 43.4325C108.377 43.0898 108.987 42.518 109.541 42.0605C110.373 41.3746 111.038 40.4027 111.924 39.831C111.924 39.9458 111.813 40.517 111.924 40.5744C111.924 40.5744 111.869 41.0318 111.924 41.3746C112.146 43.3756 113.975 44.3475 115.749 43.3182C116.303 43.0324 117.799 41.8321 117.799 41.7747C117.91 41.8321 117.411 42.8613 117.079 43.4325C116.801 43.9473 116.192 45.205 115.582 46.4627C115.028 47.7199 114.418 48.9208 114.585 49.8357C114.64 50.1785 115.139 50.7502 115.305 51.036C115.527 51.3219 116.081 52.2364 116.58 52.0647C116.968 51.9505 117.3 50.3496 117.577 49.721C118.076 48.6349 118.575 47.3772 119.074 46.2337C120.681 42.747 122.621 39.2593 124.228 35.7152C124.727 34.915 125.281 33.6573 124.838 32.5138Z" fill="#6A7685"/>
</g>
<defs>
<clipPath id="clip0">
<rect width="100" height="44.086" fill="white" transform="translate(25 8)"/>
</clipPath>
</defs>
</svg>
