<?xml version="1.0" encoding="utf-8"?>
<!-- Generator: Adobe Illustrator 24.3.0, SVG Export Plug-In . SVG Version: 6.00 Build 0)  -->
<svg version="1.1" id="Layer_1" xmlns="http://www.w3.org/2000/svg" xmlns:xlink="http://www.w3.org/1999/xlink" x="0px" y="0px"
	 viewBox="0 0 184 184" style="enable-background:new 0 0 184 184;" xml:space="preserve">
<style type="text/css">
	.st0{fill:#03C6F4;}
</style>
<path class="st0" d="M86,148.5c2.2,3.4,0.4,5.1-2.3,5.4c-7.3,0.8-14,4-21.4,4.6c-5.8,0.5-12,1.1-17.2,4.3c-2.6,1.6-3.5,0.5-5-1.2
	c-6.3-6.6-6.9-15.3-8.5-23.5c-5-26.3-11.3-52.4-16.8-78.6c-0.8-3.7-0.2-6.8,4.1-8.5c10.8-4.5,21.8-7.9,33.3-10.7
	c11.9-2.8,23.9-6.4,35.9-9.2c9.1-2.1,18.1-6.2,28-4.8c1,0.1,2.2-1.4,3.4-1.9c6.1-2.5,12.6-3.1,19-4.5c3-0.6,5.4,1.3,6.1,4.6
	c5.3,25.1,13.2,49.5,19.2,74.5c2.1,8.9,4.7,17.6,7.2,26.4c1.4,4.9-0.7,9.5-5.8,9.7c-6.4,0.3-11.9,6-18.7,2.8
	c-4,4.5-9.9,3.4-14.9,4.7c-9.1,2.5-18.1,5.8-27.9,5.7c-2.4,0-5,3.5-8.5,3.6c-2.4,0.1-5.4,3-6.3-2C88.8,149.4,87,149,86,148.5z
	 M149.4,74.5c-1.3-6.9-2.2-12.2-3.3-17.5c-0.4-1.9-1.2-3.4-3.9-2.4c-4.3,1.5-8.8,2.7-13.3,3.8c-4.3,1-9.1,0.8-13,2.6
	c-3.7,1.7-7.6,1.5-11.4,2.7c-12.8,4.1-26.1,6.7-39.1,10c-11.2,2.9-23.1,3.4-33.9,8c-1.8,0.8-4.5,0.5-4,3.6c0.8,4.7,0.9,9.8,2.4,14.2
	c1.8,5.6,2.8,11.2,3.8,16.8c2.2,12.4,6.3,24.2,9.6,36.3c0.9,3.2,3.1,5.2,6.7,2.4c0.7-0.6,1.7-0.8,2.6-1c13-3.1,26-5.9,38.9-9.3
	c13.6-3.5,27.4-5.7,41-8.9c9.2-2.1,18.5-4.5,27.9-6.1c1.7-0.3,4.7-0.1,3.6-3.6c-2.6-7.7-3.2-16.3-6.3-23.3
	C153.2,93.1,153.4,82.4,149.4,74.5z M140.7,36.7c-0.2-1.3-0.6-3.3-0.8-5.4c-0.2-3-1.2-4-4.5-3.3c-10.5,2.3-21.1,4.3-31.7,6.3
	c-15.1,2.9-30.2,6.2-45.1,10c-11.7,3-23.9,5-35,10.3c-1.9,0.9-2.4,1.7-1.9,4.2c1,4.7,2.7,9.3,2.7,14.3c0,2.9,0.8,6.9,5.3,3
	c0.9-0.8,2.4-1,3.6-1.4c10.6-3.9,22.5-3.1,32.7-8.7c0.5-0.3,1.1-0.1,1.7-0.3c12.3-3.5,24.9-5.6,37.3-8c11.2-2.2,21.9-6.8,33.5-7.4
	c2.2-0.1,6.4-2.3,3.6-6.8C141.4,41.7,141.4,39.5,140.7,36.7z"/>
<path class="st0" d="M65.4,100.6c13.1-1.9,24.3-6,36-8.4c0.6-0.1,1.1-0.3,1.6-0.3c2.9-0.3,6.9-1.8,7.9,1.6c1.5,4.7-3.6,3.8-6,4.4
	c-15.2,3.8-30.5,6.8-46.1,8.2c-2.6,0.2-5.1,1.7-7.7,2.4c-1.5,0.4-2.9,0.6-3.4-1.6c-0.5-2.3,0.9-2.5,2.4-2.8
	C55.7,102.9,61.1,101.6,65.4,100.6z"/>
<path class="st0" d="M54.6,134.1c9.9-5.8,20.1-7.9,30.3-10.6c7.2-1.9,15-1.9,21.8-5.4c1.1-0.5,2.6-0.3,3.9-0.3
	c1.2,0,2.9-0.5,2.9,1.7c0,1.1,2,2.2,0,3.4c-1.2,0.7-2.4,2.6-3.9,1.3c-2.2-2-3.2-0.7-4.7,0.8c-2.1,1.9-4.9,1.3-7.5,1.8
	c-12.4,2.2-24.5,5.5-36.4,9.5C57.9,137.3,57,134.9,54.6,134.1z"/>
<path class="st0" d="M121.1,87c4.8,1.9,10,1.7,13.6,5.5c2,2.1,2.7,3.8,1.5,6.9c-1.1,2.7-4.9,4.9-2.3,8.9c0.7,1-1,2.4-2.4,2.6
	c-1.1,0.2-2.5-0.2-2.5-1.6c-0.1-4-3-4.5-5.9-5.3c-1-0.3-2-1-2.9-1.7c-1.4-1.1-2.7-2.6-1.7-4.3c1-1.8,3-0.6,4,0.1
	c2.4,1.7,4.8,1.6,7.5,0.8c1.1-0.3,2.9,0.6,2.9-1.6c0-1.7-0.8-2.9-2.5-3.3c-2-0.5-4-1-6-1.5c-6-1.4-8.1-5.9-4.6-10.8
	c1.6-2.1,1.7-4,1.2-6.2c-0.3-1.4,0-2.7,1.4-3.3c1.7-0.7,1.6,1.2,2.2,1.9c2.3,2.4,4.1,5.2,7.9,5.6c1.2,0.1,2.3,1.7,1.8,3
	c-0.4,1.2-1.9,0.9-3,0.7C127.3,82.8,123.8,83.3,121.1,87z"/>
<path class="st0" d="M70.5,119.8c-6.2,2.6-11.8,2.1-17.2,2.8c-1.3,0.2-3.2-0.6-1.7-2.8c0.8-1.2,1.7-2.2,3.4-2.6
	c7.6-2,15.2-4.1,22.7-6.3c2.6-0.8,4.9-0.3,5.6,2.1c0.7,2.3-1.2,3.6-3.6,4.6C76.5,119.1,72.8,118.7,70.5,119.8z"/>
<path class="st0" d="M145.4,119c-7.1,1.1-13.1,2.2-19.1,2.9c-1.4,0.2-3.6,0.6-4.3-1.5c-0.8-2.7,1.5-3.1,3.2-3.6
	c5.9-1.8,11.8-4.1,18.1-3.9c2.2,0.1,5.2,0.3,5.6,2.7C149.4,118.3,146.2,118.6,145.4,119z"/>
<path class="st0" d="M89.2,86.8c-3.3,0.8-6.6,1.5-9.9,2.3c-1.7,0.4-3.3-0.4-3.8-1.7c-0.6-1.5,1.3-2.1,2.3-2.6
	c6.4-3.3,13.5-4.1,20.5-4.7c1.8-0.2,3.1,0.3,3.3,2.1c0.2,2.1-1.8,2.1-3.2,2.4C95.4,85.4,92.3,86.1,89.2,86.8
	C89.2,86.8,89.2,86.8,89.2,86.8z"/>
<path class="st0" d="M59.7,93.4c-4.5,1.1-9,2.2-13.5,3.1c-1.7,0.4-3.7,0.2-4-2c-0.4-2.5,1.7-2.3,3.4-2.3c6.4-0.1,11.9-4.1,18.4-3.9
	c1.9,0.1,4.3-0.6,4.6,1.7c0.2,2-2.4,1.9-3.9,2.5c-1.6,0.5-3.3,0.8-4.9,1.2C59.8,93.5,59.7,93.5,59.7,93.4z"/>
<path class="st0" d="M91,112.7c-1.1-6.1,3.8-4.5,5.7-5.9c2.3-1.8,6.4-1.2,9.7-1.6c0.8-0.1,1.8,0.9,1.7,1c-1.8,1.3-0.2,4.5-2.8,5
	c-2.1,0.4-4.3,1.5-6.5,0.3C96.1,110,93.6,109.7,91,112.7z"/>
<path class="st0" d="M131.6,43.5c-0.3,0.6-0.4,1.2-0.8,1.6c-2.8,2.3-6,2.4-8.7,0.5c-3-2.1-2.4-5.5-1.4-8.6c0.3-0.8,2.3-1.8,2.5-0.2
	c0.5,4.7,2.2,7,7.2,5.8C130.7,42.5,131.2,43.2,131.6,43.5z"/>
</svg>
