<svg width="125" height="125" viewBox="0 0 125 125" fill="none" xmlns="http://www.w3.org/2000/svg">
<g clip-path="url(#clip0)">
<rect x="0.680664" y="0.959961" width="123.766" height="123.766" fill="#FFCA09"/>
<g clip-path="url(#clip1)">
<path d="M124.447 13.1157H0.680176V112.571H124.447V13.1157Z" fill="#FFCA09"/>
<path d="M113.838 45.4387H11.2891V80.248H113.838V45.4387Z" fill="#FFCA09"/>
<path d="M111.296 52.042V73.6445H13.8303V52.042H111.296Z" fill="#FFCA09"/>
<path d="M30.9721 55.927L27.8594 60.1746H44.8236C45.6817 60.1746 45.6652 60.504 45.2527 61.0738C44.8401 61.6436 44.1182 62.6609 43.6891 63.2494C43.4643 63.5436 43.0703 64.0948 44.3925 64.0948H51.3399C51.3399 64.0948 52.4559 62.5573 53.4027 61.281C54.6734 59.5364 53.5059 55.927 48.9492 55.927H30.9721Z" fill="#D51F36"/>
<path d="M26.605 69.7596L32.8593 61.2292H40.6133C41.4714 61.2292 41.4549 61.5566 41.0423 62.1264L39.4602 64.2937C39.2374 64.5879 38.8414 65.1391 40.1657 65.1391H50.5662C49.708 66.3305 46.9047 69.7679 41.8674 69.7679L26.605 69.7596Z" fill="#D51F36"/>
<path d="M62.4167 65.1226L59.0297 69.7514H50.0896L53.487 65.1226H62.4167Z" fill="#D51F36"/>
<path d="M76.1199 64.0782H54.2339L60.2345 55.927H69.1746L65.7359 60.6076H69.7418L73.1619 55.927H82.104L76.1199 64.0782Z" fill="#D51F36"/>
<path d="M75.363 65.1226L71.9759 69.7514H63.0359L66.423 65.1226H75.363Z" fill="#D51F36"/>
<path d="M13.8303 66.9624H27.0176L26.2957 67.9466H13.8303V66.9624Z" fill="#D51F36"/>
<path d="M13.8303 65.1309H28.3584L27.6365 66.1151H13.8303V65.1309Z" fill="#D51F36"/>
<path d="M13.8303 68.792H25.6768L24.9549 69.7596H13.8303V68.792Z" fill="#D51F36"/>
<path d="M111.296 67.9466H98.1772L98.8827 66.9624H111.296V67.9466Z" fill="#D51F36"/>
<path d="M111.296 69.7596H96.8364L97.5584 68.792H111.296V69.7596Z" fill="#D51F36"/>
<path d="M100.224 65.1309H111.297V66.1151H99.5017L100.224 65.1309Z" fill="#D51F36"/>
<path d="M94.4993 55.927L88.5173 64.0948H79.043L85.025 55.927H94.4993Z" fill="#D51F36"/>
<path d="M78.2692 65.1226C78.2692 65.1226 77.6153 66.0218 77.2894 66.4528C76.1713 67.9736 77.1512 69.7514 80.8311 69.7514H95.2045L98.5916 65.1226H78.2692Z" fill="#D51F36"/>
</g>
</g>
<defs>
<clipPath id="clip0">
<rect width="123.766" height="123.766" fill="white" transform="translate(0.680664 0.959961)"/>
</clipPath>
<clipPath id="clip1">
<rect width="123.766" height="99.4552" fill="white" transform="translate(0.680176 13.1157)"/>
</clipPath>
</defs>
</svg>
