<svg width="124" height="125" viewBox="0 0 124 125" fill="none" xmlns="http://www.w3.org/2000/svg">
<g clip-path="url(#clip0)">
<rect x="0.233398" y="0.959961" width="123.766" height="123.766" fill="#351C14"/>
<path d="M124 1H0V125H124V1Z" fill="#003369"/>
<path d="M65.532 82.9151V59.6683H71.2435V55.3596H65.532V51.9026C68.3877 50.9507 70.2414 48.2452 70.1913 45.2392C70.1913 40.9806 66.7845 37.5737 62.5259 37.5737C58.2673 37.5737 54.8604 40.9806 54.8604 45.2392C54.8103 48.2452 56.6641 50.9507 59.5198 51.9026V55.3596H53.8083V59.6683H59.5198V83.0153C54.159 82.5143 49.1489 80.2598 45.2911 76.5022L41.1829 80.861C46.8944 85.9212 54.6099 88.7269 62.5259 88.7269C70.4419 88.7269 78.1574 86.0214 83.8689 80.861L79.7606 76.5022C75.9029 80.2097 70.8928 82.4642 65.532 82.9151ZM62.5259 48.3955C62.5259 48.3955 62.5259 48.3955 62.4758 48.3955C60.6722 48.3955 59.2192 46.9927 59.2192 45.1891C59.2693 45.1891 59.2693 45.139 59.2693 45.139C59.2693 43.3353 60.7223 41.8824 62.5259 41.8824C64.3295 41.8824 65.7825 43.3353 65.7825 45.139C65.8326 46.9426 64.3295 48.3955 62.5259 48.3955Z" fill="white"/>
<path d="M62.526 22.293C44.189 22.293 29.1587 37.0728 29.1587 55.3095C29.1587 63.2756 32.0145 70.9911 37.225 77.0033L41.5837 72.6445C37.5757 67.7346 35.4213 61.6223 35.4213 55.2594C35.4213 40.3293 47.6961 27.9544 62.5761 27.9544C77.5062 27.9544 89.7308 40.3293 89.7308 55.2594C89.7308 61.5722 87.5765 67.7847 83.5684 72.6445L87.8771 76.9532C93.0876 70.891 95.9433 63.2756 95.9433 55.2594C95.8932 37.0728 80.8629 22.293 62.526 22.293Z" fill="white"/>
<path d="M101.404 102.004V94.739H103.358V100.35H106.665V102.004H101.404ZM94.5406 102.004H99.9015V100.35H96.3443V99.0978H99.3002V97.5947H96.3443V96.3923H99.7512V94.7891H94.5406V102.004ZM86.3241 98.3964C86.3241 96.1418 87.6768 94.5386 89.8812 94.5386C91.5346 94.5386 92.7871 95.3903 93.0376 97.0436H91.0837C90.9334 96.3422 90.4324 96.1418 89.8812 96.1418C88.779 96.1418 88.2279 97.1438 88.2279 98.3964C88.2279 99.699 88.779 100.651 89.9815 100.651C90.4324 100.651 90.8833 100.551 91.1839 100.3V99.3483H89.8812V97.9454H92.9875V101.202C92.1358 101.853 91.0837 102.204 90.0315 102.254C87.6768 102.254 86.3241 100.851 86.3241 98.3964ZM81.2138 99.3984L82.1657 96.6428L83.1176 99.3984H81.2138ZM78.4081 102.004H80.4122L80.7629 100.952H83.6687L84.0194 102.004H86.0235L83.2679 94.739H81.2138L78.4081 102.004ZM71.0934 102.004H72.897V97.6448L75.4522 102.004H77.4562V94.739H75.6526V98.9976L73.0473 94.739H71.0934V102.004ZM62.9269 99.0978V98.1458H65.8328V95.1899H66.935V98.1458H69.8408V99.0978H66.935V102.004H65.8328V99.0978H62.9269ZM56.6643 102.004H62.0251V100.35H58.4679V99.0978H61.4239V97.5947H58.4679V96.3923H61.8748V94.7891H56.6643V102.004ZM48.598 102.004H50.4016V97.6448L52.9568 102.004H54.9608V94.739H53.1572V98.9976L50.552 94.739H48.598V102.004ZM40.4315 102.004H42.3855V99.198H44.9907V102.004H46.9447V94.739H44.9907V97.4444H42.3855V94.739H40.4315V102.004ZM33.6178 102.004H38.9786V100.35H35.4214V99.0978H38.3774V97.5947H35.4214V96.3923H38.8283V94.7891H33.6178V102.004ZM25.6517 99.0477C25.6517 101.352 27.1047 102.254 28.8081 102.254C30.5115 102.254 31.9645 101.352 31.9645 99.0477V94.7891H30.0105V99.3483C30.0105 100.15 29.6097 100.651 28.8081 100.651C28.0065 100.651 27.6057 100.2 27.6057 99.3483V94.7891H25.6517V99.0477ZM18.4873 102.004H20.4412V99.9495L21.0926 99.1479L22.7459 102.004H24.9503L22.3451 97.745L24.6497 94.739H22.4453L20.4412 97.2941V94.739H18.4873C18.4873 94.739 18.4873 102.004 18.4873 102.004Z" fill="white"/>
</g>
<defs>
<clipPath id="clip0">
<rect width="123.766" height="123.766" fill="white" transform="translate(0.233398 0.959961)"/>
</clipPath>
</defs>
</svg>
