<svg width="124" height="124" viewBox="0 0 124 124" fill="none" xmlns="http://www.w3.org/2000/svg">
<g clip-path="url(#clip0)">
<rect width="124" height="124" fill="white"/>
<path d="M39.2862 74.0471L44.2359 50.4199H11.3836L6.35645 74.0471H39.2862Z" fill="white"/>
<path d="M12.0578 51.3965L30.7353 55.2198C34.9358 55.9716 34.786 56.7957 34.786 56.7957C37.7103 56.7957 38.0849 56.8706 38.6093 57.3123C40.1852 58.5885 37.6354 62.4144 37.6354 62.4144C37.2608 62.6392 10.1074 73.1404 10.1074 73.1404H38.5241L43.1741 51.2363H12.0578V51.3887V51.3965Z" fill="#124B9F"/>
<path d="M33.3601 58.4464C32.9106 58.6711 31.8592 58.746 31.3348 58.8209C30.8103 58.8959 30.7251 58.8959 30.7251 59.1335C30.7251 59.2834 30.8 59.4332 31.4743 59.4332C33.0501 59.4332 35.9744 58.8339 36.8011 59.1335C37.2506 59.2834 36.876 60.11 36.4988 61.1589C36.349 61.6084 36.6487 61.5334 36.8011 61.3836C36.9535 61.2338 37.7001 59.8078 37.775 59.1335C37.9248 58.1596 37.0258 58.0098 35.8995 58.0098H34.024C33.9491 58.0098 33.8742 58.0847 33.7243 58.2345C33.6099 58.3255 33.4839 58.4011 33.3498 58.4593L33.3601 58.4464Z" fill="#124B9F"/>
<path d="M11.0091 56.3461L7.4751 73.1481C7.4751 73.1481 18.4258 67.7463 19.7769 67.0721C22.5514 65.6461 26.3024 63.7706 29.8261 62.5719C30.5029 62.3471 33.3523 61.4456 34.9928 61.1459C35.667 60.9961 35.8918 60.9211 35.8918 60.7713C35.8918 60.3967 35.2175 60.3967 34.0834 60.4716C30.7096 60.6215 24.3339 63.1712 22.4584 64.1451L20.3582 57.6868H33.7088C34.3082 56.0386 25.8348 56.2634 25.5326 56.1885H11.0091V56.3383V56.3461Z" fill="#124B9F"/>
<path d="M52.7119 73.2231C47.0105 73.2231 43.6367 70.8981 44.7604 65.871C46.6359 57.0876 47.8372 51.2441 47.8372 51.2441H52.5621C52.5621 51.2441 49.6352 64.7472 49.7204 64.4476C48.9713 67.8214 49.7204 69.7718 53.3965 69.8467C56.9228 69.8467 58.6484 67.8214 59.3976 64.4476C59.8471 62.4971 62.2393 51.2441 62.2393 51.2441H66.9642C63.7402 65.871 66.9642 51.2441 63.8151 65.871C62.7637 70.8956 58.4133 73.2231 52.7068 73.2231H52.7119Z" fill="#124B9F"/>
<path d="M82.8644 54.8452H77.7623C75.1376 54.8452 74.0139 55.3619 73.7891 56.4211C73.0374 59.8698 82.3399 62.572 81.5133 67.8962C81.0638 70.8206 78.4391 72.9957 72.5129 72.9957H65.2383L65.9874 69.547H71.8387C73.647 69.547 75.8894 69.6219 76.2639 67.8213C76.9382 64.7472 67.788 61.6704 68.4623 56.496C68.9118 53.4192 71.6889 51.3965 77.2456 51.3965H83.6213L82.8721 54.8452H82.8644Z" fill="#124B9F"/>
<path d="M117.892 54.8452H112.792C110.165 54.8452 109.041 55.3619 108.816 56.4211C108.065 59.8698 117.367 62.572 116.541 67.8962C116.091 70.8206 113.466 72.9957 107.54 72.9957H100.266L101.015 69.547H106.866C108.674 69.547 110.917 69.6219 111.291 67.8213C111.966 64.7472 102.815 61.6704 103.49 56.496C103.939 53.4192 106.716 51.3965 112.273 51.3965H118.649L117.899 54.8452H117.892Z" fill="#124B9F"/>
<path d="M92.7637 64.7472C92.0145 64.7472 91.1904 64.5973 90.5136 64.5973L90.2888 61.4457C90.9852 61.5382 91.6866 61.5883 92.3891 61.5955C95.6157 61.5955 96.8143 59.3454 97.114 58.0718C97.6307 55.7468 96.4398 54.8452 94.6392 54.8452H90.7383L86.915 72.9957H82.1875L86.7652 51.3965H97.1166C101.767 51.3965 102.283 55.4446 101.767 58.1467C100.868 62.2801 97.1166 64.7472 92.7663 64.7472H92.7637Z" fill="#124B9F"/>
</g>
<defs>
<clipPath id="clip0">
<rect width="124" height="124" fill="white"/>
</clipPath>
</defs>
</svg>
