<svg width="63" height="43" viewBox="0 0 63 43" fill="none" xmlns="http://www.w3.org/2000/svg">
<mask id="mask0_441_4554" style="mask-type:alpha" maskUnits="userSpaceOnUse" x="0" y="0" width="63" height="43">
<path fill-rule="evenodd" clip-rule="evenodd" d="M0.0336914 0.461914H62.6373V42.6504H0.0336914V0.461914Z" fill="white"/>
</mask>
<g mask="url(#mask0_441_4554)">
<path fill-rule="evenodd" clip-rule="evenodd" d="M26.0851 5.06304C28.1036 3.03809 30.9146 1.78197 34.0236 1.78197C38.1565 1.78197 41.7615 4.00008 43.6818 7.29359C45.3508 6.57612 47.1974 6.17656 49.1407 6.17656C56.5943 6.17656 62.6373 12.0453 62.6373 19.2844C62.6373 26.5245 56.5943 32.3931 49.1407 32.3931C48.2307 32.3931 47.3419 32.3046 46.4815 32.1381C44.7913 35.041 41.5692 37.0032 37.8704 37.0032C36.323 37.0032 34.8589 36.6595 33.5543 36.0465C31.8412 39.9281 27.847 42.6504 23.1932 42.6504C18.3462 42.6504 14.215 39.6979 12.6296 35.5566C11.9368 35.6975 11.2183 35.7718 10.4822 35.7718C4.71131 35.7718 0.0336914 31.2212 0.0336914 25.6076C0.0336914 21.8446 2.13425 18.5599 5.25786 16.8023C4.61472 15.3769 4.2577 13.8055 4.2577 12.1525C4.2577 5.69644 9.70201 0.461914 16.4167 0.461914C20.3593 0.461914 23.8631 2.26641 26.0851 5.06304Z" fill="#129CD7"/>
</g>
<path fill-rule="evenodd" clip-rule="evenodd" d="M8.68443 22.7579C8.64515 22.8686 8.69808 22.8914 8.7109 22.9102C8.82776 23.0021 8.94546 23.0684 9.06511 23.1426C9.6986 23.5064 10.2974 23.6123 10.9227 23.6123C12.197 23.6123 12.9885 22.8786 12.9885 21.6969V21.6741C12.9885 20.5816 12.0948 20.1841 11.2578 19.8974L11.1482 19.8598C10.5165 19.6373 9.97146 19.4454 9.97146 18.9946V18.9718C9.97146 18.5861 10.2902 18.3023 10.7839 18.3023C11.3326 18.3023 11.9835 18.5001 12.4025 18.7513C12.4025 18.7513 12.5266 18.8373 12.5713 18.7079C12.596 18.6376 12.8078 18.0196 12.8307 17.9523C12.8543 17.8802 12.8123 17.8259 12.7685 17.7972C12.2892 17.4817 11.6275 17.2661 10.9427 17.2661L10.816 17.2672C9.64929 17.2672 8.835 18.0305 8.835 19.1242V19.1468C8.835 20.2987 9.73328 20.6735 10.5749 20.9336L10.71 20.979C11.3234 21.1829 11.852 21.3588 11.852 21.8254V21.8493C11.852 22.2764 11.5078 22.5948 10.9547 22.5948C10.7392 22.5948 10.0536 22.5908 9.31332 22.0836C9.2239 22.0261 9.17278 21.9857 9.10341 21.9403C9.06692 21.9155 8.97555 21.873 8.93543 22.0024L8.68443 22.7579Z" fill="#FEFEFE"/>
<path fill-rule="evenodd" clip-rule="evenodd" d="M28.1168 22.7579C28.0775 22.8686 28.1305 22.8914 28.1433 22.9102C28.2601 23.0021 28.3778 23.0684 28.4973 23.1426C29.131 23.5064 29.7298 23.6123 30.355 23.6123C31.6294 23.6123 32.4208 22.8786 32.4208 21.6969V21.6741C32.4208 20.5816 31.5272 20.1841 30.6902 19.8974L30.5806 19.8598C29.9489 19.6373 29.4038 19.4454 29.4038 18.9946V18.9718C29.4038 18.5861 29.7225 18.3023 30.2163 18.3023C30.765 18.3023 31.4159 18.5001 31.8349 18.7513C31.8349 18.7513 31.959 18.8373 32.0037 18.7079C32.0283 18.6376 32.2402 18.0196 32.263 17.9523C32.2867 17.8802 32.2446 17.8259 32.2009 17.7972C31.7216 17.4817 31.0607 17.2661 30.3751 17.2661L30.2483 17.2672C29.0817 17.2672 28.2674 18.0305 28.2674 19.1242V19.1468C28.2674 20.2987 29.1666 20.6735 30.0072 20.9336L30.1423 20.979C30.7558 21.1829 31.2854 21.3588 31.2854 21.8254V21.8493C31.2854 22.2764 30.9412 22.5948 30.3871 22.5948C30.1716 22.5948 29.487 22.5908 28.7457 22.0836C28.6563 22.0261 28.6033 21.9876 28.5358 21.9403C28.5129 21.9244 28.4053 21.8788 28.3688 22.0024L28.1168 22.7579Z" fill="#FEFEFE"/>
<path fill-rule="evenodd" clip-rule="evenodd" d="M41.1386 20.4455C41.1386 21.1172 41.0191 21.6475 40.7839 22.0216C40.5506 22.3918 40.1986 22.5729 39.7083 22.5729C39.2169 22.5729 38.867 22.3918 38.6375 22.0216C38.405 21.6475 38.2875 21.1172 38.2875 20.4455C38.2875 19.7749 38.405 19.2455 38.6364 18.8755C38.867 18.5093 39.2169 18.3311 39.7083 18.3311C40.1986 18.3311 40.5506 18.5093 40.7839 18.8755C41.0191 19.2455 41.1386 19.7749 41.1386 20.4455ZM42.2438 19.1995C42.1357 18.8144 41.9659 18.4751 41.741 18.1926C41.5163 17.9089 41.2309 17.6811 40.8922 17.5159C40.5546 17.3507 40.1561 17.2661 39.7085 17.2661C39.2598 17.2661 38.8605 17.3507 38.5229 17.5159C38.1852 17.6811 37.8997 17.9089 37.6748 18.1935C37.4491 18.4762 37.2804 18.8153 37.1723 19.1995C37.0642 19.5825 37.009 20.0014 37.009 20.4452C37.009 20.889 37.0642 21.3088 37.1723 21.6909C37.2804 22.075 37.4491 22.4144 37.6748 22.6978C37.8997 22.9814 38.1862 23.2084 38.5239 23.3695C38.8615 23.5307 39.2598 23.6123 39.7085 23.6123C40.1561 23.6123 40.5535 23.5307 40.8922 23.3695C41.2298 23.2084 41.5154 22.9814 41.741 22.6978C41.9659 22.4154 42.1357 22.0761 42.2438 21.6909C42.3519 21.3079 42.4069 20.889 42.4069 20.4452C42.4069 20.0014 42.3519 19.5825 42.2438 19.1995Z" fill="#FEFEFE"/>
<path fill-rule="evenodd" clip-rule="evenodd" d="M50.5071 22.3956C50.4728 22.2833 50.3724 22.3261 50.3724 22.3261C50.2199 22.3908 50.0573 22.4494 49.8831 22.4793C49.7078 22.5101 49.5146 22.525 49.3067 22.525C48.7984 22.525 48.3928 22.3578 48.1028 22.0286C47.8129 21.6984 47.6496 21.1652 47.6512 20.4441C47.653 19.7886 47.7966 19.2953 48.055 18.9183C48.3115 18.5444 48.7026 18.3524 49.2228 18.3524C49.6562 18.3524 49.9877 18.4081 50.3345 18.5274C50.3345 18.5274 50.4178 18.5671 50.4565 18.4478C50.5495 18.1652 50.6173 17.9653 50.7157 17.656C50.7437 17.5675 50.6751 17.5307 50.6497 17.5197C50.5134 17.461 50.1919 17.3646 49.948 17.3238C49.7213 17.286 49.4549 17.2661 49.1587 17.2661C48.7171 17.2661 48.3232 17.3496 47.9864 17.5147C47.6496 17.6789 47.365 17.9068 47.1383 18.1903C46.9124 18.4736 46.7408 18.8128 46.6271 19.1968C46.5123 19.5798 46.4556 19.9994 46.4556 20.445C46.4556 21.4059 46.6904 22.1829 47.1555 22.7508C47.6215 23.3227 48.3206 23.6123 49.2327 23.6123C49.7719 23.6123 50.3246 23.4919 50.7229 23.3196C50.7229 23.3196 50.7988 23.279 50.7653 23.1815L50.5071 22.3956Z" fill="#FEFEFE"/>
<path fill-rule="evenodd" clip-rule="evenodd" d="M52.1372 19.8006C52.1926 19.4274 52.2945 19.1171 52.4529 18.8752C52.6913 18.5081 53.0554 18.3051 53.568 18.3051C54.0804 18.3051 54.4179 18.5081 54.6614 18.8752C54.8227 19.118 54.8929 19.4403 54.9206 19.8017L52.1372 19.8006ZM56.0179 18.9805C55.9199 18.6082 55.6774 18.2332 55.519 18.0621C55.2678 17.7894 55.0214 17.5994 54.778 17.494C54.4603 17.3566 54.0784 17.2661 53.6598 17.2661C53.1731 17.2661 52.7309 17.3487 52.3717 17.5178C52.0125 17.687 51.7107 17.9188 51.4732 18.2074C51.2366 18.495 51.0584 18.8372 50.9449 19.2263C50.8311 19.6122 50.7737 20.0331 50.7737 20.4779C50.7737 20.9307 50.8329 21.3526 50.9508 21.7306C51.0695 22.1137 51.2595 22.4491 51.5158 22.7287C51.773 23.0093 52.1025 23.2281 52.4973 23.3823C52.89 23.5346 53.3669 23.6142 53.9142 23.6122C55.0412 23.6092 55.6348 23.3565 55.8793 23.2202C55.9227 23.1953 55.9634 23.1535 55.9129 23.0322L55.6567 22.3136C55.6181 22.2072 55.5103 22.2461 55.5103 22.2461C55.2302 22.3505 54.8343 22.5376 53.9082 22.5356C53.3028 22.5347 52.8545 22.3556 52.5735 22.0739C52.2855 21.7873 52.1429 21.3655 52.1192 20.7694L56.0209 20.7725C56.0209 20.7725 56.1237 20.7714 56.1346 20.67C56.1385 20.6283 56.268 19.864 56.0179 18.9805Z" fill="#FEFEFE"/>
<path fill-rule="evenodd" clip-rule="evenodd" d="M23.5284 19.8006C23.5839 19.4274 23.6858 19.1171 23.8431 18.8752C24.0836 18.5081 24.4467 18.3051 24.9592 18.3051C25.4718 18.3051 25.8101 18.5081 26.0535 18.8752C26.2138 19.118 26.284 19.4403 26.3118 19.8017L23.5284 19.8006ZM27.4092 18.9805C27.3112 18.6082 27.0687 18.2332 26.9103 18.0621C26.6591 17.7894 26.4138 17.5994 26.1694 17.494C25.8506 17.3566 25.4697 17.2661 25.0523 17.2661C24.5645 17.2661 24.1223 17.3487 23.763 17.5178C23.4038 17.687 23.102 17.9188 22.8647 18.2074C22.6281 18.495 22.4501 18.8372 22.3362 19.2263C22.2224 19.6122 22.165 20.0331 22.165 20.4779C22.165 20.9307 22.2244 21.3526 22.3423 21.7306C22.461 22.1137 22.6509 22.4491 22.9071 22.7287C23.1643 23.0093 23.4939 23.2281 23.8887 23.3823C24.2814 23.5346 24.7583 23.6142 25.3056 23.6122C26.4325 23.6092 27.0261 23.3565 27.2706 23.2202C27.314 23.1953 27.3547 23.1535 27.3042 23.0322L27.048 22.3136C27.0094 22.2072 26.9016 22.2461 26.9016 22.2461C26.6215 22.3505 26.2257 22.5376 25.2996 22.5356C24.6951 22.5347 24.2458 22.3556 23.9648 22.0739C23.6769 21.7873 23.5345 21.3655 23.5107 20.7694L27.412 20.7725C27.412 20.7725 27.515 20.7714 27.5259 20.67C27.5298 20.6283 27.6595 19.864 27.4092 18.9805Z" fill="#FEFEFE"/>
<path fill-rule="evenodd" clip-rule="evenodd" d="M15.4327 22.3092C15.2566 22.1811 15.2329 22.1489 15.1749 22.0656C15.0853 21.9396 15.0397 21.7603 15.0397 21.5313C15.0397 21.1709 15.1704 20.9106 15.4394 20.7366C15.4372 20.7366 15.8256 20.4285 16.7385 20.4398C17.3799 20.4471 17.9546 20.5346 17.9546 20.5346V22.4019C17.9546 22.4019 17.3856 22.5134 16.7453 22.5488C15.8346 22.5999 15.4292 22.3083 15.4327 22.3092ZM17.1096 19.6168C16.9572 19.6049 16.7599 19.5989 16.5238 19.5989C16.2018 19.5989 15.8903 19.6407 15.5979 19.7232C15.3044 19.8056 15.0406 19.9328 14.8139 20.1018C14.5854 20.2728 14.4024 20.4904 14.2691 20.7489C14.1357 21.0073 14.0681 21.3114 14.0681 21.6512C14.0681 21.9991 14.1252 22.3003 14.2405 22.5467C14.3549 22.7942 14.5196 23.0009 14.7302 23.16C14.9387 23.319 15.1969 23.4354 15.495 23.5058C15.7903 23.5765 16.1246 23.6123 16.4905 23.6123C16.8762 23.6123 17.2592 23.5784 17.6316 23.5128C18.0002 23.4473 18.4518 23.3519 18.5775 23.3211C18.7022 23.2912 18.8403 23.2515 18.8403 23.2515C18.9338 23.2266 18.9261 23.1232 18.9261 23.1232L18.9243 19.5393C18.9243 18.752 18.7231 18.1697 18.3279 17.808C17.9336 17.4481 17.3525 17.2661 16.602 17.2661C16.32 17.2661 15.8675 17.306 15.595 17.3627C15.595 17.3627 14.7749 17.5286 14.4376 17.8049C14.4376 17.8049 14.3635 17.8527 14.4034 17.961L14.6691 18.7064C14.7026 18.8028 14.793 18.7699 14.793 18.7699C14.793 18.7699 14.8216 18.7581 14.8549 18.7372C15.577 18.3277 16.4913 18.3395 16.4913 18.3395C16.8972 18.3395 17.2096 18.4261 17.4201 18.5931C17.6249 18.7581 17.7287 19.0045 17.7287 19.5273V19.6934C17.4067 19.6445 17.1096 19.6168 17.1096 19.6168Z" fill="#FEFEFE"/>
<path fill-rule="evenodd" clip-rule="evenodd" d="M46.4485 17.5342C46.4751 17.4429 46.4191 17.3987 46.3961 17.3884C46.3367 17.3627 46.0384 17.2899 45.8094 17.2725C45.3691 17.2416 45.1252 17.3268 44.9067 17.4408C44.6892 17.5538 44.4487 17.7375 44.3156 17.9457L44.3146 17.4521C44.3146 17.3843 44.273 17.33 44.2144 17.33H43.317C43.2584 17.33 43.2168 17.3843 43.2168 17.4521V23.4901C43.2168 23.5578 43.2638 23.6123 43.3232 23.6123H44.2428C44.3014 23.6123 44.3484 23.5578 44.3484 23.4901V20.4737C44.3484 20.0682 44.3875 19.6648 44.4648 19.4114C44.5401 19.1599 44.6432 18.9598 44.7709 18.8162C44.8988 18.6724 45.0443 18.5719 45.2042 18.5155C45.3665 18.4578 45.5467 18.4384 45.6726 18.4384C45.8564 18.4384 46.057 18.4939 46.057 18.4939C46.1254 18.502 46.1628 18.4538 46.1858 18.3839C46.2452 18.1993 46.4166 17.644 46.4485 17.5342Z" fill="#FEFEFE"/>
<path fill-rule="evenodd" clip-rule="evenodd" d="M37.744 15.2722C37.6256 15.2367 37.5183 15.2131 37.3771 15.1884C37.2341 15.1629 37.0648 15.1501 36.8729 15.1501C36.2021 15.1501 35.6733 15.3342 35.3017 15.6967C34.9329 16.0566 34.6816 16.605 34.5556 17.3256L34.5105 17.5689H33.6684C33.6684 17.5689 33.5649 17.5653 33.5442 17.6737L33.4058 18.4208C33.3955 18.4918 33.4275 18.5364 33.5263 18.5364H34.3467L33.5141 23.0332C33.4492 23.3949 33.3748 23.6928 33.292 23.9187C33.2112 24.1419 33.1312 24.3086 33.0334 24.4297C32.9383 24.5465 32.8488 24.6339 32.6936 24.6839C32.5657 24.725 32.418 24.7441 32.2571 24.7441C32.1678 24.7441 32.0483 24.7295 31.9598 24.7123C31.8713 24.6959 31.8253 24.6767 31.7594 24.6502C31.7594 24.6502 31.6635 24.6147 31.6248 24.7076C31.5948 24.7842 31.3765 25.3663 31.3501 25.4383C31.3238 25.5094 31.3606 25.5648 31.4075 25.5814C31.5167 25.6186 31.5976 25.6432 31.7463 25.677C31.9533 25.7243 32.1273 25.7271 32.2901 25.7271C32.6316 25.7271 32.943 25.6806 33.2008 25.5904C33.4604 25.4994 33.6862 25.3408 33.8866 25.1277C34.1021 24.8962 34.2385 24.6539 34.3682 24.3232C34.4973 23.9961 34.6064 23.5898 34.6948 23.1161L35.5302 18.5364H36.7525C36.7525 18.5364 36.8558 18.54 36.8766 18.4317L37.0149 17.6846C37.0242 17.6135 36.9934 17.5689 36.8944 17.5689H35.7081C35.7137 17.5435 35.7674 17.1389 35.9039 16.759C35.9622 16.5958 36.0713 16.4657 36.1644 16.3755C36.2547 16.2871 36.3601 16.2243 36.4748 16.1877C36.5925 16.1514 36.726 16.1331 36.8729 16.1331C36.9849 16.1331 37.094 16.1459 37.1777 16.1623C37.2924 16.186 37.3376 16.1988 37.3678 16.2069C37.4882 16.2435 37.5041 16.2087 37.5285 16.1523L37.8118 15.398C37.8411 15.3168 37.7704 15.2823 37.744 15.2722Z" fill="#FEFEFE"/>
<path fill-rule="evenodd" clip-rule="evenodd" d="M21.0854 23.4943C21.0854 23.5589 21.0455 23.6117 20.9895 23.6117H20.1017C20.0457 23.6117 20.0059 23.5589 20.0059 23.4943V15.2665C20.0059 15.2019 20.0457 15.1501 20.1017 15.1501H20.9895C21.0455 15.1501 21.0854 15.2019 21.0854 15.2665V23.4943Z" fill="#FEFEFE"/>
</svg>
