<svg width="31" height="35" viewBox="0 0 31 35" fill="none" xmlns="http://www.w3.org/2000/svg">
<path d="M0.429713 26.8665C0.169281 26.9883 0 27.2447 0 27.5331C0 27.8214 0.169281 28.0778 0.429713 28.1996L14.8837 34.8654C15.079 34.955 15.2874 35 15.4957 35V20.1301C15.2809 20.1301 15.066 20.1751 14.8642 20.2647L0.429713 26.8665Z" fill="#F27923"/>
<path d="M15.4977 20.1243V34.994C15.719 35.0006 15.9469 34.9492 16.1553 34.8594L30.5701 28.2194C30.8305 28.0976 31 27.8412 31 27.5529C31 27.2709 30.8305 27.0081 30.5701 26.8863L16.1292 20.2653C15.9274 20.1755 15.7125 20.1243 15.4977 20.1243V20.1243Z" fill="#F5A730"/>
<path d="M0 7.40765C0 7.69608 0.169281 7.95245 0.429713 8.07422L14.8837 14.7336C15.079 14.8233 15.2874 14.8682 15.4957 14.8746C15.678 14.8746 15.8603 14.849 16.0361 14.7849C16.1728 14.7208 16.1468 14.7336 16.4398 14.599C17.9307 13.9196 16.9411 14.3682 30.5618 8.09346C30.822 7.97169 30.9915 7.7153 30.9915 7.42689C30.9915 7.14486 30.822 6.88208 30.5618 6.76031L16.1273 0.139404C15.7301 -0.0464681 15.2678 -0.0464681 14.8707 0.139404L0.429713 6.74107C0.169281 6.86285 0 7.12564 0 7.40765H0Z" fill="#20AD92"/>
<path d="M15.4957 15.7074V20.1235C15.2809 20.1235 15.066 20.1683 14.8642 20.2581L0.429713 26.8661C0.169281 26.9879 0 27.2443 0 27.5326V7.90072V7.4072C0 7.69563 0.169281 7.952 0.429713 8.07377L14.8837 14.7331C15.079 14.8229 15.2874 14.8677 15.4957 14.8741C15.678 14.8741 15.8603 14.8485 16.0361 14.7844L16.01 14.7972C15.5608 14.9959 15.4957 15.201 15.4957 15.7074V15.7074Z" fill="#D0D1D1"/>
</svg>
