<svg width="185" height="60" viewBox="0 0 185 60" fill="none" xmlns="http://www.w3.org/2000/svg">
<path d="M2.5 38.3944H5.47V35.4085L6.49 34.2536L9.07 38.4226H12.52L8.47 32.2254L12.07 27.9156H8.62L5.47 31.6621V27.9156H2.5V38.3944ZM13.57 34.0846C13.57 37.4649 15.85 38.7606 18.46 38.7606C21.07 38.7606 23.32 37.4367 23.32 34.0846V27.8874H20.32V34.5071C20.32 35.6902 19.69 36.3663 18.46 36.3663C17.2 36.3663 16.57 35.6902 16.57 34.5071V27.8874H13.57V34.0846ZM25.9 38.3944H34.21V36.0001H28.72V34.1691H33.25V31.9719H28.72V30.1973H33.97V27.8874H25.9V38.3944ZM36.46 38.3944H39.43V34.3381H43.45V38.3944H46.42V27.8874H43.45V31.8311H39.43V27.8874H36.46V38.3944ZM49.09 38.3944H51.85V32.0846L55.78 38.3944H58.93V27.8874H56.17V34.0846L52.15 27.8874H49.12V38.3944H49.09ZM61.57 38.3944H69.88V36.0001H64.42V34.1691H68.95V31.9719H64.42V30.1973H69.67V27.8874H61.6V38.3944H61.57ZM71.26 34.1691V32.7888H75.7V28.5353H77.38V32.7888H81.88V34.1691H77.38V38.3944H75.7V34.1691H71.26ZM83.89 38.3944H86.65V32.0846L90.58 38.3944H93.73V27.8874H90.97V34.0846L86.95 27.8874H83.92V38.3944H83.89ZM95.11 38.3944H98.17L98.74 36.817H103.21L103.78 38.3944H106.84L102.58 27.8874H99.4L95.11 38.3944ZM99.52 34.6198L100.99 30.6198L102.46 34.6198H99.52ZM107.35 33.1268C107.35 29.8311 109.48 27.5494 112.84 27.5494C115.36 27.5494 117.34 28.7888 117.73 31.155H114.76C114.49 30.1409 113.74 29.8592 112.87 29.8592C111.16 29.8592 110.32 31.2959 110.32 33.1268C110.32 34.986 111.22 36.4508 113.05 36.4508C113.83 36.4508 114.43 36.2818 114.94 35.9437V34.5635H112.93V32.5071H117.76V37.2113C116.35 38.2536 114.52 38.7325 113.23 38.7325C109.48 38.7606 107.35 36.6761 107.35 33.1268ZM120.13 38.3944H128.44V36.0001H122.95V34.1691H127.48V31.9719H122.95V30.1973H128.2V27.8874H120.13V38.3944ZM130.69 38.3944V27.8874H133.69V36.0283H138.79V38.4226H130.69V38.3944ZM146.2 33.0423C146.2 23.7466 154.36 16.1973 164.35 16.1973C174.34 16.1973 182.5 23.7466 182.5 33.0423C182.5 37.2395 180.85 41.1268 178.09 44.1128L175.75 41.9156C177.94 39.4367 179.11 36.2818 179.11 33.0423C179.11 25.4085 172.45 19.0987 164.35 19.0987C156.25 19.0987 149.59 25.4085 149.59 33.0423C149.59 36.2818 150.76 39.4367 152.95 41.9156L150.61 44.1128C147.85 41.1268 146.2 37.2677 146.2 33.0423ZM152.77 46.0846C155.89 48.6761 160.06 50.0846 164.38 50.0846C168.7 50.0846 172.87 48.6761 175.99 46.0846L173.74 43.8592C171.58 45.7747 169 46.8733 165.97 47.1832V35.2677H169.09V33.0423H165.97V31.2677C167.47 30.7325 168.52 29.493 168.52 27.8874C168.52 25.7184 166.66 24.0564 164.38 24.0564C162.07 24.0564 160.24 25.7466 160.24 27.8874C160.24 29.5212 161.29 30.7606 162.79 31.2677V33.0423H159.67V35.2395H162.79V47.155C159.76 46.8733 157.18 45.7747 155.02 43.8311L152.77 46.0846ZM162.55 27.8311C162.55 26.8451 163.33 26.1409 164.32 26.1409C165.37 26.1409 166.15 26.8451 166.15 27.8311C166.15 28.817 165.37 29.5212 164.32 29.5212C163.36 29.5212 162.55 28.817 162.55 27.8311Z" fill="#003369"/>
</svg>
