<svg width="185" height="60" viewBox="0 0 185 60" fill="none" xmlns="http://www.w3.org/2000/svg">
<g clip-path="url(#clip0_29_13947)">
<path d="M152.89 44.2668C152.881 43.3804 153.134 42.5113 153.618 41.7698C154.102 41.0284 154.795 40.448 155.608 40.1024C156.421 39.7568 157.318 39.6616 158.185 39.8289C159.053 39.9962 159.851 40.4184 160.478 41.0419C161.106 41.6654 161.535 42.4621 161.711 43.3308C161.886 44.1995 161.801 45.101 161.465 45.9208C161.129 46.7407 160.558 47.4418 159.825 47.9353C159.091 48.4288 158.228 48.6922 157.345 48.6923C156.761 48.7043 156.18 48.5984 155.637 48.3808C155.094 48.1632 154.6 47.8385 154.185 47.4257C153.769 47.013 153.44 46.5207 153.218 45.9781C152.996 45.4355 152.884 44.8535 152.89 44.2668V44.2668ZM157.368 43.7699C158.127 43.7699 158.342 43.3625 158.342 43.008C158.342 42.5807 158.127 42.2462 157.368 42.2462H156.401V43.7699H157.368ZM156.401 44.4556V46.8936H155.619V41.534H157.56C158.695 41.534 159.21 42.0308 159.21 43.008C159.22 43.2782 159.131 43.5429 158.961 43.7526C158.791 43.9623 158.551 44.1027 158.286 44.1475V44.1707C158.731 44.2436 158.899 44.651 158.995 45.3864C159.068 45.8601 159.16 46.6949 159.325 46.8837H158.401C158.187 46.3835 158.21 45.6713 158.045 45.0783C157.903 44.6245 157.665 44.4556 157.144 44.4556H156.401ZM160.945 44.2668C160.945 42.1269 159.434 40.5568 157.345 40.5568C155.256 40.5568 153.745 42.1269 153.745 44.2668C153.745 46.4067 155.259 47.9768 157.345 47.9768C159.431 47.9768 160.945 46.41 160.945 44.2668Z" fill="#E86324"/>
<path d="M137.456 47.9207L132.321 42.1404L127.232 47.9207H116.527L126.992 36.1149L116.527 24.3125H127.569L132.76 30.0464L137.753 24.3125H148.402L137.987 36.0686L148.547 47.9207H137.456Z" fill="#E86324"/>
<path d="M95.9617 47.9208V10.728H116.527V19.0093H104.674V24.3093H116.527V32.2858H104.674V39.6064H116.527V47.9208H95.9617Z" fill="#E86324"/>
<path d="M82.0191 42.2563C78.8214 42.2563 76.8315 39.2751 76.8315 36.1414C76.8315 32.8057 78.564 29.5926 82.0191 29.5926C85.6029 29.5926 87.0318 32.8057 87.0318 36.1414C87.0318 39.3082 85.5171 42.2563 82.0191 42.2563ZM51.1906 32.395C51.7384 30.0332 53.5632 28.4896 55.8435 28.4896C58.3515 28.4896 60.084 29.9868 60.5394 32.395H51.1906ZM87.2826 10.7246V25.9621H87.1902C85.2696 23.746 82.8672 22.9809 80.0853 22.9809C74.3796 22.9809 70.083 26.8764 68.5749 32.0207C66.8556 26.353 62.4204 22.8749 55.8435 22.8749C50.5008 22.8749 46.2735 25.2831 44.0823 29.2051V24.3125H33.0406V19.0125H45.0889V10.7312H23.2V47.9207H33.0406V32.2857H42.8515C42.5489 33.4876 42.3982 34.7229 42.4027 35.9626C42.4027 43.7237 48.3063 49.1662 55.8435 49.1662C62.1795 49.1662 66.3574 46.1849 68.5618 40.7359H60.1303C58.9885 42.3722 58.1239 42.8592 55.8403 42.8592C53.2003 42.8592 50.9133 40.5404 50.9133 37.7944H68.0733C68.8158 43.9589 73.6008 49.2722 80.1612 49.2722C81.5478 49.2742 82.9134 48.932 84.1363 48.276C85.3592 47.62 86.4015 46.6707 87.1704 45.5125H87.2628V47.9207H95.9386V10.7279L87.2826 10.7246Z" fill="#412C91"/>
</g>
<defs>
<clipPath id="clip0_29_13947">
<rect width="185" height="60" rx="2.73652" fill="white"/>
</clipPath>
</defs>
</svg>
