<svg width="150" height="56" viewBox="0 0 150 56" fill="none" xmlns="http://www.w3.org/2000/svg">
<rect x="0.000488281" y="6.10352e-05" width="150" height="56" rx="3.30144" fill="#121118"/>
<path d="M9.99847 15.0433V10.4673H11.8158C12.0947 10.4673 12.3431 10.5239 12.5611 10.6372C12.7833 10.7462 12.9555 10.9031 13.0775 11.1079C13.2039 11.3084 13.2671 11.5503 13.2671 11.8335V11.9185C13.2671 12.2018 13.2017 12.4459 13.071 12.6507C12.9446 12.8555 12.7724 13.0124 12.5545 13.1214C12.3366 13.2303 12.0904 13.2848 11.8158 13.2848H10.7045V15.0433H9.99847ZM10.7045 12.6442H11.7439C11.9923 12.6442 12.1906 12.5788 12.3388 12.448C12.487 12.3173 12.5611 12.1386 12.5611 11.912V11.8466C12.5611 11.6156 12.487 11.4348 12.3388 11.304C12.1906 11.1733 11.9923 11.1079 11.7439 11.1079H10.7045V12.6442ZM14.3513 15.0433L15.6587 10.4673H16.9008L18.2017 15.0433H17.476L17.1753 13.9647H15.3841L15.0834 15.0433H14.3513ZM15.5607 13.3109H16.9988L16.332 10.9053H16.2274L15.5607 13.3109ZM19.933 15.0433V10.4673H21.8549C22.1382 10.4673 22.3866 10.5174 22.6001 10.6176C22.818 10.7135 22.9858 10.853 23.1035 11.036C23.2255 11.219 23.2865 11.437 23.2865 11.6897V11.7616C23.2865 12.0493 23.2168 12.2803 23.0773 12.4546C22.9422 12.6245 22.7766 12.7444 22.5805 12.8141V12.9187C22.7461 12.9274 22.8791 12.9841 22.9793 13.0887C23.0795 13.1889 23.1296 13.3349 23.1296 13.5267V15.0433H22.4171V13.6247C22.4171 13.5071 22.3866 13.4134 22.3256 13.3436C22.2646 13.2739 22.1665 13.239 22.0314 13.239H20.639V15.0433H19.933ZM20.639 12.5984H21.7764C22.0292 12.5984 22.2253 12.5352 22.3648 12.4088C22.5043 12.2781 22.574 12.1016 22.574 11.8793V11.827C22.574 11.6047 22.5043 11.4304 22.3648 11.304C22.2297 11.1733 22.0336 11.1079 21.7764 11.1079H20.639V12.5984ZM26.1962 15.0433V11.1079H24.7907V10.4673H28.3077V11.1079H26.9022V15.0433H26.1962ZM30.059 15.0433V10.4673H31.4187L32.6608 14.5726H32.7654V10.4673H33.4648V15.0433H32.1051L30.863 10.9314H30.7584V15.0433H30.059ZM35.5305 15.0433V10.4673H38.4135V11.1079H36.2366V12.4219H38.2304V13.0625H36.2366V14.4027H38.4461V15.0433H35.5305ZM40.2935 15.0433V10.4673H42.2154C42.4987 10.4673 42.7471 10.5174 42.9607 10.6176C43.1786 10.7135 43.3464 10.853 43.464 11.036C43.5861 11.219 43.6471 11.437 43.6471 11.6897V11.7616C43.6471 12.0493 43.5774 12.2803 43.4379 12.4546C43.3028 12.6245 43.1372 12.7444 42.9411 12.8141V12.9187C43.1067 12.9274 43.2396 12.9841 43.3398 13.0887C43.4401 13.1889 43.4902 13.3349 43.4902 13.5267V15.0433H42.7776V13.6247C42.7776 13.5071 42.7471 13.4134 42.6861 13.3436C42.6251 13.2739 42.527 13.239 42.3919 13.239H40.9995V15.0433H40.2935ZM40.9995 12.5984H42.137C42.3898 12.5984 42.5859 12.5352 42.7253 12.4088C42.8648 12.2781 42.9345 12.1016 42.9345 11.8793V11.827C42.9345 11.6047 42.8648 11.4304 42.7253 11.304C42.5902 11.1733 42.3941 11.1079 42.137 11.1079H40.9995V12.5984ZM47.8899 15.0433L49.1973 10.4673H50.4394L51.7403 15.0433H51.0147L50.7139 13.9647H48.9228L48.622 15.0433H47.8899ZM49.0993 13.3109H50.5374L49.8706 10.9053H49.766L49.0993 13.3109ZM53.7366 15.0433L53.0632 10.4673H53.7693L54.3184 14.5661H54.423L55.129 10.4673H56.3645L57.0705 14.5661H57.1751L57.7177 10.4673H58.4237L57.7504 15.0433H56.5149L55.7958 10.8856H55.6912L54.9786 15.0433H53.7366ZM59.7459 15.0433L61.0534 10.4673H62.2954L63.5963 15.0433H62.8707L62.57 13.9647H60.7788L60.4781 15.0433H59.7459ZM60.9553 13.3109H62.3935L61.7267 10.9053H61.6221L60.9553 13.3109ZM65.3276 15.0433V10.4673H67.2496C67.5328 10.4673 67.7813 10.5174 67.9948 10.6176C68.2127 10.7135 68.3805 10.853 68.4982 11.036C68.6202 11.219 68.6812 11.437 68.6812 11.6897V11.7616C68.6812 12.0493 68.6115 12.2803 68.472 12.4546C68.3369 12.6245 68.1713 12.7444 67.9752 12.8141V12.9187C68.1408 12.9274 68.2737 12.9841 68.374 13.0887C68.4742 13.1889 68.5243 13.3349 68.5243 13.5267V15.0433H67.8118V13.6247C67.8118 13.5071 67.7813 13.4134 67.7202 13.3436C67.6592 13.2739 67.5612 13.239 67.4261 13.239H66.0336V15.0433H65.3276ZM66.0336 12.5984H67.1711C67.4239 12.5984 67.62 12.5352 67.7595 12.4088C67.8989 12.2781 67.9687 12.1016 67.9687 11.8793V11.827C67.9687 11.6047 67.8989 11.4304 67.7595 11.304C67.6244 11.1733 67.4283 11.1079 67.1711 11.1079H66.0336V12.5984ZM70.3994 15.0433V14.4157H71.0139V11.0948H70.3994V10.4673H72.2298C72.84 10.4673 73.3063 10.622 73.6288 10.9314C73.9557 11.2408 74.1191 11.7072 74.1191 12.3304V13.1867C74.1191 13.81 73.9557 14.2763 73.6288 14.5857C73.3063 14.8908 72.84 15.0433 72.2298 15.0433H70.3994ZM71.7265 14.4027H72.2364C72.633 14.4027 72.9271 14.3024 73.1189 14.1019C73.3106 13.9015 73.4065 13.6029 73.4065 13.2064V12.3042C73.4065 11.9033 73.3106 11.6047 73.1189 11.4086C72.9271 11.2125 72.633 11.1145 72.2364 11.1145H71.7265V14.4027ZM77.584 15.1348C77.2398 15.1348 76.9347 15.0738 76.6688 14.9518C76.403 14.8298 76.1938 14.6511 76.0413 14.4157C75.8931 14.176 75.819 13.8862 75.819 13.5463V13.3829H76.5185V13.5463C76.5185 13.8688 76.6144 14.1107 76.8061 14.2719C77.0022 14.4332 77.2615 14.5138 77.584 14.5138C77.9109 14.5138 78.1571 14.4462 78.3227 14.3111C78.4884 14.1717 78.5712 13.993 78.5712 13.7751C78.5712 13.6313 78.5319 13.5136 78.4535 13.4221C78.375 13.3306 78.2639 13.2587 78.1201 13.2064C77.9763 13.1497 77.8041 13.0974 77.6037 13.0495L77.3618 12.9906C77.0698 12.9209 76.8148 12.8359 76.5969 12.7357C76.3834 12.6311 76.2178 12.4938 76.1001 12.3238C75.9824 12.1539 75.9236 11.936 75.9236 11.6701C75.9236 11.3999 75.989 11.1689 76.1197 10.9772C76.2548 10.7854 76.44 10.6372 76.6754 10.5326C76.9107 10.428 77.1875 10.3757 77.5056 10.3757C77.8237 10.3757 78.107 10.4302 78.3554 10.5392C78.6082 10.6481 78.8065 10.8094 78.9503 11.0229C79.0941 11.2365 79.166 11.5045 79.166 11.827V12.0623H78.4666V11.827C78.4666 11.6309 78.4252 11.4718 78.3424 11.3498C78.2639 11.2278 78.1528 11.1384 78.009 11.0818C77.8651 11.0251 77.6974 10.9968 77.5056 10.9968C77.2267 10.9968 77.0088 11.0556 76.8519 11.1733C76.6993 11.2866 76.6231 11.4457 76.6231 11.6505C76.6231 11.79 76.6558 11.9055 76.7211 11.997C76.7909 12.0841 76.8911 12.156 77.0218 12.2127C77.1526 12.2694 77.316 12.3195 77.5121 12.3631L77.754 12.4219C78.0504 12.4873 78.3119 12.5722 78.5385 12.6768C78.7651 12.7771 78.9438 12.9144 79.0745 13.0887C79.2053 13.263 79.2706 13.4875 79.2706 13.762C79.2706 14.0366 79.2009 14.2763 79.0615 14.4811C78.9264 14.6859 78.7324 14.8472 78.4796 14.9649C78.2269 15.0782 77.9283 15.1348 77.584 15.1348ZM83.7372 15.0433V14.5269C83.7372 14.2087 83.7917 13.9472 83.9007 13.7424C84.0096 13.5376 84.1643 13.372 84.3648 13.2456C84.5696 13.1148 84.8159 13.0059 85.1035 12.9187L85.5023 12.7945C85.681 12.7379 85.8335 12.6681 85.9599 12.5853C86.0906 12.5025 86.1909 12.4001 86.2606 12.2781C86.3303 12.1517 86.3652 12.0057 86.3652 11.8401V11.8139C86.3652 11.5568 86.278 11.3563 86.1037 11.2125C85.9294 11.0643 85.7006 10.9902 85.4173 10.9902C85.1253 10.9902 84.8878 11.0687 84.7047 11.2256C84.5261 11.3825 84.4367 11.6135 84.4367 11.9185V12.0231H83.7568V11.9251C83.7568 11.5938 83.8288 11.3149 83.9726 11.0883C84.1164 10.8573 84.3147 10.6808 84.5675 10.5588C84.8202 10.4368 85.1035 10.3757 85.4173 10.3757C85.7311 10.3757 86.01 10.4346 86.2541 10.5523C86.5025 10.6699 86.6964 10.8355 86.8359 11.0491C86.9797 11.2626 87.0516 11.5132 87.0516 11.8009V11.8597C87.0516 12.156 86.9928 12.4023 86.8751 12.5984C86.7574 12.7945 86.594 12.9558 86.3848 13.0821C86.18 13.2085 85.9424 13.3153 85.6722 13.4025L85.2865 13.5201C85.0817 13.5812 84.9161 13.6487 84.7897 13.7228C84.6677 13.7925 84.5762 13.8775 84.5152 13.9777C84.4585 14.078 84.4302 14.2065 84.4302 14.3634V14.4288H87.0124V15.0433H83.7372ZM90.5467 15.1348C90.015 15.1348 89.5901 14.9845 89.272 14.6838C88.9582 14.3787 88.8013 13.9211 88.8013 13.3109V12.1996C88.8013 11.6026 88.9582 11.1493 89.272 10.8399C89.5901 10.5305 90.015 10.3757 90.5467 10.3757C91.0828 10.3757 91.5077 10.5305 91.8215 10.8399C92.1396 11.1493 92.2987 11.6026 92.2987 12.1996V13.3109C92.2987 13.9211 92.1396 14.3787 91.8215 14.6838C91.5077 14.9845 91.0828 15.1348 90.5467 15.1348ZM90.5467 14.5203C90.9085 14.5203 91.1765 14.4179 91.3508 14.2131C91.5251 14.0039 91.6123 13.7119 91.6123 13.3371V12.1604C91.6123 11.7856 91.5186 11.498 91.3312 11.2975C91.1438 11.0927 90.8823 10.9902 90.5467 10.9902C90.2068 10.9902 89.9453 11.0948 89.7623 11.304C89.5792 11.5089 89.4877 11.7943 89.4877 12.1604V13.3371C89.4877 13.7206 89.5749 14.0148 89.7492 14.2196C89.9279 14.4201 90.1937 14.5203 90.5467 14.5203ZM94.0803 15.0433V14.5269C94.0803 14.2087 94.1348 13.9472 94.2437 13.7424C94.3527 13.5376 94.5074 13.372 94.7079 13.2456C94.9127 13.1148 95.1589 13.0059 95.4466 12.9187L95.8453 12.7945C96.024 12.7379 96.1766 12.6681 96.3029 12.5853C96.4337 12.5025 96.5339 12.4001 96.6037 12.2781C96.6734 12.1517 96.7082 12.0057 96.7082 11.8401V11.8139C96.7082 11.5568 96.6211 11.3563 96.4468 11.2125C96.2724 11.0643 96.0436 10.9902 95.7604 10.9902C95.4684 10.9902 95.2308 11.0687 95.0478 11.2256C94.8691 11.3825 94.7798 11.6135 94.7798 11.9185V12.0231H94.0999V11.9251C94.0999 11.5938 94.1718 11.3149 94.3156 11.0883C94.4595 10.8573 94.6577 10.6808 94.9105 10.5588C95.1633 10.4368 95.4466 10.3757 95.7604 10.3757C96.0741 10.3757 96.3531 10.4346 96.5971 10.5523C96.8455 10.6699 97.0395 10.8355 97.1789 11.0491C97.3227 11.2626 97.3947 11.5132 97.3947 11.8009V11.8597C97.3947 12.156 97.3358 12.4023 97.2181 12.5984C97.1005 12.7945 96.937 12.9558 96.7279 13.0821C96.523 13.2085 96.2855 13.3153 96.0153 13.4025L95.6296 13.5201C95.4248 13.5812 95.2592 13.6487 95.1328 13.7228C95.0108 13.7925 94.9192 13.8775 94.8582 13.9777C94.8016 14.078 94.7732 14.2065 94.7732 14.3634V14.4288H97.3554V15.0433H94.0803ZM100.759 15.1348C100.424 15.1348 100.125 15.0738 99.8638 14.9518C99.6023 14.8298 99.3975 14.6533 99.2493 14.4223C99.1055 14.1913 99.0336 13.9167 99.0336 13.5986V13.4809H99.72V13.5855C99.72 13.8731 99.8137 14.1019 100.001 14.2719C100.193 14.4375 100.446 14.5203 100.759 14.5203C101.073 14.5203 101.317 14.4419 101.492 14.285C101.666 14.1281 101.753 13.9298 101.753 13.6901V13.6313C101.753 13.4613 101.712 13.324 101.629 13.2194C101.546 13.1148 101.435 13.0386 101.295 12.9906C101.156 12.9383 100.999 12.9122 100.825 12.9122H99.9945V12.1212L101.603 11.1733V11.0818H99.1447V10.4673H102.348V11.3956L100.812 12.3108V12.4023H101.093C101.324 12.4023 101.542 12.4459 101.746 12.533C101.951 12.6202 102.117 12.7531 102.243 12.9318C102.374 13.1105 102.439 13.3371 102.439 13.6117V13.6901C102.439 13.9821 102.37 14.2371 102.23 14.455C102.091 14.6685 101.895 14.8363 101.642 14.9583C101.389 15.076 101.095 15.1348 100.759 15.1348Z" fill="#5CBBFE"/>
<path d="M11.448 28.6386V23.8058H9.72195V23.019H14.041V23.8058H12.315V28.6386H11.448ZM16.1916 28.6386V23.019H19.7319V23.8058H17.0586V25.4194H19.5072V26.2061H17.0586V27.8519H19.7721V28.6386H16.1916ZM24.128 28.751C23.443 28.751 22.8997 28.5583 22.4983 28.173C22.0969 27.7823 21.8962 27.2203 21.8962 26.4871V25.1705C21.8962 24.4373 22.0969 23.878 22.4983 23.4927C22.8997 23.102 23.443 22.9066 24.128 22.9066C24.8024 22.9066 25.3215 23.094 25.6854 23.4686C26.0547 23.8432 26.2394 24.3544 26.2394 25.0019V25.0501H25.3804V24.9779C25.3804 24.5979 25.276 24.2875 25.0673 24.0466C24.8639 23.8058 24.5508 23.6854 24.128 23.6854C23.6998 23.6854 23.3653 23.8165 23.1245 24.0787C22.8837 24.3356 22.7633 24.6942 22.7633 25.1545V26.5032C22.7633 26.9581 22.8837 27.3167 23.1245 27.5789C23.3653 27.8412 23.6998 27.9723 24.128 27.9723C24.5508 27.9723 24.8639 27.8519 25.0673 27.611C25.276 27.3648 25.3804 27.0544 25.3804 26.6798V26.5433H26.2394V26.6557C26.2394 27.3033 26.0547 27.8144 25.6854 28.189C25.3215 28.5637 24.8024 28.751 24.128 28.751ZM28.5641 28.6386V23.019H29.4311V25.4274H31.7913V23.019H32.6583V28.6386H31.7913V26.2142H29.4311V28.6386H28.5641ZM35.1972 28.6386V23.019H36.867L38.3923 28.0606H38.5208V23.019H39.3798V28.6386H37.7099L36.1846 23.589H36.0562V28.6386H35.1972ZM44.0279 28.751C43.3375 28.751 42.7889 28.5583 42.3821 28.173C41.9754 27.7823 41.772 27.2203 41.772 26.4871V25.1705C41.772 24.4373 41.9754 23.878 42.3821 23.4927C42.7889 23.102 43.3375 22.9066 44.0279 22.9066C44.7183 22.9066 45.2669 23.102 45.6736 23.4927C46.0857 23.878 46.2918 24.4373 46.2918 25.1705V26.4871C46.2918 27.2203 46.0857 27.7823 45.6736 28.173C45.2669 28.5583 44.7183 28.751 44.0279 28.751ZM44.0279 27.9723C44.4721 27.9723 44.8146 27.8438 45.0555 27.5869C45.2963 27.3247 45.4167 26.9688 45.4167 26.5192V25.1384C45.4167 24.6889 45.2963 24.3356 45.0555 24.0787C44.8146 23.8165 44.4721 23.6854 44.0279 23.6854C43.5944 23.6854 43.2545 23.8165 43.0083 24.0787C42.7621 24.3356 42.639 24.6889 42.639 25.1384V26.5192C42.639 26.9688 42.7621 27.3247 43.0083 27.5869C43.2545 27.8438 43.5944 27.9723 44.0279 27.9723ZM48.6829 28.6386V23.019H49.5499V27.8519H52.2553V28.6386H48.6829ZM56.3533 28.751C55.6629 28.751 55.1143 28.5583 54.7076 28.173C54.3008 27.7823 54.0974 27.2203 54.0974 26.4871V25.1705C54.0974 24.4373 54.3008 23.878 54.7076 23.4927C55.1143 23.102 55.6629 22.9066 56.3533 22.9066C57.0437 22.9066 57.5923 23.102 57.999 23.4927C58.4111 23.878 58.6172 24.4373 58.6172 25.1705V26.4871C58.6172 27.2203 58.4111 27.7823 57.999 28.173C57.5923 28.5583 57.0437 28.751 56.3533 28.751ZM56.3533 27.9723C56.7975 27.9723 57.14 27.8438 57.3809 27.5869C57.6217 27.3247 57.7421 26.9688 57.7421 26.5192V25.1384C57.7421 24.6889 57.6217 24.3356 57.3809 24.0787C57.14 23.8165 56.7975 23.6854 56.3533 23.6854C55.9198 23.6854 55.5799 23.8165 55.3338 24.0787C55.0876 24.3356 54.9645 24.6889 54.9645 25.1384V26.5192C54.9645 26.9688 55.0876 27.3247 55.3338 27.5869C55.5799 27.8438 55.9198 27.9723 56.3533 27.9723ZM62.9591 28.751C62.5577 28.751 62.1991 28.6654 61.8834 28.4941C61.5676 28.3175 61.3187 28.0606 61.1368 27.7234C60.9548 27.3862 60.8638 26.9741 60.8638 26.4871V25.1705C60.8638 24.4373 61.0645 23.878 61.4659 23.4927C61.8673 23.102 62.4105 22.9066 63.0956 22.9066C63.77 22.9066 64.2891 23.0913 64.653 23.4606C65.017 23.8245 65.1989 24.3142 65.1989 24.9297V24.9698H64.3399V24.9056C64.3399 24.6755 64.2944 24.4694 64.2035 24.2875C64.1125 24.1001 63.976 23.953 63.794 23.8459C63.6121 23.7389 63.3793 23.6854 63.0956 23.6854C62.6674 23.6854 62.3329 23.8165 62.0921 24.0787C61.8513 24.3356 61.7308 24.6942 61.7308 25.1545V26.5032C61.7308 26.9581 61.8513 27.3193 62.0921 27.5869C62.3329 27.8492 62.6701 27.9803 63.1036 27.9803C63.5318 27.9803 63.8449 27.8626 64.0429 27.6271C64.2409 27.3916 64.3399 27.0865 64.3399 26.7119V26.6075H62.8307V25.8609H65.1989V28.6386H64.3961V28.0686H64.2677C64.2195 28.1703 64.1473 28.2747 64.0509 28.3817C63.9599 28.4888 63.8261 28.5771 63.6495 28.6466C63.4783 28.7162 63.2481 28.751 62.9591 28.751ZM68.8671 28.6386V26.5995L66.9163 23.019H67.8958L69.2445 25.5639H69.3649L70.7136 23.019H71.693L69.7422 26.5995V28.6386H68.8671Z" fill="white"/>
<path d="M14.0861 45.6148L10.0303 33.6512H12.8303L15.2909 41.6948L17.9552 33.6172H20.1952L22.8594 41.6948L25.32 33.6512H28.0521L23.9964 45.6148H21.7225L19.0412 37.8427L16.36 45.6148H14.0861ZM30.1067 45.5299V33.6512H32.72V45.5299H30.1067ZM35.6886 45.5299V33.6512H38.0983L43.6644 40.9651V33.6512H46.2438V45.5299H44.0207L38.268 37.9784V45.5299H35.6886ZM49.0953 45.5299V33.6512H51.505L57.0711 40.9651V33.6512H59.6505V45.5299H57.4274L51.6747 37.9784V45.5299H49.0953ZM62.502 45.5299V33.6512H71.462V35.976H65.0984V38.3857H70.6984V40.7106H65.0984V43.2051H71.5469V45.5299H62.502ZM73.8704 45.5299V33.6512H79.3007C80.8053 33.6512 81.9593 34.0528 82.7625 34.856C83.4413 35.5348 83.7807 36.4398 83.7807 37.5712V37.6051C83.7807 39.4265 82.9322 40.654 81.2352 41.2875L84.137 45.5299H81.0825L78.537 41.7287H78.5031H76.4837V45.5299H73.8704ZM76.4837 39.4209H79.131C79.7532 39.4209 80.2397 39.2681 80.5904 38.9627C80.9524 38.6572 81.1334 38.2499 81.1334 37.7409V37.7069C81.1334 37.1526 80.9524 36.734 80.5904 36.4512C80.2284 36.157 79.7249 36.01 79.0801 36.01H76.4837V39.4209Z" fill="url(#paint0_linear_41_4534)"/>
<path d="M124.47 29.8657H129.134C130.46 29.8657 131.3 29.1359 131.3 27.9637C131.3 26.8578 130.46 26.0616 129.134 26.0616H124.47C124.315 26.0616 124.183 26.1943 124.183 26.327V29.6003C124.205 29.7551 124.315 29.8657 124.47 29.8657Z" fill="white"/>
<path d="M124.47 37.4075H129.289C130.769 37.4075 131.654 36.6555 131.654 35.3285C131.654 34.1785 130.814 33.2496 129.289 33.2496H124.47C124.315 33.2496 124.183 33.3823 124.183 33.515V37.12C124.205 37.2969 124.315 37.4075 124.47 37.4075Z" fill="white"/>
<path d="M141.534 8.89913L127.741 22.6557H129.996C133.51 22.6557 135.588 24.8673 135.588 27.2781C135.588 29.1801 134.306 30.5734 132.936 31.1927C132.715 31.2812 132.715 31.5908 132.958 31.6793C134.549 32.2985 135.676 33.9573 135.676 35.9036C135.676 38.646 133.842 40.8356 130.283 40.8356H120.514C120.359 40.8356 120.226 40.7029 120.226 40.5702V30.1532L105.086 45.2368C104.887 45.4358 105.02 45.7897 105.307 45.7897H141.71C141.843 45.7897 141.954 45.6791 141.954 45.5464V9.09818C142.02 8.8549 141.71 8.7222 141.534 8.89913Z" fill="white"/>
<defs>
<linearGradient id="paint0_linear_41_4534" x1="9.52126" y1="37.1598" x2="84.7366" y2="37.1598" gradientUnits="userSpaceOnUse">
<stop stop-color="#01CCAE"/>
<stop offset="1" stop-color="#019BE6"/>
</linearGradient>
</defs>
</svg>
