<svg width="186" height="60" viewBox="0 0 186 60" fill="none" xmlns="http://www.w3.org/2000/svg">
<g clip-path="url(#clip0_29_13942)">
<path d="M171.012 5.5H14.9876C11.9569 5.5 9.5 7.95314 9.5 10.9792V49.0208C9.5 52.0469 11.9569 54.5 14.9876 54.5H171.012C174.043 54.5 176.5 52.0469 176.5 49.0208V10.9792C176.5 7.95314 174.043 5.5 171.012 5.5Z" fill="#032E61"/>
<path d="M40.2441 15.2877C41.9825 13.484 44.3956 12.3609 47.0747 12.3609C50.6263 12.3609 53.7279 14.3416 55.3776 17.2752C56.816 16.6354 58.4043 16.2814 60.0745 16.2814C66.4823 16.2814 71.6836 21.5156 71.6836 27.975C71.6836 34.4344 66.4891 39.6686 60.0745 39.6686C59.2905 39.6686 58.527 39.5869 57.7908 39.444C56.3388 42.0304 53.5643 43.7865 50.3877 43.7865C49.0584 43.7865 47.7973 43.4802 46.6725 42.9357C45.2 46.4002 41.7643 48.8233 37.7628 48.8233C33.7613 48.8233 30.0393 46.1892 28.6759 42.4933C28.0828 42.6158 27.4625 42.6839 26.8285 42.6839C21.8658 42.6839 17.8439 38.6272 17.8439 33.6176C17.8439 30.262 19.6503 27.3284 22.3362 25.7629C21.784 24.4901 21.4773 23.088 21.4773 21.6177C21.4773 15.8594 26.1605 11.1902 31.9344 11.1902C35.3224 11.1902 38.3354 12.7965 40.251 15.2945L40.2441 15.2877Z" fill="#00A1E0"/>
<path d="M25.6423 30.6976C25.6082 30.7861 25.6559 30.8065 25.6627 30.8201C25.765 30.895 25.8673 30.9426 25.9695 31.0039C26.5217 31.2965 27.0398 31.3782 27.5783 31.3782C28.6826 31.3782 29.3711 30.7929 29.3711 29.8468V29.8263C29.3711 28.9551 28.594 28.6352 27.8714 28.4106L27.776 28.3766C27.2306 28.1996 26.7534 28.043 26.7534 27.6891V27.6687C26.7534 27.3624 27.0329 27.131 27.4556 27.131C27.9328 27.131 28.4986 27.2875 28.8599 27.4917C28.8599 27.4917 28.9689 27.5598 29.003 27.4577C29.0235 27.4032 29.2075 26.9063 29.228 26.8519C29.2484 26.7906 29.2143 26.7498 29.1734 26.7294C28.7576 26.4775 28.185 26.3074 27.5919 26.3074H27.4829C26.474 26.3074 25.765 26.92 25.765 27.7912V27.8116C25.765 28.7305 26.5421 29.03 27.2715 29.241L27.3874 29.275C27.9191 29.4384 28.3759 29.5813 28.3759 29.9489V29.9693C28.3759 30.3096 28.0759 30.5614 27.5987 30.5614C27.4147 30.5614 26.8216 30.5614 26.174 30.153C26.099 30.1054 26.0513 30.0782 25.99 30.0373C25.9559 30.0169 25.8809 29.9829 25.8468 30.085L25.6287 30.6908L25.6423 30.6976Z" fill="white"/>
<path d="M41.8121 30.6976C41.778 30.7861 41.8257 30.8065 41.8325 30.8201C41.9348 30.895 42.0371 30.9426 42.1393 31.0039C42.6915 31.2965 43.2096 31.3782 43.7481 31.3782C44.8524 31.3782 45.5409 30.7929 45.5409 29.8468V29.8263C45.5409 28.9551 44.7638 28.6352 44.0412 28.4106L43.9458 28.3766C43.4004 28.1996 42.9232 28.043 42.9232 27.6891V27.6687C42.9232 27.3624 43.2027 27.131 43.6254 27.131C44.1026 27.131 44.6684 27.2875 45.0297 27.4917C45.0297 27.4917 45.1387 27.5598 45.1728 27.4577C45.1933 27.4032 45.3773 26.9063 45.3978 26.8519C45.4182 26.7906 45.3841 26.7498 45.3432 26.7294C44.9274 26.4775 44.3548 26.3074 43.7617 26.3074H43.6527C42.6438 26.3074 41.9348 26.92 41.9348 27.7912V27.8116C41.9348 28.7305 42.7119 29.03 43.4413 29.241L43.5572 29.275C44.0889 29.4384 44.5457 29.5813 44.5457 29.9489V29.9693C44.5457 30.3096 44.2457 30.5614 43.7685 30.5614C43.5845 30.5614 42.9914 30.5614 42.3438 30.153C42.2688 30.1054 42.2211 30.0782 42.1598 30.0373C42.1393 30.0237 42.0439 29.9897 42.0166 30.085L41.7985 30.6908L41.8121 30.6976Z" fill="white"/>
<path d="M53.7689 27.8593C53.6803 27.553 53.5371 27.2876 53.3462 27.063C53.1554 26.8384 52.9168 26.6546 52.6373 26.5253C52.3578 26.3959 52.0238 26.3279 51.6488 26.3279C51.2739 26.3279 50.9399 26.3959 50.6604 26.5253C50.3809 26.6546 50.1423 26.8384 49.9514 27.063C49.7606 27.2876 49.6242 27.5599 49.5288 27.8593C49.4402 28.1656 49.3925 28.4992 49.3925 28.8463C49.3925 29.1934 49.4402 29.5337 49.5288 29.8332C49.6174 30.1395 49.7606 30.405 49.9514 30.6364C50.1423 30.861 50.3809 31.0448 50.6604 31.1673C50.9399 31.2966 51.2739 31.3579 51.6488 31.3579C52.0238 31.3579 52.3578 31.2898 52.6373 31.1673C52.9168 31.038 53.1554 30.861 53.3462 30.6364C53.5371 30.4118 53.6735 30.1395 53.7689 29.8332C53.8575 29.5269 53.9052 29.1934 53.9052 28.8463C53.9052 28.4992 53.8575 28.1588 53.7689 27.8593ZM52.8486 28.8463C52.8486 29.3772 52.7464 29.7992 52.5555 30.0987C52.3578 30.3914 52.0647 30.5343 51.6557 30.5343C51.2466 30.5343 50.9535 30.3914 50.7626 30.0987C50.5718 29.7992 50.4695 29.384 50.4695 28.8463C50.4695 28.3086 50.565 27.8934 50.7626 27.6007C50.9535 27.308 51.2466 27.1651 51.6557 27.1651C52.0647 27.1651 52.3578 27.308 52.5555 27.6007C52.7532 27.8934 52.8486 28.3154 52.8486 28.8463Z" fill="white"/>
<path fill-rule="evenodd" clip-rule="evenodd" d="M61.3424 30.3984C61.3151 30.3099 61.2265 30.3439 61.2265 30.3439C61.0902 30.3984 60.947 30.4392 60.797 30.4664C60.6402 30.4937 60.4766 30.5005 60.2926 30.5005C59.8495 30.5005 59.495 30.3712 59.236 30.1057C58.9837 29.8402 58.8406 29.4182 58.8406 28.8465C58.8406 28.3224 58.9701 27.9344 59.1951 27.6349C59.42 27.3355 59.7609 27.1857 60.2176 27.1857C60.5993 27.1857 60.8857 27.2266 61.1924 27.3218C61.1924 27.3218 61.2674 27.3559 61.3015 27.2606C61.3833 27.036 61.4446 26.8794 61.5264 26.6344C61.5537 26.5663 61.4924 26.5323 61.4719 26.5255C61.3492 26.4778 61.0697 26.403 60.8584 26.3689C60.6607 26.3417 60.4289 26.3213 60.1699 26.3213C59.7813 26.3213 59.4405 26.3894 59.1405 26.5187C58.8474 26.648 58.5952 26.8318 58.3975 27.0564C58.1998 27.281 58.0498 27.5533 57.9476 27.8528C57.8453 28.159 57.7976 28.4926 57.7976 28.8465C57.7976 29.6088 58.0021 30.2282 58.4111 30.6774C58.8201 31.1335 59.4337 31.3581 60.2312 31.3581C60.7016 31.3581 61.1856 31.2628 61.5401 31.1267C61.5401 31.1267 61.6082 31.0926 61.581 31.0178L61.356 30.3916L61.3424 30.3984Z" fill="white"/>
<path fill-rule="evenodd" clip-rule="evenodd" d="M66.0597 27.6892C65.9847 27.3965 65.787 27.097 65.6575 26.9609C65.4598 26.7431 65.2621 26.5933 65.0644 26.5117C64.8122 26.4028 64.5054 26.3279 64.1714 26.3279C63.7829 26.3279 63.4284 26.3959 63.1421 26.5253C62.8558 26.6614 62.6104 26.8452 62.4263 27.0698C62.2354 27.3012 62.0923 27.5735 62.0036 27.8798C61.915 28.1861 61.8673 28.5196 61.8673 28.8735C61.8673 29.2275 61.915 29.5678 62.0105 29.8673C62.1059 30.1736 62.2559 30.439 62.4604 30.6568C62.6649 30.8814 62.9307 31.0516 63.2443 31.1741C63.5579 31.2966 63.9396 31.3579 64.3759 31.3579C65.2758 31.3579 65.7529 31.1537 65.9506 31.0448C65.9847 31.0244 66.0188 30.9903 65.9779 30.895L65.7734 30.3233C65.7393 30.2348 65.6575 30.2688 65.6575 30.2688C65.4325 30.3505 65.119 30.5003 64.3759 30.5003C63.8919 30.5003 63.5306 30.3573 63.3057 30.1327C63.0739 29.9081 62.9648 29.5678 62.9444 29.0981H66.0665C66.0665 29.0981 66.1483 29.0981 66.1551 29.0164C66.1551 28.9824 66.2642 28.3766 66.0597 27.6756V27.6892ZM62.958 28.3426C62.9989 28.0431 63.0807 27.7981 63.2102 27.6075C63.4011 27.3148 63.6942 27.1583 64.1032 27.1583C64.5123 27.1583 64.7849 27.3216 64.9758 27.6075C65.1053 27.7981 65.1599 28.0567 65.1803 28.3426H62.9512H62.958Z" fill="white"/>
<path fill-rule="evenodd" clip-rule="evenodd" d="M41.0621 27.6892C40.9871 27.3965 40.7895 27.097 40.6599 26.9609C40.4622 26.7431 40.2646 26.5933 40.0669 26.5117C39.8146 26.4028 39.5079 26.3279 39.1739 26.3279C38.7853 26.3279 38.4308 26.3959 38.1445 26.5253C37.8582 26.6614 37.6128 26.8452 37.4287 27.0698C37.2379 27.3012 37.0947 27.5735 37.0061 27.8798C36.9175 28.1861 36.8698 28.5196 36.8698 28.8735C36.8698 29.2275 36.9175 29.5678 37.0129 29.8673C37.1083 30.1736 37.2583 30.439 37.4628 30.6568C37.6673 30.8814 37.9332 31.0516 38.2468 31.1741C38.5603 31.2966 38.9421 31.3579 39.3784 31.3579C40.2782 31.3579 40.7554 31.1537 40.9531 31.0448C40.9871 31.0244 41.0212 30.9903 40.9803 30.895L40.7758 30.3233C40.7417 30.2348 40.6599 30.2688 40.6599 30.2688C40.435 30.3505 40.1214 30.5003 39.3784 30.5003C38.8944 30.5003 38.5331 30.3573 38.3081 30.1327C38.0763 29.9081 37.9673 29.5678 37.9468 29.0981H41.0689C41.0689 29.0981 41.1508 29.0981 41.1576 29.0164C41.1576 28.9824 41.2666 28.3766 41.0621 27.6756V27.6892ZM37.9605 28.3426C38.0014 28.0431 38.0832 27.7981 38.2127 27.6075C38.4035 27.3148 38.6967 27.1583 39.1057 27.1583C39.5147 27.1583 39.7874 27.3216 39.9782 27.6075C40.1078 27.7981 40.1623 28.0567 40.1828 28.3426H37.9536H37.9605Z" fill="white"/>
<path d="M32.4524 28.1931C32.3229 28.1863 32.1593 28.1795 31.9684 28.1795C31.7025 28.1795 31.4435 28.2135 31.1981 28.2748C30.9527 28.3428 30.7346 28.4449 30.5437 28.5742C30.3528 28.7104 30.2028 28.8805 30.0938 29.0847C29.9847 29.2889 29.9233 29.534 29.9233 29.8062C29.9233 30.0785 29.9711 30.3235 30.0665 30.5209C30.1619 30.7183 30.2983 30.8816 30.4755 31.011C30.6459 31.1403 30.8641 31.2288 31.1095 31.2832C31.3549 31.3377 31.6344 31.3649 31.9343 31.3649C32.2547 31.3649 32.5751 31.3377 32.8819 31.2832C33.1886 31.2288 33.5636 31.1539 33.6658 31.1335C33.7681 31.1063 33.8839 31.079 33.8839 31.079C33.9589 31.0586 33.9521 30.9769 33.9521 30.9769V28.125C33.9521 27.4988 33.7817 27.036 33.4545 26.7501C33.1273 26.4642 32.6433 26.3213 32.0229 26.3213C31.7912 26.3213 31.4094 26.3553 31.1845 26.3962C31.1845 26.3962 30.5028 26.5255 30.2233 26.7501C30.2233 26.7501 30.1619 26.7909 30.196 26.8726L30.4142 27.4648C30.4414 27.5397 30.5164 27.5124 30.5164 27.5124C30.5164 27.5124 30.5369 27.5056 30.5709 27.4852C31.1708 27.1585 31.9275 27.1721 31.9275 27.1721C32.2615 27.1721 32.5274 27.2402 32.6978 27.3763C32.8682 27.5056 32.9569 27.703 32.9569 28.1182V28.2475C32.691 28.2067 32.4456 28.1863 32.4456 28.1863L32.4524 28.1931ZM31.2117 30.3848C31.089 30.2895 31.0754 30.2623 31.0345 30.201C30.9731 30.1057 30.9391 29.9696 30.9391 29.7926C30.9391 29.5203 31.0277 29.323 31.2185 29.1868C31.2185 29.1868 31.4844 28.9554 32.1252 28.9622C32.5751 28.9622 32.9705 29.0371 32.9705 29.0371V30.4528C32.9705 30.4528 32.5751 30.5345 32.1252 30.5617C31.4912 30.6026 31.2117 30.378 31.2117 30.378V30.3848Z" fill="white"/>
<path fill-rule="evenodd" clip-rule="evenodd" d="M57.6272 26.5865C57.6545 26.5185 57.5999 26.4844 57.5795 26.4776C57.525 26.4572 57.2591 26.4027 57.0546 26.3891C56.6592 26.3619 56.4479 26.43 56.2502 26.5185C56.0593 26.6069 55.8412 26.7431 55.7253 26.9064V26.5253C55.7253 26.4708 55.6844 26.43 55.6367 26.43H54.8391C54.7846 26.43 54.7505 26.4708 54.7505 26.5253V31.1741C54.7505 31.2286 54.7914 31.2694 54.8459 31.2694H55.664C55.7185 31.2694 55.7594 31.2286 55.7594 31.1741V28.8531C55.7594 28.54 55.7935 28.2337 55.8616 28.0363C55.9298 27.8457 56.0184 27.6892 56.1343 27.5803C56.2502 27.4714 56.3797 27.3897 56.5229 27.3488C56.666 27.3012 56.8296 27.2876 56.9387 27.2876C57.1023 27.2876 57.2796 27.3284 57.2796 27.3284C57.3409 27.3284 57.375 27.3012 57.3954 27.2467C57.45 27.1038 57.5999 26.675 57.6272 26.5933V26.5865Z" fill="white"/>
<path fill-rule="evenodd" clip-rule="evenodd" d="M49.9309 24.429C49.8286 24.3949 49.74 24.3745 49.6241 24.3541C49.5014 24.3337 49.3582 24.3201 49.2015 24.3201C48.6357 24.3201 48.1926 24.4766 47.879 24.7965C47.5654 25.1096 47.3609 25.5861 47.2518 26.2123L47.2109 26.4233H46.502C46.502 26.4233 46.4134 26.4233 46.3997 26.5118L46.2838 27.1584C46.277 27.2196 46.3043 27.2605 46.3861 27.2605H47.0746L46.3725 31.1606C46.3179 31.4737 46.2566 31.7324 46.1884 31.9297C46.1202 32.1203 46.0521 32.2701 45.9703 32.3722C45.8885 32.4743 45.8135 32.5491 45.6839 32.59C45.5749 32.624 45.4522 32.6444 45.3158 32.6444C45.2409 32.6444 45.1386 32.6308 45.0636 32.6172C44.9886 32.6036 44.9477 32.5832 44.8932 32.5627C44.8932 32.5627 44.8114 32.5287 44.7773 32.6104C44.75 32.6785 44.566 33.1821 44.5455 33.2434C44.5251 33.3047 44.5523 33.3523 44.5932 33.3659C44.6819 33.3999 44.75 33.4204 44.8796 33.4476C45.05 33.4884 45.1999 33.4884 45.3363 33.4884C45.6226 33.4884 45.8885 33.4476 46.0998 33.3727C46.3179 33.291 46.5088 33.1549 46.6792 32.9711C46.8633 32.7669 46.9723 32.5627 47.0882 32.2769C47.1973 31.991 47.2859 31.6439 47.3609 31.2287L48.063 27.2537H49.0924C49.0924 27.2537 49.181 27.2537 49.1946 27.1652L49.3105 26.5186C49.3173 26.4573 49.2901 26.4165 49.2083 26.4165H48.213C48.213 26.4165 48.2607 26.0421 48.3766 25.7154C48.4243 25.5725 48.5198 25.4636 48.5948 25.3819C48.6697 25.307 48.7584 25.2526 48.8538 25.2185C48.9561 25.1845 49.0651 25.1709 49.1878 25.1709C49.2833 25.1709 49.3719 25.1845 49.4469 25.1981C49.5423 25.2185 49.5832 25.2321 49.6037 25.2389C49.7059 25.273 49.7195 25.2389 49.74 25.1913L49.9786 24.5379C50.0059 24.4698 49.9445 24.4358 49.924 24.429H49.9309Z" fill="white"/>
<path fill-rule="evenodd" clip-rule="evenodd" d="M35.9904 31.1674C35.9904 31.2218 35.9563 31.2627 35.9017 31.2627H35.0769C35.0224 31.2627 34.9883 31.2218 34.9883 31.1674V24.5174C34.9883 24.463 35.0224 24.4221 35.0769 24.4221H35.9017C35.9563 24.4221 35.9904 24.463 35.9904 24.5174V31.1674Z" fill="white"/>
<path d="M92.0116 32.6716V21.577H95.7677C96.9538 21.5633 97.84 21.7267 98.4263 21.999C99.626 22.5571 100.376 23.8299 100.376 25.3273C100.376 27.3829 99.2375 29.1934 96.0472 29.1934H94.7247V32.6716H92.0048H92.0116ZM95.9449 26.7023C97.0833 26.7023 97.656 26.3143 97.656 25.3682C97.656 24.4221 97.1038 24.0613 95.8359 24.0613H94.7247V26.7023H95.9381H95.9449Z" fill="white"/>
<path d="M107.452 32.6717L106.913 31.0654H103.055L102.469 32.6717H99.4215L103.88 21.5771H106.116L110.533 32.6717H107.452ZM105.018 25.0417L104.97 25.028L103.832 28.8193H106.163L105.025 25.0417H105.018Z" fill="white"/>
<path d="M116.982 32.6717L114.412 29.0847H114.384V32.6717H111.665V21.5771H115.298C116.457 21.5771 117.343 21.7269 117.929 21.9855C119.129 22.5233 119.974 23.8301 119.974 25.4024C119.974 27.1585 118.925 28.5946 117.213 28.8941L120.233 32.6717H116.989H116.982ZM115.434 27.1517C116.559 27.1517 117.254 26.6276 117.254 25.559C117.254 24.5992 116.532 24.0615 115.468 24.0615H114.384V27.1517H115.434Z" fill="white"/>
<path d="M122.435 32.6715V24.0612H120.24V21.5701H127.452V24.0612H125.271V32.6715H122.435Z" fill="white"/>
<path d="M135.503 32.6717L131.236 25.8925L131.311 32.6717H128.591V21.5771H131.038L135.367 28.5947L135.244 21.5771H137.964V32.6717H135.503Z" fill="white"/>
<path d="M139.989 32.6717V21.5771H146.165V24.0683H142.709V25.7904H146.056V28.2816H142.709V30.1874H146.165V32.6785H139.989V32.6717Z" fill="white"/>
<path d="M153.234 32.6717L150.664 29.0847H150.637V32.6717H147.917V21.5771H151.55C152.709 21.5771 153.595 21.7269 154.181 21.9855C155.381 22.5233 156.227 23.8301 156.227 25.4024C156.227 27.1585 155.177 28.5946 153.466 28.8941L156.486 32.6717H153.241H153.234ZM151.686 27.1517C152.811 27.1517 153.507 26.6276 153.507 25.559C153.507 24.5992 152.784 24.0615 151.721 24.0615H150.637V27.1517H151.686Z" fill="white"/>
<path d="M100.608 42.0782L101.126 41.3975C101.351 41.5609 101.582 41.6766 101.814 41.7514C102.053 41.8195 102.312 41.8603 102.598 41.8603C102.939 41.8603 103.205 41.7923 103.409 41.6493C103.614 41.5064 103.716 41.2954 103.716 41.0095C103.716 40.8053 103.668 40.6352 103.566 40.5127C103.464 40.3901 103.328 40.288 103.144 40.2132C102.959 40.1383 102.707 40.0566 102.387 39.9681C101.862 39.832 101.467 39.6346 101.194 39.3692C100.921 39.1037 100.792 38.7498 100.792 38.3006C100.792 37.9602 100.88 37.6607 101.064 37.4157C101.242 37.1707 101.487 36.9869 101.794 36.8576C102.101 36.7351 102.448 36.667 102.837 36.667C103.546 36.667 104.173 36.8576 104.711 37.2387L104.227 37.933C103.996 37.7901 103.778 37.688 103.559 37.6199C103.341 37.5518 103.109 37.5246 102.864 37.5246C102.557 37.5246 102.312 37.5859 102.135 37.7016C101.951 37.8173 101.862 37.9943 101.862 38.2257C101.862 38.4571 101.957 38.6477 102.141 38.7702C102.326 38.8927 102.632 39.0084 103.069 39.1241C103.634 39.2739 104.071 39.4849 104.371 39.7571C104.671 40.0294 104.821 40.431 104.821 40.9551C104.821 41.3499 104.725 41.6766 104.527 41.9488C104.33 42.2211 104.064 42.4185 103.73 42.5478C103.396 42.6771 103.021 42.7452 102.612 42.7452C102.223 42.7452 101.862 42.6839 101.521 42.5682C101.18 42.4525 100.88 42.2824 100.614 42.0645L100.608 42.0782Z" fill="white"/>
<path d="M107.165 41.7922H107.847V42.6022H105.441V41.7922H106.122V37.5994H105.441V36.8167H107.847V37.5994H107.165V41.7922Z" fill="white"/>
<path d="M108.938 36.8167H110.158L113.021 41.132H113.035L113.008 36.8167H113.996V42.6022H112.776L109.913 38.28H109.899L109.933 42.6022H108.938V36.8167Z" fill="white"/>
<path d="M119.845 37.3885L119.238 38.0759C119.054 37.9194 118.843 37.7969 118.597 37.7084C118.359 37.6199 118.107 37.5791 117.848 37.5791C117.214 37.5791 116.75 37.7696 116.45 38.1576C116.15 38.5388 116 39.0561 116 39.7027C116 40.3493 116.15 40.853 116.45 41.2342C116.75 41.6153 117.207 41.8127 117.827 41.8127C118.113 41.8127 118.386 41.7583 118.632 41.6562C118.877 41.5541 119.095 41.4111 119.279 41.2342L119.927 41.9352C119.681 42.1803 119.375 42.3776 119.006 42.5342C118.638 42.6907 118.236 42.7656 117.8 42.7656C117.186 42.7656 116.655 42.6363 116.218 42.3776C115.782 42.119 115.455 41.7583 115.23 41.3022C115.005 40.8394 114.896 40.3153 114.896 39.7163C114.896 39.1173 115.012 38.5728 115.237 38.1168C115.462 37.6607 115.796 37.3068 116.232 37.0482C116.668 36.7963 117.2 36.667 117.813 36.667C118.216 36.667 118.597 36.7351 118.959 36.8644C119.32 36.9937 119.613 37.1775 119.852 37.4021L119.845 37.3885Z" fill="white"/>
<path d="M124.426 37.6742H121.842V39.2193H124.051V40.0429H121.842V41.7241H124.569V42.5953H120.772V36.8098H124.426V37.6674V37.6742Z" fill="white"/>
<path d="M131.202 38.4095C131.202 38.777 131.127 39.1106 130.977 39.3964C130.827 39.6823 130.575 39.9954 130.227 40.3221C129.873 40.6488 129.32 41.1185 128.564 41.7174H131.359V42.6023H127.173V41.7855L127.309 41.663C128.175 40.9211 128.782 40.3902 129.136 40.0703C129.484 39.7504 129.736 39.4713 129.886 39.2399C130.036 39.0085 130.111 38.7634 130.111 38.5116C130.111 38.2257 130.016 37.9875 129.818 37.8105C129.62 37.6335 129.354 37.5451 129.027 37.5451C128.768 37.5451 128.523 37.5995 128.305 37.7152C128.086 37.8241 127.868 37.9943 127.657 38.2121L127.016 37.654C127.303 37.3341 127.609 37.089 127.937 36.9257C128.264 36.7623 128.652 36.6738 129.109 36.6738C129.538 36.6738 129.913 36.7555 130.227 36.9121C130.541 37.0754 130.786 37.2864 130.95 37.5519C131.113 37.8173 131.202 38.1032 131.202 38.4163V38.4095Z" fill="white"/>
<path d="M132.047 39.7095C132.047 38.7157 132.231 37.9602 132.606 37.4429C132.981 36.9256 133.52 36.6602 134.242 36.6602C134.965 36.6602 135.517 36.9188 135.892 37.4429C136.267 37.967 136.451 38.7157 136.451 39.7095C136.451 40.7032 136.267 41.4587 135.892 41.976C135.517 42.4933 134.972 42.7588 134.242 42.7588C133.513 42.7588 132.974 42.5001 132.606 41.976C132.238 41.4519 132.047 40.7032 132.047 39.7095ZM135.387 39.7095C135.387 38.9744 135.299 38.4298 135.128 38.0827C134.958 37.7356 134.665 37.5586 134.249 37.5586C133.833 37.5586 133.54 37.7356 133.37 38.0827C133.199 38.4298 133.111 38.9744 133.111 39.7095C133.111 40.4446 133.192 40.9959 133.363 41.3362C133.533 41.6765 133.826 41.8467 134.249 41.8467C134.672 41.8467 134.965 41.6765 135.135 41.3362C135.306 40.9959 135.387 40.4514 135.387 39.7095Z" fill="white"/>
<path d="M141.352 41.7173V42.6022H137.514V41.7309H139.068V37.8989L137.603 38.6L137.194 37.8376L139.171 36.8167H140.139V41.7173H141.352Z" fill="white"/>
<path d="M146.342 39.3555C146.342 40.4242 146.029 41.2477 145.395 41.8331C144.761 42.4185 143.84 42.7111 142.62 42.7111V41.8399C143.418 41.8399 144.038 41.6834 144.488 41.3771C144.938 41.0708 145.197 40.6283 145.258 40.0566C144.822 40.4242 144.331 40.6011 143.786 40.6011C143.438 40.6011 143.118 40.5262 142.831 40.3833C142.545 40.2404 142.32 40.0226 142.15 39.7435C141.979 39.4644 141.897 39.1377 141.897 38.7566C141.897 38.3618 141.986 38.001 142.163 37.6811C142.341 37.3612 142.6 37.1094 142.934 36.9324C143.274 36.7486 143.67 36.6602 144.12 36.6602C144.842 36.6602 145.395 36.8984 145.769 37.3748C146.144 37.8513 146.328 38.5115 146.328 39.3555H146.342ZM145.279 39.2194C145.265 38.6272 145.17 38.1984 144.992 37.9262C144.815 37.6607 144.522 37.5246 144.127 37.5246C143.758 37.5246 143.479 37.6335 143.281 37.8445C143.084 38.0555 142.981 38.3482 142.981 38.7293C142.981 39.0765 143.077 39.3419 143.268 39.5257C143.459 39.7095 143.718 39.798 144.038 39.798C144.277 39.798 144.502 39.7503 144.72 39.6482C144.931 39.5461 145.122 39.4032 145.285 39.2194H145.279Z" fill="white"/>
</g>
<defs>
<clipPath id="clip0_29_13942">
<rect width="167" height="49" fill="white" transform="translate(9.5 5.5)"/>
</clipPath>
</defs>
</svg>
