<svg width="185" height="60" viewBox="0 0 185 60" fill="none" xmlns="http://www.w3.org/2000/svg">
<g clip-path="url(#clip0_29_13945)">
<g clip-path="url(#clip1_29_13945)">
<path fill-rule="evenodd" clip-rule="evenodd" d="M124.179 25.012C121.955 25.012 121.076 23.4899 121.635 20.6107C122.198 17.7042 123.605 16.2304 125.817 16.2304C128.235 16.2304 129.131 17.6633 128.56 20.6107C127.977 23.6133 126.585 25.012 124.179 25.012ZM126.065 15.282C124.546 15.282 123.299 15.8075 122.413 16.8115L122.585 15.9264C122.639 15.6463 122.447 15.4096 122.165 15.4096C121.883 15.4096 121.598 15.6463 121.544 15.9264L118.92 29.462C118.865 29.7422 119.058 29.9788 119.34 29.9788C119.621 29.9788 119.907 29.7422 119.96 29.462L120.935 24.4347C121.294 25.0774 122.126 25.9586 123.995 25.9586C125.457 25.9586 126.683 25.5125 127.64 24.6312C128.628 23.722 129.302 22.3691 129.643 20.6091C129.984 18.8504 129.834 17.5006 129.198 16.5976C128.582 15.7251 127.528 15.282 126.065 15.282Z" fill="black"/>
<path fill-rule="evenodd" clip-rule="evenodd" d="M148.714 20.037C147.396 19.5511 146.15 19.0926 146.387 17.8717C146.506 17.2582 147.007 16.2282 149.027 16.2282C150.162 16.2282 150.879 16.5399 151.499 17.3046C151.616 17.4472 151.748 17.4472 151.805 17.4472C152.063 17.4472 152.324 17.2303 152.374 16.9731C152.401 16.8336 152.374 16.7512 152.313 16.6415C152.31 16.6372 152.307 16.6329 152.305 16.6286C151.675 15.7336 150.634 15.28 149.211 15.28C147.137 15.28 145.657 16.2728 145.346 17.8711C144.976 19.7842 146.681 20.425 148.185 20.9902C149.486 21.4786 150.716 21.9397 150.488 23.1097C150.167 24.7624 148.422 25.0091 147.41 25.0091C146.015 25.0091 145.154 24.6324 144.529 23.7486C144.527 23.7461 144.525 23.743 144.523 23.7406C144.446 23.6457 144.343 23.598 144.218 23.598C143.988 23.598 143.704 23.7889 143.649 24.0721C143.621 24.211 143.648 24.2927 143.711 24.4031C144.126 25.1758 145.375 25.9573 147.227 25.9573C149.575 25.9573 151.183 24.8926 151.528 23.1097C151.897 21.2089 150.207 20.5862 148.714 20.037Z" fill="black"/>
<path fill-rule="evenodd" clip-rule="evenodd" d="M145.569 12.6083H144.47L144.682 11.5176C144.736 11.2374 144.544 11.0007 144.262 11.0007C143.98 11.0007 143.696 11.2374 143.641 11.5176L143.43 12.6083H142.331C142.049 12.6083 141.766 12.8451 141.711 13.1252C141.657 13.4052 141.849 13.642 142.131 13.642H143.229L143.018 14.7327C142.963 15.0128 143.156 15.2496 143.437 15.2496C143.72 15.2496 144.005 15.0128 144.058 14.7327L144.27 13.642H145.368C145.649 13.642 145.934 13.4052 145.987 13.1252C146.043 12.8457 145.85 12.6083 145.569 12.6083Z" fill="black"/>
<path fill-rule="evenodd" clip-rule="evenodd" d="M58.3793 23.1133C58.9128 23.3891 59.8731 23.7703 60.7909 23.7492C61.6233 23.7492 62.0713 23.3035 62.0713 22.7533C62.0713 22.2235 61.7512 21.8633 60.8546 21.3545C59.7452 20.7187 58.9128 19.8282 58.9128 18.6624C58.9128 16.6062 60.6843 15.1436 63.2662 15.1436C64.3975 15.1436 65.2722 15.3556 65.7414 15.6313L65.0588 17.7087C64.6532 17.5179 63.9918 17.3059 63.2237 17.3059C62.3914 17.3059 61.8579 17.6876 61.8579 18.2807C61.8579 18.7468 62.2423 19.0864 62.9892 19.4892C64.1416 20.1461 65.1018 21.0366 65.1018 22.2872C65.1018 24.6187 63.2026 25.9332 60.5563 25.912C59.3397 25.891 58.2084 25.5725 57.6543 25.1913L58.3793 23.1133Z" fill="black"/>
<path fill-rule="evenodd" clip-rule="evenodd" d="M65.6992 25.8546L68.5588 11.0127H71.5039L70.3726 16.7663L70.415 16.7285C71.2044 15.7958 72.2289 15.1519 73.5304 15.1519C75.0673 15.1519 75.9421 16.1335 75.9421 17.787C75.9421 18.2958 75.8566 19.1181 75.7287 19.7546L74.5762 25.8552H71.6312L72.7406 19.9375C72.8254 19.5347 72.8691 19.0134 72.8691 18.6112C72.8691 17.9754 72.6133 17.5137 71.9513 17.5137C71.0122 17.5137 70.0088 18.7593 69.6251 20.6886L68.643 25.8552L65.6992 25.8546Z" fill="black"/>
<path fill-rule="evenodd" clip-rule="evenodd" d="M79.7207 21.7806C79.7207 22.8403 80.1475 23.6881 81.1508 23.6881C82.7081 23.6881 83.5836 20.9322 83.5836 19.1306C83.5836 18.2618 83.2416 17.3718 82.1965 17.3718C80.5955 17.3712 79.7207 20.1055 79.7207 21.7806ZM86.5921 19.2135C86.5921 22.8384 84.2441 25.9333 80.7656 25.9333C78.1194 25.9333 76.7112 24.11 76.7112 21.8418C76.7112 18.3019 79.0591 15.1221 82.6012 15.1221C85.3548 15.1228 86.5921 17.1152 86.5921 19.2135Z" fill="black"/>
<path fill-rule="evenodd" clip-rule="evenodd" d="M90.093 23.3043C90.4131 23.5585 90.7755 23.7282 91.3097 23.7282C92.9532 23.7282 94.0845 21.036 94.0845 19.1496C94.0845 18.3657 93.8068 17.5389 92.9108 17.5389C91.8862 17.5389 90.926 18.7474 90.5847 20.57L90.093 23.3043ZM85.8887 29.9784L87.9371 19.2819C88.1724 18.0734 88.4063 16.5104 88.5349 15.4103H91.1387L90.9677 17.0596H91.0101C91.7995 15.9601 92.9525 15.2219 94.1255 15.2219C96.2806 15.2219 97.156 16.9318 97.156 18.9032C97.156 22.4647 94.8942 25.9724 91.4369 25.9724C90.7112 25.9724 90.0498 25.8553 89.7079 25.5808H89.6437L88.8325 29.9784H85.8887Z" fill="black"/>
<path fill-rule="evenodd" clip-rule="evenodd" d="M101.063 14.3109C100.231 14.3109 99.6759 13.6039 99.6759 12.735C99.6759 11.7812 100.423 10.9824 101.362 10.9824C102.258 10.9824 102.834 11.6827 102.834 12.5305C102.813 13.6113 102.023 14.3116 101.106 14.3116L101.063 14.3109ZM97.2424 25.8549L99.2272 15.4107H102.193L100.187 25.8549H97.2424Z" fill="black"/>
<path fill-rule="evenodd" clip-rule="evenodd" d="M102.749 25.8552L104.307 17.6096H102.941L103.368 15.4108H104.733L104.819 14.8853C105.054 13.6558 105.523 12.407 106.526 11.5592C107.315 10.8813 108.361 10.5745 109.408 10.5745C110.133 10.5745 110.667 10.6761 111.008 10.8242L110.432 13.1111C110.177 13.0267 109.878 12.9617 109.493 12.9617C108.511 12.9617 107.914 13.8894 107.743 14.886L107.636 15.4108H109.685L109.279 17.6096H107.252L105.694 25.8552H102.749Z" fill="black"/>
<path fill-rule="evenodd" clip-rule="evenodd" d="M113.334 15.4111L113.803 20.0863C113.932 21.125 114.017 22.0075 114.059 22.5572H114.102C114.337 22.0075 114.551 21.1882 114.977 20.0653L116.77 15.4117H119.843L116.236 23.0579C114.956 25.6862 113.718 27.6017 112.374 28.8524C111.328 29.8273 110.09 30.3082 109.492 30.4352L108.681 27.9514C109.172 27.7815 109.791 27.5256 110.346 27.1233C111.028 26.6573 111.605 26.0203 111.946 25.3633C112.031 25.2152 112.053 25.1149 112.01 24.9029L110.239 15.4124L113.334 15.4111Z" fill="black"/>
<path fill-rule="evenodd" clip-rule="evenodd" d="M143.159 16.3939C142.877 16.3939 142.593 16.6307 142.538 16.9108L141.544 22.0416C141.004 24.655 139.388 25.012 137.873 25.012C135.144 25.012 135.076 23.4681 135.369 21.9578L136.538 15.9279C136.592 15.6478 136.4 15.4111 136.118 15.4111C135.836 15.4111 135.552 15.6478 135.497 15.9279L134.327 21.9578C134.093 23.1732 134.177 24.0804 134.586 24.7306C135.098 25.5461 136.143 25.9595 137.689 25.9595C139.235 25.9595 140.439 25.5455 141.269 24.7306C141.931 24.0804 142.367 23.1732 142.602 21.9578L143.581 16.9108C143.634 16.6307 143.441 16.3939 143.159 16.3939Z" fill="black"/>
<path fill-rule="evenodd" clip-rule="evenodd" d="M133.758 11.03C133.476 11.03 133.192 11.2667 133.137 11.5469L130.467 25.3142C130.414 25.5943 130.605 25.831 130.888 25.831C131.17 25.831 131.454 25.5943 131.509 25.3142L134.177 11.5469C134.232 11.2661 134.04 11.03 133.758 11.03Z" fill="black"/>
<path fill-rule="evenodd" clip-rule="evenodd" d="M44.9679 9.65708C44.9591 9.0714 44.8886 8.25713 44.614 7.55311C45.4975 7.71921 45.9325 8.71203 46.1159 9.30381C45.7759 9.40857 45.3884 9.52752 44.9679 9.65708ZM40.343 17.423C40.4216 18.6606 43.6999 18.9308 43.884 21.8299C44.0287 24.1105 42.6659 25.6703 40.7024 25.7936C38.3457 25.9411 37.0485 24.5604 37.0485 24.5604L37.5476 22.4503C37.5476 22.4503 38.8536 23.4288 39.8987 23.363C40.5814 23.3203 40.8253 22.7688 40.801 22.3784C40.6986 20.7639 38.0294 20.8587 37.8603 18.2063C37.7186 15.974 39.1942 13.712 42.4513 13.5075C43.7061 13.4288 44.3488 13.7468 44.3488 13.7468L43.6037 16.5139C43.6037 16.5139 42.7733 16.1382 41.788 16.1997C40.3436 16.292 40.328 17.1968 40.343 17.423ZM42.608 6.84265C42.8813 6.83708 43.1115 6.89651 43.3081 7.02485C42.9936 7.18722 42.6892 7.42024 42.404 7.72391C41.6646 8.51155 41.098 9.73487 40.8722 10.9149C40.1671 11.1318 39.4776 11.3437 38.8437 11.5389C39.2437 9.68162 40.811 6.89407 42.608 6.84265ZM44.1938 9.89315C43.4189 10.1316 42.5728 10.392 41.7236 10.6529C41.9626 9.74496 42.415 8.84081 42.9709 8.24834C43.1774 8.02776 43.4669 7.7823 43.8095 7.6416C44.1321 8.30847 44.2013 9.25412 44.1938 9.89315ZM47.5759 8.85299C47.574 8.85369 47.3075 8.93548 46.8571 9.07427C46.7822 8.83194 46.6711 8.53383 46.5132 8.23451C46.0041 7.26962 45.2578 6.75833 44.3568 6.75702H44.3537C44.2913 6.75702 44.229 6.76259 44.1665 6.76825C44.1403 6.73658 44.1135 6.70508 44.0848 6.67532C43.6923 6.25827 43.1881 6.05492 42.5855 6.07232C41.4211 6.10573 40.2618 6.94045 39.3221 8.42358C38.6601 9.46713 38.1579 10.7785 38.015 11.793C36.6785 12.204 35.7431 12.4921 35.7232 12.4983C35.0487 12.7084 35.0275 12.7294 34.9388 13.361C34.8721 13.8388 33.1069 27.3978 33.1069 27.3978L47.7537 29.914V8.82323C47.6813 8.82819 47.6164 8.84116 47.5759 8.85299Z" fill="black"/>
<path fill-rule="evenodd" clip-rule="evenodd" d="M48.238 29.8569L54.3142 28.3565C54.3142 28.3565 51.6979 10.7884 51.6816 10.6676C51.6648 10.5474 51.5588 10.4804 51.4714 10.473C51.384 10.4656 49.6732 10.4402 49.6732 10.4402C49.6732 10.4402 48.6299 9.43434 48.238 9.05322V29.8569Z" fill="black"/>
<path d="M167.5 40.0066H17.5V40.8767H167.5V40.0066Z" fill="#CACACA"/>
<path d="M40.0173 53.7768L38.5172 53.5516C38.3754 54.417 37.7848 55.235 36.7216 55.235C35.4813 55.235 34.7725 54.3103 34.7725 52.6269V51.7141C34.7725 50.0426 35.5285 49.1061 36.7098 49.1061C37.6785 49.1061 38.2101 49.7581 38.3399 50.6946L39.9465 50.4812C39.7457 48.9757 38.6589 47.8376 36.7216 47.8376C34.6544 47.8376 33.1069 49.3431 33.1069 51.7378V52.6269C33.1069 55.0453 34.43 56.539 36.7216 56.539C38.8479 56.539 39.8165 54.9979 40.0173 53.7768Z" fill="#7D8083"/>
<path d="M41.9978 56.4207H47.2309V55.1522H43.5926V52.6628H46.3803V51.4655H43.5926V49.2131H47.0419V47.9446H41.9978V56.4207Z" fill="#7D8083"/>
<path d="M49.1208 56.4207H50.7155V52.9473H51.7905L53.7042 56.4207H55.4288L53.3379 52.6984C54.2947 52.4257 55.0035 51.7973 55.0035 50.5408V50.3629C55.0035 48.6915 53.8459 47.9446 51.9913 47.9446H49.1208V56.4207ZM50.7155 51.8329V49.1894H51.9794C52.8891 49.1894 53.4206 49.5094 53.4206 50.3985V50.5645C53.4206 51.4299 52.9245 51.8329 51.9676 51.8329H50.7155Z" fill="#7D8083"/>
<path d="M58.4106 56.4207H60.0171V49.2131H62.2143V47.9446H56.2017V49.2131H58.4106V56.4207Z" fill="#7D8083"/>
<path d="M64.0862 56.4207H65.6927V47.9446H64.0862V56.4207Z" fill="#7D8083"/>
<path d="M68.2764 56.4207H69.8711V52.9473H72.5997V51.7025H69.8711V49.2131H73.285V47.9446H68.2764V56.4207Z" fill="#7D8083"/>
<path d="M103.731 56.4207H105.373L102.904 47.9446H100.754L98.2617 56.4207H99.762L100.329 54.3936H103.164L103.731 56.4207ZM101.735 49.2723L102.845 53.2318H100.636L101.735 49.2723Z" fill="#7D8083"/>
<path d="M107.021 56.4207H108.616V53.1488H109.868C111.64 53.1488 112.809 52.3664 112.809 50.6475V50.4697C112.809 48.7508 111.699 47.9446 109.821 47.9446H107.021V56.4207ZM108.616 51.987V49.1775H109.809C110.718 49.1775 111.238 49.5213 111.238 50.4815V50.6475C111.238 51.5366 110.742 51.987 109.809 51.987H108.616Z" fill="#7D8083"/>
<path d="M114.458 56.4207H116.053V53.1488H117.305C119.077 53.1488 120.246 52.3664 120.246 50.6475V50.4697C120.246 48.7508 119.136 47.9446 117.258 47.9446H114.458V56.4207ZM116.053 51.987V49.1775H117.246C118.155 49.1775 118.675 49.5213 118.675 50.4815V50.6475C118.675 51.5366 118.179 51.987 117.246 51.987H116.053Z" fill="#7D8083"/>
<path d="M75.2534 56.4217H76.8599V47.9456H75.2534V56.4217Z" fill="#7D8083"/>
<path d="M79.2922 56.4217H84.5252V55.1532H80.8868V52.6637H83.6747V51.4664H80.8868V49.214H84.3362V47.9456H79.2922V56.4217Z" fill="#7D8083"/>
<path d="M86.47 47.9456V56.4217H89.1633C91.8684 56.4217 93.1914 54.9042 93.1914 52.5926V51.7154C93.1914 49.38 91.8447 47.9456 89.1633 47.9456H86.47ZM89.0924 49.2022C90.8288 49.2022 91.5376 50.115 91.5376 51.7391V52.5926C91.5376 54.2523 90.7698 55.1532 89.1042 55.1532H88.0647V49.2022H89.0924Z" fill="#7D8083"/>
</g>
</g>
<defs>
<clipPath id="clip0_29_13945">
<rect width="185" height="60" rx="2.73652" fill="white"/>
</clipPath>
<clipPath id="clip1_29_13945">
<rect width="150" height="67" fill="white" transform="translate(17.5 -3.5)"/>
</clipPath>
</defs>
</svg>
