<svg width="185" height="60" viewBox="0 0 185 60" fill="none" xmlns="http://www.w3.org/2000/svg">
<path fill-rule="evenodd" clip-rule="evenodd" d="M35.6749 11.5L20 20.9667V38.9667L24.0808 41.3717V23.3718L35.7083 16.3335L47.3325 23.3633L47.3945 23.395V41.3783L51.4167 39.0002V21.0002L35.6749 11.5ZM37.7454 42.365L35.6732 43.6302L33.6011 42.365V22.6317L28.2235 25.93V43.93L35.6749 48.5L43.1949 43.9069V25.93L37.7454 22.6V42.365Z" fill="#F26322"/>
<path fill-rule="evenodd" clip-rule="evenodd" d="M147.442 20.8703C147.112 20.5248 146.714 20.2525 146.274 20.0709C145.296 19.6867 144.211 19.6867 143.233 20.0709C142.793 20.2545 142.396 20.5289 142.067 20.8769C141.737 21.2304 141.482 21.6491 141.319 22.1064C140.972 23.1091 140.972 24.2008 141.319 25.2035C141.483 25.6579 141.738 26.0734 142.067 26.4248C142.396 26.7729 142.793 27.0475 143.233 27.2308C144.211 27.6148 145.296 27.6148 146.274 27.2308C146.714 27.047 147.111 26.7724 147.44 26.4248C147.769 26.0731 148.023 25.6576 148.187 25.2035C148.534 24.2008 148.534 23.1091 148.187 22.1064C148.025 21.6471 147.772 21.2264 147.442 20.8703" fill="#AEB0B2"/>
<path fill-rule="evenodd" clip-rule="evenodd" d="M150.694 26.2583C150.394 27.0113 149.939 27.691 149.359 28.2527C148.774 28.81 148.083 29.2403 147.328 29.5169C145.664 30.1052 143.852 30.1052 142.188 29.5169C141.432 29.2398 140.741 28.8096 140.155 28.2527C139.576 27.6905 139.122 27.0108 138.821 26.2583C138.493 25.4273 138.33 24.5389 138.343 23.6442C138.33 22.7496 138.493 21.8612 138.821 21.0301C139.122 20.2776 139.576 19.5978 140.155 19.0358C140.741 18.4788 141.432 18.0487 142.188 17.7716C143.852 17.1833 145.664 17.1833 147.328 17.7716C148.083 18.0482 148.774 18.4784 149.359 19.0358C149.939 19.5973 150.394 20.2772 150.694 21.0301C151.023 21.8612 151.185 22.7496 151.173 23.6442C151.184 24.5391 151.021 25.4275 150.691 26.2583H150.694ZM137.482 19.9802H134.089V29.6537H131.47V19.9802H128.077V17.638H137.482V19.9802ZM126.587 29.6553H123.162L117.968 21.101H117.934V29.6537H115.314V17.638H118.875L123.932 25.9863H123.964V17.638H126.584L126.587 29.6553ZM113.049 29.6553H104.668V17.638H112.745V20.0824H107.289V22.3207H112.443V24.765H107.289V27.2093H113.049V29.6553ZM102.099 28.8064C101.336 29.2104 100.523 29.5069 99.6812 29.6882C98.836 29.87 97.9745 29.9612 97.1104 29.9602C96.235 29.9691 95.3648 29.8193 94.5413 29.5185C93.7855 29.2419 93.0938 28.8115 92.5089 28.2543C91.9287 27.6927 91.4734 27.0128 91.173 26.2599C90.8441 25.429 90.681 24.5406 90.6934 23.6458C90.6812 22.751 90.8441 21.8626 91.173 21.0317C91.4734 20.2788 91.9287 19.5989 92.5089 19.0373C93.0938 18.4801 93.7855 18.0499 94.5413 17.7732C95.3648 17.4719 96.2348 17.3224 97.1104 17.3314C97.9986 17.3227 98.8838 17.4397 99.7399 17.6792C100.527 17.9029 101.249 18.3131 101.847 18.8758L99.9992 20.913C99.6562 20.5532 99.2453 20.2669 98.7905 20.0708C98.255 19.8631 97.6839 19.765 97.1104 19.7823C96.5898 19.7746 96.0727 19.8727 95.5903 20.0708C95.1496 20.2544 94.7519 20.529 94.4224 20.8768C94.0924 21.2305 93.838 21.649 93.6752 22.1064C93.3287 23.109 93.3287 24.2008 93.6752 25.2034C93.8393 25.6576 94.0936 26.0733 94.4224 26.4247C94.7518 26.7728 95.1496 27.0473 95.5903 27.2307C96.0722 27.429 96.5886 27.5269 97.1088 27.5192C97.6089 27.5287 98.1076 27.4626 98.5884 27.323C98.9307 27.222 99.2626 27.0885 99.5802 26.9241V24.9693H97.4448V22.525H102.097L102.099 28.8064ZM87.0167 29.652L85.9924 27.1055H81.3745L80.3828 29.652H77.4956L82.6338 17.638H84.8L89.9659 29.652H87.0167ZM76.1353 29.652H73.5156V20.4384H73.4813L70.3577 29.6537H68.3595L65.3532 20.4384H65.319V29.6537H62.6993V17.638H66.6631L69.4002 25.477H69.4344L72.1862 17.638H76.1336L76.1353 29.652ZM165 11.5H40.672L53.5273 19.0918L53.4963 36.2334H165L158.542 24.2755L165 11.5Z" fill="#AEB0B2"/>
<path fill-rule="evenodd" clip-rule="evenodd" d="M82.1984 24.8673H85.1035L83.6419 21.134L82.1984 24.8673Z" fill="#AEB0B2"/>
<path fill-rule="evenodd" clip-rule="evenodd" d="M55.6299 41.7402H53.803V40.4795H58.8596V41.7402H57.0327V46.9488H55.6299V41.7402Z" fill="#56565A"/>
<path fill-rule="evenodd" clip-rule="evenodd" d="M59.7437 40.4792H64.094V41.7978H61.1579V43.0042H63.9309V44.3228H61.1579V45.6414H64.2571V46.9599H59.7437V40.4792Z" fill="#56565A"/>
<path fill-rule="evenodd" clip-rule="evenodd" d="M69.6824 42.1571C69.5449 41.9878 69.3701 41.8535 69.1719 41.7648C68.9505 41.6689 68.7114 41.6217 68.4705 41.6264C67.9658 41.6209 67.4833 41.8354 67.146 42.2148C66.9758 42.4076 66.8435 42.6313 66.7561 42.8741C66.5693 43.414 66.5693 44.0021 66.7561 44.5421C66.8424 44.7842 66.9731 45.0079 67.1411 45.2014C67.3003 45.3853 67.496 45.5333 67.7152 45.6365C67.9376 45.7402 68.18 45.7933 68.4248 45.7914C68.692 45.7962 68.9561 45.7333 69.1931 45.6085C69.4159 45.486 69.6053 45.3102 69.7444 45.0959L70.9205 45.9826C70.6605 46.3558 70.3037 46.6495 69.8896 46.8315C69.4852 47.012 69.0479 47.1052 68.6059 47.1051C68.1343 47.11 67.6658 47.0293 67.2226 46.8661C66.8153 46.7176 66.4429 46.4858 66.1281 46.1854C65.8154 45.8836 65.5703 45.5178 65.4088 45.1124C65.0646 44.2062 65.0646 43.2034 65.4088 42.2972C65.5707 41.8922 65.8159 41.5265 66.1281 41.2242C66.4429 40.9239 66.8153 40.692 67.2226 40.5435C67.666 40.3818 68.1345 40.3012 68.6059 40.3061C68.7951 40.3068 68.984 40.3239 69.1702 40.3572C69.3681 40.3928 69.5621 40.448 69.7493 40.522C69.9431 40.5964 70.1271 40.6944 70.2974 40.8138C70.475 40.9387 70.6334 41.0899 70.7672 41.2621L69.6824 42.1571Z" fill="#56565A"/>
<path fill-rule="evenodd" clip-rule="evenodd" d="M71.7981 40.4792H73.2091V42.8923H75.9478V40.4792H77.3588V46.9486H75.9478V44.1466H73.2091V46.9486H71.7981V40.4792Z" fill="#56565A"/>
<path fill-rule="evenodd" clip-rule="evenodd" d="M78.7697 40.4792H80.6863L83.4087 44.9755H83.4267V40.4792H84.8377V46.9486H82.9928L80.1986 42.3434H80.179V46.9486H78.7681L78.7697 40.4792Z" fill="#56565A"/>
<path fill-rule="evenodd" clip-rule="evenodd" d="M87.3741 43.7132C87.3706 43.998 87.4183 44.281 87.5144 44.5486C87.6021 44.7944 87.7393 45.0187 87.9173 45.2079C88.0944 45.3957 88.3082 45.5438 88.5453 45.6432C89.0698 45.8489 89.6518 45.8489 90.1764 45.6432C90.4134 45.5438 90.6274 45.3957 90.8044 45.2079C90.9821 45.0184 91.1191 44.7941 91.2073 44.5486C91.3943 44.0088 91.3943 43.4208 91.2073 42.8806C91.1186 42.6357 90.9814 42.4115 90.8044 42.2213C90.6266 42.0349 90.4129 41.8876 90.1764 41.7879C89.6518 41.5822 89.0698 41.5822 88.5453 41.7879C88.0626 41.988 87.6876 42.3868 87.5144 42.8841C87.4183 43.1496 87.3697 43.4303 87.3708 43.7132H87.3741ZM85.906 43.713C85.8993 43.2313 85.9871 42.7529 86.1637 42.3054C86.3257 41.9003 86.5709 41.5346 86.8831 41.2323C87.198 40.9323 87.5706 40.7006 87.9776 40.5516C88.8752 40.2344 89.8529 40.2344 90.7506 40.5516C91.1577 40.7006 91.5301 40.9323 91.8451 41.2323C92.1573 41.5346 92.4025 41.9003 92.5644 42.3054C92.9078 43.2116 92.9078 44.2143 92.5644 45.1206C92.4031 45.5259 92.1578 45.8918 91.8451 46.1936C91.5301 46.4936 91.1577 46.7254 90.7506 46.8744C89.8533 47.1933 88.8751 47.1933 87.9776 46.8744C87.5706 46.7254 87.198 46.4936 86.8831 46.1936C86.5704 45.8918 86.325 45.5259 86.1637 45.1206C85.9869 44.6731 85.8993 44.1948 85.906 43.713V43.713Z" fill="#56565A"/>
<path fill-rule="evenodd" clip-rule="evenodd" d="M93.9347 40.4792H95.3489V45.6333H97.9588V46.9519H93.9347V40.4792Z" fill="#56565A"/>
<path fill-rule="evenodd" clip-rule="evenodd" d="M99.9701 43.7132C99.9667 43.998 100.014 44.281 100.11 44.5486C100.198 44.7944 100.335 45.0187 100.513 45.2079C100.69 45.3957 100.904 45.5438 101.141 45.6432C101.666 45.8489 102.248 45.8489 102.772 45.6432C103.009 45.5438 103.223 45.3957 103.4 45.2079C103.578 45.0184 103.715 44.7941 103.803 44.5486C103.99 44.0088 103.99 43.4208 103.803 42.8806C103.714 42.6357 103.577 42.4115 103.4 42.2213C103.223 42.0349 103.009 41.8876 102.772 41.7879C102.248 41.5822 101.666 41.5822 101.141 41.7879C100.659 41.988 100.284 42.3868 100.11 42.8841C100.014 43.1496 99.9657 43.4303 99.9667 43.7132H99.9701ZM98.5021 43.713C98.4954 43.2313 98.583 42.7529 98.7598 42.3054C98.9218 41.9003 99.1669 41.5346 99.4791 41.2323C99.7941 40.9323 100.166 40.7006 100.574 40.5516C101.471 40.2344 102.449 40.2344 103.347 40.5516C103.754 40.7006 104.126 40.9323 104.441 41.2323C104.753 41.5346 104.999 41.9003 105.16 42.3054C105.504 43.2116 105.504 44.2143 105.16 45.1206C104.999 45.5259 104.754 45.8918 104.441 46.1936C104.126 46.4936 103.754 46.7254 103.347 46.8744C102.449 47.1933 101.471 47.1933 100.574 46.8744C100.166 46.7254 99.7941 46.4936 99.4791 46.1936C99.1661 45.893 98.9203 45.5282 98.7581 45.1239C98.5813 44.6753 98.4944 44.1958 98.5021 43.713V43.713Z" fill="#56565A"/>
<path fill-rule="evenodd" clip-rule="evenodd" d="M112.274 46.4919C111.862 46.7094 111.423 46.8691 110.969 46.9666C110.514 47.0641 110.051 47.1134 109.586 47.1134C109.114 47.1182 108.646 47.0373 108.202 46.8743C107.795 46.7254 107.423 46.4937 107.108 46.1935C106.797 45.8924 106.553 45.5277 106.392 45.1238C106.049 44.2175 106.049 43.215 106.392 42.3087C106.554 41.9037 106.799 41.5379 107.111 41.2357C107.426 40.9355 107.799 40.7039 108.206 40.5549C108.649 40.3931 109.117 40.3128 109.589 40.3176C110.068 40.314 110.546 40.3782 111.008 40.5088C111.434 40.6291 111.825 40.85 112.15 41.1532L111.156 42.2493C110.971 42.0548 110.749 41.8997 110.504 41.7928C110.215 41.6808 109.908 41.6281 109.599 41.6378C109.319 41.6342 109.042 41.6869 108.783 41.7928C108.299 41.9899 107.922 42.3863 107.746 42.8824C107.559 43.4222 107.559 44.0103 107.746 44.5502C107.833 44.7958 107.971 45.0203 108.149 45.2095C108.326 45.3973 108.539 45.5455 108.777 45.6447C109.036 45.7505 109.313 45.8032 109.592 45.7996C109.861 45.8055 110.13 45.7699 110.388 45.6941C110.572 45.6406 110.751 45.5687 110.922 45.4799V44.4299H109.78V43.1113H112.285L112.274 46.4919Z" fill="#56565A"/>
<path fill-rule="evenodd" clip-rule="evenodd" d="M115.194 44.1894L112.789 40.4792H114.543L115.902 42.9005L117.34 40.4792H119.014L116.61 44.1894V46.9486H115.199L115.194 44.1894Z" fill="#56565A"/>
<path fill-rule="evenodd" clip-rule="evenodd" d="M123.785 43.222H124.726C124.849 43.2223 124.971 43.2103 125.092 43.1857C125.203 43.1638 125.311 43.1221 125.408 43.0621C125.502 43.0034 125.579 42.9218 125.633 42.8248C125.695 42.7084 125.725 42.5775 125.72 42.4457C125.726 42.3044 125.686 42.165 125.607 42.0484C125.531 41.9479 125.431 41.8678 125.317 41.816C125.193 41.7587 125.059 41.7229 124.924 41.7106C124.78 41.6957 124.641 41.6875 124.509 41.6875H123.785V43.222ZM122.374 40.4793H124.752C125.068 40.4781 125.384 40.5083 125.694 40.5699C125.969 40.6235 126.232 40.7311 126.467 40.8864C126.689 41.039 126.87 41.2467 126.99 41.4896C127.13 41.7876 127.196 42.1148 127.184 42.444C127.195 42.7707 127.133 43.0955 127.003 43.395C126.894 43.6375 126.726 43.8478 126.514 44.0065C126.289 44.1674 126.034 44.2796 125.764 44.3361C125.454 44.4026 125.139 44.4352 124.823 44.4334H123.792V46.9552H122.381L122.374 40.4793Z" fill="#56565A"/>
<path fill-rule="evenodd" clip-rule="evenodd" d="M130.161 42.3615L129.385 44.3705H130.949L130.161 42.3615ZM129.618 40.4792H130.784L133.57 46.9486H131.979L131.427 45.5789H128.941L128.408 46.9486H126.852L129.618 40.4792Z" fill="#56565A"/>
<path fill-rule="evenodd" clip-rule="evenodd" d="M135.73 43.1577H136.562C136.687 43.1577 136.821 43.1577 136.965 43.1429C137.096 43.1373 137.226 43.1099 137.348 43.0621C137.461 43.0178 137.559 42.9439 137.634 42.8478C137.716 42.7272 137.756 42.5821 137.748 42.4358C137.754 42.2978 137.72 42.1612 137.648 42.0433C137.584 41.9482 137.497 41.8711 137.395 41.8193C137.285 41.7649 137.166 41.7292 137.043 41.7137C136.914 41.6964 136.784 41.6875 136.653 41.6875H135.732L135.73 43.1577ZM134.319 40.4793H136.797C137.108 40.4778 137.419 40.51 137.724 40.5749C137.997 40.6309 138.258 40.7394 138.492 40.8947C138.715 41.0469 138.896 41.2546 139.017 41.4979C139.156 41.7929 139.222 42.1173 139.211 42.444C139.223 42.8612 139.099 43.2709 138.857 43.6091C138.605 43.9401 138.235 44.1583 137.826 44.2175L139.457 46.9486H137.759L136.42 44.364H135.724V46.9486H134.313L134.319 40.4793Z" fill="#56565A"/>
<path fill-rule="evenodd" clip-rule="evenodd" d="M141.364 41.7402H139.537V40.4795H144.594V41.7402H142.767V46.9488H141.364V41.7402Z" fill="#56565A"/>
<path fill-rule="evenodd" clip-rule="evenodd" d="M145.426 40.4792H147.344L150.065 44.9755H150.084V40.4792H151.495V46.9486H149.647L146.853 42.3434H146.833V46.9486H145.426V40.4792Z" fill="#56565A"/>
<path fill-rule="evenodd" clip-rule="evenodd" d="M152.957 40.4792H157.307V41.7978H154.371V43.0042H157.144V44.3228H154.371V45.6414H157.47V46.9599H152.957V40.4792Z" fill="#56565A"/>
<path fill-rule="evenodd" clip-rule="evenodd" d="M160.119 43.1577H160.951C161.077 43.1577 161.21 43.1577 161.354 43.1429C161.485 43.1373 161.615 43.1099 161.738 43.0621C161.85 43.0178 161.949 42.9439 162.023 42.8478C162.105 42.7272 162.145 42.5821 162.137 42.4358C162.144 42.2978 162.109 42.1612 162.038 42.0433C161.974 41.9482 161.887 41.8711 161.785 41.8193C161.674 41.7649 161.555 41.7292 161.432 41.7137C161.303 41.6964 161.173 41.6875 161.043 41.6875H160.121L160.119 43.1577ZM158.708 40.4793H161.186C161.497 40.4778 161.808 40.51 162.113 40.5749C162.387 40.6309 162.647 40.7394 162.881 40.8947C163.104 41.0469 163.285 41.2546 163.406 41.4979C163.545 41.7929 163.612 42.1173 163.6 42.444C163.613 42.8612 163.488 43.2709 163.246 43.6091C162.994 43.9401 162.624 44.1583 162.215 44.2175L163.847 46.9486H162.153L160.814 44.364H160.118V46.9486H158.707L158.708 40.4793Z" fill="#56565A"/>
</svg>
