<svg width="32" height="32" viewBox="0 0 32 32" fill="none" xmlns="http://www.w3.org/2000/svg">
<path d="M24.4133 27.1333C23.1333 26.1733 21.2667 25.4533 19.2667 24.68C16.8933 23.7733 14.2 22.7333 12.2 21.1067C9.90666 19.2933 8.78667 17 8.78667 14.0933C8.78667 11.48 9.85333 9.26667 11.9067 7.66667C14.2 5.85333 17.6667 4.92 21.9333 4.92C23.1067 4.92 24.2533 5 25.2933 5.13333C25.3733 5.13333 25.48 5.10667 25.5067 5C25.56 4.92 25.5333 4.81333 25.4533 4.76C22.7867 2.33333 19.2933 1 15.6667 1C11.7467 1 8.06667 2.52 5.29333 5.29333C2.52 8.06667 1 11.7467 1 15.6667C1 19.5867 2.52 23.2667 5.29333 26.04C8.06667 28.8133 11.7467 30.3333 15.6667 30.3333C18.84 30.3333 21.8533 29.3467 24.3867 27.4533C24.44 27.4 24.4667 27.3467 24.4667 27.2933C24.4933 27.24 24.4667 27.1867 24.4133 27.1333Z" fill="#189EFF"/>
<path d="M30.28 14.3067C30.28 14.2533 30.2534 14.2 30.2 14.1733C27.16 11.64 24.68 10.6 21.6667 10.6C20.0667 10.6 18.84 10.92 18.0134 11.56C17.2934 12.12 16.92 12.8667 16.92 13.7733C16.92 16.28 20.0134 17.4533 23.56 18.7867C25.4 19.48 27.2934 20.1733 29.0534 21.16C29.08 21.1867 29.1067 21.1867 29.16 21.1867C29.1867 21.1867 29.2134 21.1867 29.24 21.16C29.2934 21.1333 29.3467 21.1067 29.3734 21.0267C30.04 19.32 30.3867 17.5067 30.3867 15.6667C30.36 15.24 30.3334 14.7867 30.28 14.3067Z" fill="#189EFF"/>
</svg>
