<svg width="43" height="52" viewBox="0 0 43 52" fill="none" xmlns="http://www.w3.org/2000/svg">
<mask id="mask0_441_4544" style="mask-type:alpha" maskUnits="userSpaceOnUse" x="0" y="1" width="31" height="49">
<path fill-rule="evenodd" clip-rule="evenodd" d="M0.0256348 1.22192H30.4871V49.8623H0.0256348V1.22192Z" fill="white"/>
</mask>
<g mask="url(#mask0_441_4544)">
<path fill-rule="evenodd" clip-rule="evenodd" d="M18.449 3.16718C19.4741 2.82279 20.2942 2.82279 20.9093 3.22458C17.746 4.65958 16.3401 8.24708 15.7543 11.318L11.7416 12.5234C12.6203 9.42377 14.5827 4.54478 18.449 3.16718ZM17.6874 10.7157C18.3318 8.24752 19.5913 5.72192 21.9638 4.71742C22.4617 5.98022 22.5788 7.70222 22.5788 9.25202L17.6874 10.7157ZM24.7755 4.77418C25.6542 5.37688 26.2986 6.61098 26.7379 7.98858L24.3068 8.73478C24.3068 8.53388 24.3068 8.36168 24.2776 8.16078C24.219 6.66838 24.0139 5.40558 23.6625 4.37239C24.0725 4.40109 24.4533 4.54459 24.7755 4.77418ZM29.7842 7.07062L28.2904 7.52982C27.6168 5.60693 26.7381 4.25803 25.5958 3.45443C24.7463 2.88043 23.8091 2.62213 22.7839 2.70823C22.5789 2.42123 22.3446 2.19163 22.1103 1.99073C21.0265 1.12973 19.5913 0.986234 17.8925 1.58893C12.796 3.39703 10.6286 9.85452 9.83777 13.0976L5.41498 14.4465C5.41498 14.4465 4.36055 14.7335 4.12623 15.0205C3.86262 15.3362 3.80404 16.1972 3.80404 16.1972L0.0256348 44.6679L28.3197 49.8623L30.4872 7.04192C30.165 6.98452 29.8721 7.04192 29.7842 7.07062Z" fill="#95BF47"/>
</g>
<path fill-rule="evenodd" clip-rule="evenodd" d="M16.2176 17.881H16.1056C15.6574 17.8281 15.2653 17.4313 15.2653 17.008C15.2373 16.5848 14.9852 6.90288 21.0071 4.68081C22.5196 4.12529 23.92 4.25756 25.1244 5.05115C26.5808 6.02993 27.6172 7.93456 28.2614 10.7386C28.7095 12.7226 28.7935 14.4156 28.7935 14.495C28.8215 14.9182 28.4574 15.2092 28.0093 15.1563C27.5612 15.1034 27.169 14.7066 27.141 14.2833C27.057 12.5374 26.4128 7.67003 24.3402 6.268C23.6679 5.8183 22.8557 5.79185 21.8754 6.13574C16.6378 8.01392 16.8898 17.1403 16.8898 17.2197C16.8898 17.6165 16.6097 17.881 16.2176 17.881Z" fill="#95BF47"/>
<path fill-rule="evenodd" clip-rule="evenodd" d="M37.5444 9.80718C37.5444 9.80718 37.5186 9.57142 37.3891 9.51247C37.2856 9.42406 37.1562 9.42406 37.1562 9.42406L33.6356 9.12935L31.047 6.18227C30.9435 6.09385 30.8399 6.03491 30.7105 6.03491L28.7949 50.0349L42.3334 46.7047L37.5444 9.80718Z" fill="#5E8E3D"/>
<path fill-rule="evenodd" clip-rule="evenodd" d="M20.206 31.1992C19.7519 30.6073 19.2372 30.1041 18.6923 29.6306C18.1474 29.1866 17.5722 28.7723 17.0272 28.4467C16.6337 28.2099 16.2704 27.9734 15.9979 27.7364C15.6952 27.4996 15.453 27.2924 15.2714 27.0556C15.0897 26.8189 14.9383 26.6117 14.8475 26.3749C14.7567 26.1381 14.7264 25.9014 14.7264 25.6646C14.7264 25.339 14.8172 25.0431 14.9383 24.7767C15.0594 24.5103 15.2411 24.2735 15.4833 24.096C15.7255 23.8888 15.9979 23.7408 16.3309 23.6224C16.6639 23.504 17.0272 23.4448 17.4511 23.4152C17.9052 23.3856 18.329 23.4152 18.7528 23.4448C19.1767 23.4744 19.5702 23.5632 19.9335 23.652C20.2968 23.7408 20.6601 23.8592 20.9628 23.948C21.2656 24.0664 21.538 24.1848 21.7802 24.3031L23.7178 18.6205C23.415 18.4726 23.082 18.3542 22.6582 18.2358C22.2646 18.1174 21.8105 18.0286 21.2958 17.9694C20.8115 17.9102 20.2665 17.8806 19.6913 17.8806C19.1161 17.8806 18.5409 17.9102 17.9355 17.999C16.6034 18.1766 15.3924 18.5317 14.3631 19.0349C13.3338 19.538 12.4559 20.1892 11.7293 20.9587C11.0027 21.6986 10.4578 22.5865 10.034 23.5632C9.64042 24.5399 9.39823 25.6054 9.33768 26.7597C9.30741 27.4404 9.36795 28.0915 9.51932 28.6835C9.67069 29.2754 9.91288 29.8082 10.2156 30.3113C10.5184 30.8145 10.9119 31.288 11.3358 31.732C11.7596 32.1759 12.244 32.561 12.7586 32.9454C13.1825 33.2414 13.5155 33.5078 13.8182 33.8037C14.1209 34.0701 14.3329 34.3368 14.5145 34.6029C14.6962 34.8692 14.8172 35.1356 14.9081 35.402C14.9989 35.6686 14.9989 35.9646 14.9989 36.2606C14.9989 36.5565 14.9081 36.8226 14.8172 37.089C14.6962 37.3258 14.5448 37.5625 14.3329 37.7105C14.1209 37.8884 13.8485 38.0065 13.5457 38.0657C13.243 38.1249 12.91 38.1545 12.5164 38.0953C12.0926 38.0364 11.6385 37.9177 11.2147 37.7404C10.7908 37.5924 10.367 37.385 10.0037 37.1778C9.61015 36.9706 9.27713 36.7338 8.94412 36.5267C8.64138 36.3195 8.36892 36.1126 8.12673 35.9051L6.79468 40.2263C7.00659 40.4926 7.30933 40.7886 7.64235 41.055C7.97536 41.3214 8.36892 41.588 8.79275 41.8245C9.21658 42.0613 9.70097 42.298 10.2156 42.5052C10.7303 42.7124 11.2752 42.89 11.8504 43.0084H11.8807H11.911H11.9412H11.9715C13.1825 43.2747 14.3631 43.3339 15.453 43.186C16.5731 43.038 17.6024 42.6828 18.5107 42.0909C19.4189 41.4989 20.1757 40.6406 20.7206 39.6047C21.2656 38.5392 21.6289 37.237 21.6894 35.7275C21.7197 34.81 21.5986 33.9813 21.3564 33.2118C21.0234 32.4719 20.6601 31.7912 20.206 31.1992Z" fill="white"/>
</svg>
