<svg width="150" height="60" viewBox="0 0 150 60" fill="none" xmlns="http://www.w3.org/2000/svg">
<g opacity="0.8">
<path d="M23.1913 41.1746H21.6027C22.8132 39.8727 23.8942 37.9546 23.8924 35.2527C23.8889 30.2655 21.0719 30.0582 21.963 26.4746C21.979 26.4091 21.9275 26.3236 21.8654 26.3436C19.8348 26.9982 19.0839 29.5709 18.9419 29.5709C19.1869 25.6709 18.6278 20.8036 14.0057 16.2582C13.9364 16.1891 13.8211 16.2582 13.8441 16.3546C15.1825 22.1018 13.1767 25.8636 11.8419 26.5527C11.1213 23.8273 9.12619 23.0836 8.54222 23.1182C8.48364 23.1218 8.44814 23.1818 8.46412 23.24C9.72437 27.7309 6.13 29.6909 6.13355 34.78C6.13532 37.7709 7.22517 39.8182 8.44282 41.1727H6.83467C6.72285 41.1727 6.63232 41.2655 6.63232 41.38V43.3891C6.63232 43.5036 6.72285 43.5964 6.83467 43.5964H12.2466L12.1153 43.4764C9.36937 40.7036 8.98597 34.9582 13.6684 31.3236C13.7412 31.2673 13.8477 31.3309 13.8299 31.4236C13.2353 34.6327 13.7607 36.6982 15.2783 38.4509C16.4853 37.2691 17.49 34.9891 17.7314 34.4127C17.758 34.3473 17.8414 34.3291 17.8929 34.3782C21.1625 37.5 19.4159 42.0673 18.2905 43.4764L18.1663 43.5964H23.1931C23.3049 43.5964 23.3954 43.5036 23.3954 43.3891V41.38C23.3919 41.2655 23.3013 41.1746 23.1913 41.1746Z" fill="#6A7685"/>
<path d="M117.353 32.9636C117.023 31.9982 116.556 31.1763 115.951 30.4963C115.344 29.8182 114.613 29.2909 113.755 28.92C112.9 28.5473 111.941 28.36 110.887 28.36C109.831 28.36 108.878 28.5473 108.029 28.92C107.181 29.2909 106.455 29.8182 105.85 30.4963C105.242 31.1763 104.776 31.9963 104.445 32.9636C104.115 33.9291 103.952 35.0054 103.952 36.1909C103.952 37.3763 104.115 38.4454 104.445 39.4018C104.776 40.3582 105.242 41.1745 105.85 41.8545C106.455 42.5345 107.181 43.0545 108.029 43.4163C108.878 43.78 109.829 43.9618 110.887 43.9618C111.941 43.9618 112.9 43.78 113.755 43.4163C114.613 43.0545 115.344 42.5345 115.951 41.8545C116.556 41.1745 117.023 40.3582 117.353 39.4018C117.682 38.4454 117.847 37.3763 117.847 36.1909C117.847 35.0054 117.68 33.9291 117.353 32.9636ZM113.729 37.9254C113.635 38.4909 113.473 38.9982 113.244 39.4454C113.015 39.8963 112.706 40.2527 112.319 40.5218C111.934 40.7891 111.455 40.9218 110.887 40.9218C110.321 40.9218 109.847 40.7873 109.467 40.5218C109.089 40.2527 108.785 39.8963 108.556 39.4454C108.327 38.9963 108.166 38.4891 108.07 37.9254C107.976 37.3618 107.928 36.7836 107.928 36.1909C107.928 35.5982 107.976 35.0145 108.07 34.4418C108.164 33.8691 108.326 33.3618 108.556 32.9218C108.784 32.4836 109.089 32.1236 109.467 31.8473C109.847 31.5709 110.321 31.4309 110.887 31.4309C111.455 31.4309 111.934 31.5709 112.319 31.8473C112.706 32.1236 113.015 32.4836 113.244 32.9218C113.471 33.3618 113.633 33.8691 113.729 34.4418C113.825 35.0145 113.871 35.5982 113.871 36.1909C113.871 36.7836 113.825 37.3618 113.729 37.9254Z" fill="#6A7685"/>
<path d="M77.0626 32.9636C76.7324 31.9982 76.2656 31.1763 75.6603 30.4963C75.0533 29.8182 74.322 29.2909 73.4646 28.92C72.6091 28.5473 71.6506 28.36 70.5962 28.36C69.5401 28.36 68.5869 28.5473 67.7385 28.92C66.89 29.2909 66.1641 29.8182 65.5588 30.4963C64.9517 31.1763 64.4849 31.9963 64.1548 32.9636C63.8264 33.9291 63.6613 35.0054 63.6613 36.1909C63.6613 37.3763 63.8264 38.4454 64.1548 39.4018C64.4849 40.3582 64.9517 41.1745 65.5588 41.8545C66.1641 42.5345 66.89 43.0545 67.7385 43.4163C68.5869 43.78 69.5383 43.9618 70.5962 43.9618C71.6506 43.9618 72.6091 43.78 73.4646 43.4163C74.322 43.0545 75.0533 42.5345 75.6603 41.8545C76.2656 41.1745 76.7324 40.3582 77.0626 39.4018C77.3909 38.4454 77.556 37.3763 77.556 36.1909C77.556 35.0054 77.3892 33.9291 77.0626 32.9636ZM73.438 37.9254C73.3439 38.4909 73.1824 38.9982 72.9534 39.4454C72.7245 39.8963 72.4156 40.2527 72.0304 40.5218C71.6435 40.7891 71.1642 40.9218 70.5962 40.9218C70.03 40.9218 69.5561 40.7873 69.178 40.5218C68.7982 40.2527 68.4929 39.8963 68.2657 39.4454C68.0367 38.9963 67.8752 38.4891 67.7793 37.9254C67.6852 37.3618 67.6373 36.7836 67.6373 36.1909C67.6373 35.5982 67.6852 35.0145 67.7793 34.4418C67.8734 33.8691 68.0349 33.3618 68.2657 32.9218C68.4929 32.4836 68.7982 32.1236 69.178 31.8473C69.5561 31.5709 70.03 31.4309 70.5962 31.4309C71.1642 31.4309 71.6435 31.5709 72.0304 31.8473C72.4156 32.1236 72.7245 32.4836 72.9534 32.9218C73.1806 33.3618 73.3422 33.8691 73.438 34.4418C73.5339 35.0145 73.58 35.5982 73.58 36.1909C73.58 36.7836 73.5339 37.3618 73.438 37.9254Z" fill="#6A7685"/>
<path d="M57.447 32.9636C57.1169 31.9982 56.6483 31.1763 56.043 30.4963C55.4377 29.8182 54.7064 29.2909 53.8491 28.92C52.9935 28.5473 52.035 28.36 50.9789 28.36C49.9246 28.36 48.9714 28.5473 48.1247 28.92C47.2763 29.2909 46.5485 29.8182 45.9432 30.4963C45.338 31.1763 44.8694 31.9963 44.541 32.9636C44.2108 33.9291 44.0475 35.0054 44.0475 36.1909C44.0475 37.3763 44.2108 38.4454 44.541 39.4018C44.8694 40.3582 45.338 41.1745 45.9432 41.8545C46.5485 42.5345 47.278 43.0545 48.1247 43.4163C48.9732 43.78 49.9246 43.9618 50.9789 43.9618C52.035 43.9618 52.9935 43.78 53.8491 43.4163C54.7064 43.0545 55.4377 42.5345 56.043 41.8545C56.6483 41.1745 57.1169 40.3582 57.447 39.4018C57.7754 38.4454 57.9405 37.3763 57.9405 36.1909C57.9405 35.0054 57.7736 33.9291 57.447 32.9636ZM53.8225 37.9254C53.7284 38.4909 53.5669 38.9982 53.3361 39.4454C53.1071 39.8963 52.8001 40.2527 52.4131 40.5218C52.0262 40.7891 51.5487 40.9218 50.9807 40.9218C50.4127 40.9218 49.9405 40.7873 49.5607 40.5218C49.1826 40.2527 48.8791 39.8963 48.6483 39.4454C48.4194 38.9963 48.2596 38.4891 48.162 37.9254C48.0679 37.3618 48.0218 36.7836 48.0218 36.1909C48.0218 35.5982 48.0679 35.0145 48.162 34.4418C48.2578 33.8691 48.4176 33.3618 48.6483 32.9218C48.8773 32.4836 49.1826 32.1236 49.5607 31.8473C49.9405 31.5709 50.4127 31.4309 50.9807 31.4309C51.5487 31.4309 52.0262 31.5709 52.4131 31.8473C52.8001 32.1236 53.1071 32.4836 53.3361 32.9218C53.5651 33.3618 53.7266 33.8691 53.8225 34.4418C53.9165 35.0145 53.9645 35.5982 53.9645 36.1909C53.9645 36.7836 53.9165 37.3618 53.8225 37.9254Z" fill="#6A7685"/>
<path d="M131.054 28.9037L126.226 43.5146C126.212 43.5582 126.173 43.5873 126.129 43.5873H121.853C121.809 43.5873 121.769 43.5582 121.755 43.5164L116.874 28.9055C116.851 28.8364 116.901 28.7655 116.972 28.7655H120.925C120.971 28.7655 121.01 28.7964 121.024 28.84L124.052 38.8855H124.107L126.83 29.8509C126.842 29.8 126.855 29.7509 126.873 29.7055C127.038 29.1582 127.542 28.7618 128.131 28.7618H130.957C131.028 28.7637 131.078 28.8346 131.054 28.9037Z" fill="#6A7685"/>
<path d="M62.7773 24.4709V43.4818C62.7773 43.54 62.7312 43.5873 62.6744 43.5873H58.9043C58.8475 43.5873 58.8013 43.54 58.8013 43.4818V23.3255C58.8013 23.2091 58.8936 23.1146 59.0072 23.1146H61.4514C62.1809 23.1127 62.7773 23.7237 62.7773 24.4709Z" fill="#6A7685"/>
<path d="M136.931 28.0473C132.031 28.0473 129.977 32.4218 129.977 36.0346C129.977 40.2837 132.293 43.9618 137.237 43.9618C141.683 43.9618 143.621 40.7528 143.7 39.0091C143.703 38.9491 143.655 38.9 143.597 38.9H140.112C140.066 38.9 140.025 38.9309 140.013 38.9746C139.789 39.7182 139.271 40.86 137.063 40.86C134.606 40.86 134.15 38.3746 134.093 37.0273L143.763 37.0418C143.822 37.0437 143.87 36.9946 143.868 36.9364C143.849 32.8964 142.519 28.0473 136.931 28.0473ZM134.178 34.3964C134.178 32.6618 135.419 31.1782 137.116 31.1782C139.069 31.1782 140.036 33.12 140.036 34.3964H134.178Z" fill="#6A7685"/>
<path d="M94.8197 36.9564C94.5534 36.4782 94.2002 36.08 93.7635 35.7582C93.3251 35.4364 92.8263 35.1782 92.2637 34.9818C91.7028 34.7891 91.1259 34.6218 90.5366 34.4837C89.9668 34.3473 89.4024 34.2218 88.8521 34.1037C88.2983 33.9873 87.8084 33.8546 87.3806 33.7091C86.9529 33.5637 86.6032 33.3709 86.3369 33.1382C86.0707 32.9037 85.9376 32.6018 85.9376 32.2309C85.9376 31.9182 86.0121 31.6709 86.1648 31.4837C86.3174 31.2982 86.5038 31.1582 86.7221 31.0582C86.9422 30.9618 87.1854 30.8982 87.4516 30.8691C87.7179 30.84 87.9664 30.8255 88.1936 30.8255C88.916 30.8255 89.5444 30.9655 90.0786 31.2473C90.5898 31.52 90.8827 32.0291 90.9555 32.7764C90.9608 32.8291 91.0034 32.8728 91.0584 32.8728H94.7061C94.7682 32.8728 94.8161 32.8182 94.8108 32.7564C94.7256 31.8709 94.4948 31.1346 94.1203 30.5473C93.7316 29.9328 93.2399 29.44 92.6488 29.0709C92.0595 28.7 91.3886 28.4364 90.636 28.2818C89.8834 28.1255 89.1077 28.0473 88.309 28.0473C87.5084 28.0473 86.7274 28.12 85.966 28.2673C85.2045 28.4128 84.5176 28.6673 83.9087 29.0273C83.2999 29.3891 82.81 29.8818 82.4373 30.5055C82.0663 31.1291 81.8799 31.9291 81.8799 32.9037C81.8799 33.5673 82.013 34.1273 82.2811 34.5855C82.5473 35.0437 82.8988 35.4255 83.3372 35.7273C83.7756 36.0291 84.2744 36.2746 84.8371 36.4582C85.398 36.6437 85.9748 36.8055 86.5641 36.9418C88.0108 37.2546 89.1397 37.5655 89.9473 37.8782C90.7567 38.1909 91.1614 38.6582 91.1614 39.2818C91.1614 39.6528 91.0762 39.96 90.9058 40.2037C90.7336 40.4473 90.5206 40.6418 90.2615 40.7873C90.0059 40.9328 89.7201 41.0418 89.4059 41.1091C89.0917 41.1782 88.7918 41.2109 88.506 41.2109C88.1066 41.2109 87.7214 41.1618 87.3487 41.0655C86.9777 40.9691 86.6493 40.8164 86.3636 40.6109C86.0778 40.4073 85.8453 40.1437 85.6642 39.8218C85.4974 39.5255 85.4086 39.1746 85.3944 38.7709C85.3926 38.7146 85.3483 38.6655 85.2915 38.6655H81.6456C81.5853 38.6655 81.5373 38.7164 81.5409 38.7782C81.5906 39.7418 81.8125 40.5473 82.2083 41.1946C82.6165 41.8673 83.1402 42.4091 83.7774 42.82C84.4146 43.2291 85.1441 43.5218 85.9642 43.6964C86.7825 43.8728 87.6203 43.9618 88.4758 43.9618C89.3136 43.9618 90.1372 43.8764 90.9466 43.7128C91.756 43.5473 92.4749 43.2582 93.1015 42.8473C93.7298 42.4382 94.241 41.8982 94.6297 41.2237C95.0185 40.5528 95.2155 39.7164 95.2155 38.7237C95.219 38.0255 95.0877 37.4346 94.8197 36.9564Z" fill="#6A7685"/>
<path d="M43.0589 36.9564C42.7908 36.4782 42.4394 36.08 42.0027 35.7582C41.5625 35.4364 41.0638 35.1782 40.5029 34.9818C39.9402 34.7891 39.3633 34.6218 38.774 34.4837C38.2042 34.3473 37.6416 34.2218 37.0895 34.1037C36.5375 33.9873 36.0494 33.8546 35.6181 33.7091C35.1903 33.5637 34.8424 33.3709 34.5744 33.1382C34.3081 32.9037 34.175 32.6018 34.175 32.2309C34.175 31.9182 34.2513 31.6709 34.404 31.4837C34.5566 31.2982 34.7412 31.1582 34.9613 31.0582C35.1796 30.9618 35.4228 30.8982 35.6873 30.8691C35.9535 30.84 36.202 30.8255 36.431 30.8255C37.1534 30.8255 37.7818 30.9655 38.3143 31.2473C38.8255 31.52 39.1184 32.0291 39.1911 32.7764C39.1965 32.8291 39.2408 32.8728 39.2941 32.8728H42.9435C43.0038 32.8728 43.0518 32.8182 43.0464 32.7564C42.9612 31.8709 42.7305 31.1346 42.3577 30.5473C41.9672 29.9328 41.4773 29.44 40.8863 29.0709C40.2952 28.7 39.6242 28.4364 38.8716 28.2818C38.119 28.1255 37.3451 28.0473 36.5446 28.0473C35.7441 28.0473 34.9631 28.12 34.2016 28.2673C33.4401 28.4128 32.7532 28.6673 32.1444 29.0273C31.5356 29.3891 31.0457 29.8818 30.6729 30.5055C30.3019 31.1291 30.1156 31.9291 30.1156 32.9037C30.1156 33.5673 30.2487 34.1273 30.5167 34.5855C30.783 35.0437 31.1362 35.4255 31.5728 35.7273C32.0113 36.0291 32.51 36.2746 33.0727 36.4582C33.6336 36.6437 34.2105 36.8055 34.7998 36.9418C36.2482 37.2546 37.3753 37.5655 38.1847 37.8782C38.9923 38.1909 39.397 38.6582 39.397 39.2818C39.397 39.6528 39.3118 39.96 39.1414 40.2037C38.9693 40.4473 38.7563 40.6418 38.4989 40.7873C38.2397 40.9328 37.9557 41.0418 37.6416 41.1091C37.3274 41.1782 37.0292 41.2109 36.7434 41.2109C36.3423 41.2109 35.9571 41.1618 35.5861 41.0655C35.2134 40.9691 34.8868 40.8164 34.5992 40.6109C34.3134 40.4073 34.0809 40.1437 33.8999 39.8218C33.7348 39.5255 33.6443 39.1746 33.6301 38.7709C33.6283 38.7146 33.5839 38.6655 33.5271 38.6655H29.8813C29.8209 38.6655 29.7748 38.7164 29.7765 38.7782C29.8262 39.7418 30.0481 40.5473 30.4439 41.1946C30.8522 41.8673 31.3776 42.4091 32.0148 42.82C32.6503 43.2291 33.3798 43.5218 34.1998 43.6964C35.0181 43.8728 35.8559 43.9618 36.7132 43.9618C37.5493 43.9618 38.3729 43.8764 39.1823 43.7128C39.9917 43.5473 40.7105 43.2582 41.3389 42.8473C41.9672 42.4382 42.4767 41.8982 42.8654 41.2237C43.2559 40.5528 43.4511 39.7164 43.4511 38.7237C43.4582 38.0255 43.3251 37.4346 43.0589 36.9564Z" fill="#6A7685"/>
<path d="M102.905 31.4854C103.574 31.4163 104.096 30.8382 104.096 30.1345V28.8691C104.096 28.8109 104.05 28.7636 103.993 28.7636H101.187V24.4436C101.187 23.74 100.665 23.1618 99.9956 23.0927H97.4165C97.3029 23.0927 97.2106 23.1873 97.2106 23.3036V28.7636H95.3202C95.2634 28.7636 95.2173 28.8109 95.2173 28.8691V31.3818C95.2173 31.44 95.2634 31.4873 95.3202 31.4873H97.2106V40.2364C97.2106 40.9782 97.3331 41.5818 97.5727 42.04C97.8177 42.4982 98.1496 42.8509 98.5667 43.1018C98.9838 43.3473 99.4755 43.5164 100.02 43.6054C100.572 43.6873 101.156 43.7309 101.769 43.7309C102.161 43.7309 102.566 43.7254 102.978 43.7054C103.349 43.6818 103.693 43.6491 104.007 43.6C104.057 43.5927 104.094 43.5473 104.094 43.4945V40.6182C104.094 40.5563 104.044 40.5091 103.984 40.5127C103.547 40.5418 101.93 40.6182 101.515 40.2036C101.291 39.98 101.183 39.5182 101.183 38.8273V31.4854H102.905Z" fill="#6A7685"/>
</g>
</svg>
