<svg width="150" height="60" viewBox="0 0 150 60" fill="none" xmlns="http://www.w3.org/2000/svg">
<g opacity="0.8" clip-path="url(#clip0)">
<path fill-rule="evenodd" clip-rule="evenodd" d="M123.392 38.6419C122.606 38.6419 121.973 38.022 121.973 37.2499C121.973 36.4855 122.606 35.8656 123.392 35.8656C124.173 35.8656 124.806 36.4855 124.806 37.2499C124.806 38.022 124.173 38.6419 123.392 38.6419ZM123.392 35.6758C122.496 35.6758 121.774 36.382 121.774 37.2499C121.774 38.1255 122.496 38.8317 123.392 38.8317C124.282 38.8317 125 38.1255 125 37.2499C125 36.382 124.282 35.6758 123.392 35.6758Z" fill="#6A7685"/>
<path fill-rule="evenodd" clip-rule="evenodd" d="M123.269 37.1933H123.015V36.8213H123.403C123.572 36.8213 123.756 36.8411 123.756 37.0035C123.756 37.218 123.46 37.1933 123.269 37.1933ZM123.925 37.0061C123.925 36.9173 123.874 36.8236 123.772 36.7794C123.67 36.7325 123.556 36.7275 123.441 36.7275H122.85V37.7795H123.015V37.2943H123.321L123.708 37.7795H123.906L123.495 37.2943C123.737 37.2893 123.925 37.2131 123.925 37.0061Z" fill="#6A7685"/>
<path fill-rule="evenodd" clip-rule="evenodd" d="M113.677 28.7759L116.796 25.7677C116.976 25.5468 117.066 25.3922 117.066 25.2598C117.066 25.0389 116.856 24.9505 116.196 24.9505H115.408V23.0518H123.924V24.9505H122.805C121.513 24.9505 121.272 25.1269 119.47 27.1807L114.536 31.9944V34.9312C114.536 35.6826 114.957 35.9465 116.159 35.9465H118.022V37.7795H106.095V35.9465H107.957C109.159 35.9465 109.58 35.6826 109.58 34.9312V31.9944L103.77 26.1871C102.809 25.1718 102.942 24.9505 100.269 24.9505V23.0518H111.056V24.9505H110.288C109.506 24.9505 109.176 25.0829 109.176 25.3482C109.176 25.569 109.416 25.7459 109.566 25.9218L112.506 28.816C112.853 29.1447 113.28 29.1872 113.677 28.7759Z" fill="#6A7685"/>
<mask id="mask0" mask-type="alpha" maskUnits="userSpaceOnUse" x="25" y="22" width="22" height="17">
<path d="M25 22.3086H46.4446V38.832H25V22.3086Z" fill="white"/>
</mask>
<g mask="url(#mask0)">
<path fill-rule="evenodd" clip-rule="evenodd" d="M42.7722 22.7977H45.4565V28.391H42.9775C42.7579 27.2724 42.0014 26.8378 41.3107 26.2513C40.0648 25.1934 37.3685 24.3126 35.0997 24.3126C32.1727 24.3126 29.702 25.1516 29.702 26.3865C29.702 29.813 46.4446 27.0862 46.4446 33.5649C46.4446 36.944 42.8583 38.8322 36.4178 38.8322C34.1882 38.8322 30.8137 38.1921 28.8236 37.2153C28.199 36.8818 27.9342 37.53 27.8178 38.3426H25.0651V32.5627H27.554C28.1036 34.0311 28.86 34.3341 29.5552 34.9165C30.7624 35.9423 33.6359 36.6885 36.2716 36.6645C40.2441 36.6283 41.6108 35.8255 41.6108 34.66C41.6108 33.495 40.2596 33.2155 35.9052 32.5861L32.2091 32.0271C28.0374 31.4441 25 30.5816 25 27.5055C25 24.3126 28.8423 22.3086 34.9171 22.3086C37.4771 22.3086 39.6196 22.6243 41.6748 23.699C42.2453 24.0402 42.7794 24.0815 42.7722 22.7977Z" fill="#6A7685"/>
</g>
<path fill-rule="evenodd" clip-rule="evenodd" d="M92.9715 31.8115L93.0218 25.9217C93.0218 25.1495 92.5865 24.8847 91.3395 24.8847H89.8748V23.0518H99.1936V24.8847H97.9785C96.731 24.8847 96.2947 25.1495 96.2947 25.9217V37.7795L92.6469 37.7529L80.8356 27.4459V34.9308C80.8356 35.6817 81.2724 35.9688 82.5184 35.9688H84.1393V37.7795H74.4624V35.9688H76.0655C77.312 35.9688 77.7489 35.6817 77.7489 34.9308V25.9217C77.7489 25.1495 77.312 24.8847 76.0655 24.8847H74.4624V23.0518H82.8304L92.9715 31.8115Z" fill="#6A7685"/>
<path fill-rule="evenodd" clip-rule="evenodd" d="M60.8976 36.8953C56.6711 36.8953 54.2416 34.6917 54.2416 30.8861C54.2416 27.1691 56.7767 24.9655 61.1084 24.9655C65.2643 24.9655 67.6938 27.2139 67.6938 31.0419C67.6938 34.7808 65.2293 36.8953 60.8976 36.8953ZM61.0712 23.0518C53.4355 23.0518 48.6558 26.1009 48.6558 30.9971C48.6558 35.8052 53.3692 38.8315 60.8383 38.8315C68.7722 38.8315 73.3869 35.8495 73.3869 30.7526C73.3869 26.1681 68.4066 23.0518 61.0712 23.0518Z" fill="#6A7685"/>
</g>
<defs>
<clipPath id="clip0">
<rect width="100" height="16.8317" fill="white" transform="translate(25 22)"/>
</clipPath>
</defs>
</svg>
