<svg width="151" height="60" viewBox="0 0 151 60" fill="none" xmlns="http://www.w3.org/2000/svg">
<g opacity="0.8" clip-path="url(#clip0_106_1615)">
<path d="M133.006 22.1865C133.127 22.1776 133.19 22.227 133.238 22.3478C133.514 23.0396 133.804 23.7264 134.088 24.415C134.384 25.1308 134.679 25.8473 134.975 26.5628C135.531 27.9005 136.089 29.2368 136.641 30.5752C136.812 30.9885 136.962 31.41 137.132 31.8233C137.354 32.3624 137.59 32.8957 137.815 33.4338C137.961 33.7843 138.094 34.1402 138.24 34.4908C138.466 35.036 138.7 35.5776 138.926 36.1224C139.093 36.5239 139.254 36.9282 139.418 37.3311C138.104 37.3325 136.789 37.334 135.475 37.335C135.286 36.8565 135.094 36.3794 134.909 35.8995C134.677 35.2984 134.449 34.6955 134.224 34.0915C134.186 33.9886 134.129 33.961 134.026 33.961C132.544 33.9635 131.063 33.9625 129.582 33.9625C129.088 33.9625 128.594 33.9714 128.1 33.9592C127.959 33.9556 127.896 34.0144 127.855 34.1255C127.743 34.4234 127.64 34.7245 127.527 35.0213C127.231 35.7934 126.932 36.5637 126.635 37.335C125.417 37.334 124.2 37.3322 122.982 37.3325C122.943 37.3325 122.905 37.3512 122.865 37.3612C122.806 37.3623 122.746 37.3637 122.686 37.3648C122.832 36.996 122.973 36.6257 123.124 36.259C123.446 35.4758 123.775 34.6955 124.1 33.913C124.482 32.9922 124.866 32.072 125.242 31.149C125.577 30.3261 125.9 29.4977 126.236 28.6744C126.382 28.3156 126.551 27.9664 126.698 27.608C126.919 27.0721 127.125 26.5302 127.346 25.9946C127.565 25.4624 127.797 24.9351 128.02 24.4042C128.222 23.925 128.419 23.4436 128.62 22.964C128.73 22.7034 128.843 22.4443 128.955 22.1848C128.979 22.1848 129.004 22.1855 129.028 22.1858C129.84 22.1883 130.652 22.1923 131.464 22.193C131.93 22.1934 132.395 22.1891 132.861 22.1869C132.909 22.1865 132.957 22.1862 133.005 22.1858L133.006 22.1865ZM133.15 31.2824C132.462 29.4891 131.774 27.6958 131.087 25.9025C131.013 25.9394 130.99 25.9656 130.978 25.9957C130.88 26.2477 130.785 26.5011 130.687 26.7535C130.4 27.4922 130.11 28.2292 129.827 28.969C129.57 29.6411 129.32 30.3157 129.071 30.9906C129.023 31.1189 128.994 31.2541 128.957 31.386C129.017 31.3996 129.076 31.4254 129.136 31.4254C130.208 31.4279 131.281 31.4272 132.353 31.4272C132.591 31.4272 132.829 31.4261 133.068 31.4272C133.184 31.4276 133.229 31.3906 133.149 31.2824H133.15Z" fill="#6A7685"/>
<path d="M119.096 25.0157C119.114 25.0175 119.132 25.0211 119.15 25.0211C120.594 25.0218 122.039 25.0225 123.484 25.0211C123.529 25.0211 123.573 25.0014 123.618 24.991C123.676 24.987 123.734 24.9831 123.791 24.9795C123.805 24.9318 123.83 24.8841 123.831 24.8361C123.833 24.0099 123.832 23.1837 123.831 22.3575C123.831 22.3134 123.813 22.2693 123.803 22.2256L123.8 22.2281C123.786 22.212 123.773 22.1962 123.759 22.1801C123.712 22.1822 123.664 22.1844 123.617 22.1865C123.569 22.1887 123.522 22.1926 123.474 22.1926C119.401 22.1926 115.328 22.1926 111.254 22.1926C111.207 22.1926 111.159 22.1887 111.112 22.1865C111.099 22.1865 111.087 22.1865 111.074 22.1865C111.024 22.2134 110.973 22.2399 110.923 22.2668C110.923 22.2908 110.923 22.3148 110.923 22.3388C110.923 23.1855 110.923 24.0321 110.923 24.8788C110.919 24.8824 110.91 24.8874 110.911 24.8895C110.914 24.8988 110.92 24.9071 110.924 24.9157C110.938 24.9411 110.952 24.9669 110.965 24.9924C111.034 25.0024 111.103 25.0211 111.171 25.0211C112.667 25.0232 114.163 25.0236 115.659 25.0243L115.661 25.0225C115.661 29.0647 115.661 33.1072 115.663 37.1493C115.663 37.2225 115.684 37.2956 115.696 37.3691L115.697 37.3698C115.74 37.3812 115.783 37.402 115.827 37.4024C116.864 37.4042 117.901 37.4042 118.938 37.4024C118.98 37.4024 119.023 37.3791 119.065 37.3665L119.068 37.3691C119.079 37.2952 119.1 37.221 119.101 37.1472C119.102 33.1814 119.102 29.2159 119.102 25.2501C119.102 25.1727 119.099 25.0953 119.097 25.0178V25.0161L119.096 25.0157Z" fill="#6A7685"/>
<path d="M56.3522 37.3634L56.3554 37.3673C56.3676 37.2939 56.3902 37.2207 56.3902 37.1473C56.3919 33.1997 56.3916 29.2526 56.3916 25.305C56.3916 25.2097 56.3891 25.1143 56.3876 25.019L56.3866 25.0154C56.4102 25.0176 56.4342 25.0215 56.4579 25.0215C57.9085 25.0219 59.3595 25.0222 60.8101 25.0211C60.8553 25.0211 60.9001 25.0029 60.9452 24.9932C61.0015 24.9853 61.0581 24.9774 61.1105 24.9702V22.1877C61.0227 22.1923 60.9467 22.1963 60.8707 22.2006C60.7994 22.1981 60.728 22.1934 60.6567 22.1934C56.631 22.1934 52.6054 22.1934 48.5797 22.1927C48.5084 22.1927 48.437 22.1887 48.3653 22.1866C48.3528 22.1866 48.3406 22.1866 48.3281 22.1866C48.1789 22.1866 48.2202 22.2895 48.2266 22.3737C48.2266 22.3859 48.2266 22.3984 48.2266 22.4106C48.2266 23.1261 48.2266 23.8415 48.2266 24.5566C48.2277 24.6878 48.2284 24.8186 48.2295 24.9498C48.2377 24.9642 48.2463 24.9789 48.2546 24.9932C48.3234 25.0032 48.3919 25.0222 48.4607 25.0222C49.8812 25.024 51.3017 25.0237 52.7222 25.0237C52.7917 25.0237 52.8616 25.0237 52.9516 25.0237V25.2742C52.9516 29.2318 52.9516 33.1893 52.953 37.1469C52.953 37.2207 52.9742 37.2946 52.9853 37.3688L52.9882 37.3663C53.0423 37.3788 53.0964 37.4021 53.1505 37.4021C54.1631 37.4043 55.1754 37.4043 56.188 37.4021C56.2425 37.4021 56.297 37.377 56.3514 37.3634H56.3522Z" fill="#6A7685"/>
<path d="M93.5527 22.1898C93.5283 22.1887 93.5039 22.1876 93.4792 22.1869C93.4559 22.1869 93.4322 22.1869 93.4089 22.1869L93.2645 22.188C92.154 22.188 91.0436 22.188 89.9335 22.188C89.8973 22.188 89.8607 22.188 89.8245 22.188C89.789 22.1883 89.7539 22.1887 89.7184 22.189C89.7059 22.1894 89.6937 22.1898 89.6811 22.1901C89.6449 22.227 89.5991 22.2586 89.574 22.3019C88.9761 23.3296 88.3793 24.358 87.785 25.3878C87.2108 26.3825 86.6398 27.3793 86.0655 28.3736C86.03 28.4349 85.977 28.4865 85.9336 28.5406C85.825 28.3686 85.725 28.2227 85.6376 28.0693C85.2311 27.3563 84.8321 26.6391 84.4235 25.9276C83.7554 24.7648 83.0779 23.6074 82.4144 22.4417C82.313 22.2636 82.2116 22.1851 81.9925 22.1872C80.8294 22.1991 79.6659 22.1894 78.5024 22.1872C78.478 22.1872 78.454 22.1872 78.4296 22.1876C78.3959 22.1951 78.3626 22.203 78.3171 22.2131C78.3418 22.2582 78.3597 22.2948 78.3812 22.3288C78.8849 23.136 79.3863 23.9443 79.8931 24.7498C80.581 25.8426 81.2739 26.9323 81.9632 28.0245C82.7094 29.207 83.4532 30.3909 84.1984 31.5745C84.1988 33.4248 84.1991 35.2751 84.2013 37.1253C84.2013 37.1942 84.2188 37.2633 84.2282 37.3322C84.2317 37.3429 84.235 37.354 84.2378 37.3651C84.2859 37.378 84.3335 37.4021 84.3816 37.4021C85.4193 37.4042 86.4569 37.4042 87.495 37.4021C87.5434 37.4021 87.5914 37.3784 87.6398 37.3659C87.6524 37.2981 87.6753 37.2304 87.6757 37.1623C87.6785 36.5192 87.6767 35.8762 87.6774 35.2331C87.6789 34.0603 87.681 32.8875 87.6828 31.7147C87.6871 31.7111 87.6954 31.706 87.6947 31.7039C87.6918 31.6946 87.6864 31.6863 87.6818 31.6774C87.6893 31.644 87.6889 31.6057 87.7061 31.5777C87.9086 31.2451 88.1104 30.9121 88.3183 30.583C89.2485 29.1106 90.1822 27.6402 91.1117 26.167C91.8831 24.944 92.6508 23.7185 93.4172 22.4919C93.4753 22.3987 93.5089 22.2905 93.5538 22.189L93.5527 22.1898Z" fill="#6A7685"/>
<path d="M28.2257 19.1181C28.2773 19.1404 28.3275 19.1787 28.3801 19.1827C28.7626 19.2117 29.1472 19.2167 29.5275 19.2615C30.1075 19.33 30.6867 19.4106 31.262 19.511C31.9269 19.6271 32.5929 19.7458 33.2474 19.9078C34.0091 20.0963 34.7654 20.3128 35.4888 20.6261C36.0178 20.8555 36.5584 21.0609 37.076 21.3136C38.2319 21.8778 39.3044 22.5739 40.2736 23.4227C40.969 24.031 41.5898 24.707 42.0988 25.4794C42.4845 26.0644 42.8006 26.6813 43.0369 27.3476C43.3139 28.1283 43.458 28.9248 43.4444 29.7438C43.4369 30.1969 43.3394 30.6489 43.2785 31.1009C43.1867 31.783 42.9354 32.4142 42.6268 33.0214C42.1555 33.9483 41.5192 34.7559 40.7837 35.4882C40.0765 36.1926 39.2861 36.7937 38.4406 37.3181C37.6007 37.8385 36.7268 38.3016 35.7952 38.6389C35.0755 38.8999 34.3518 39.1544 33.6163 39.3648C32.8851 39.5745 32.1391 39.7361 31.395 39.8978C31.0824 39.9655 30.7581 39.9777 30.439 40.0157C29.9376 40.0756 29.4361 40.1358 28.9343 40.1956C28.9167 40.1978 28.8985 40.1967 28.8805 40.1971C27.988 40.2085 27.0948 40.2401 26.2026 40.224C25.6022 40.2132 25.0011 40.1498 24.4032 40.0831C23.8276 40.0189 23.2494 39.9501 22.6841 39.8286C21.9135 39.663 21.1418 39.482 20.3923 39.2408C19.5424 38.9669 18.7069 38.6411 17.8824 38.2977C17.0168 37.9371 16.2139 37.4543 15.4397 36.9252C14.697 36.4177 14.0116 35.8438 13.3962 35.1882C12.5886 34.3279 11.9316 33.3698 11.5075 32.2619C11.271 31.6439 11.105 31.0091 11.0606 30.3478C11.0362 29.9872 11.0104 29.6234 11.0312 29.2639C11.052 28.9076 11.1204 28.5527 11.186 28.2004C11.3531 27.301 11.7341 26.4849 12.2137 25.7164C12.6352 25.0411 13.142 24.4303 13.7145 23.8725C14.7289 22.8839 15.8856 22.0986 17.1351 21.4419C18.0419 20.9652 18.9821 20.5605 19.9618 20.267C20.8468 20.0017 21.7497 19.7906 22.6522 19.5891C23.2308 19.4601 23.8211 19.3812 24.4093 19.3013C24.7595 19.2536 25.1155 19.2465 25.4689 19.2225C25.6811 19.2081 25.894 19.2002 26.1058 19.182C26.1449 19.1787 26.1807 19.14 26.2184 19.1174C26.8872 19.1174 27.5561 19.1174 28.2249 19.1174L28.2257 19.1181ZM29.6229 30.5342C29.6354 30.3664 29.6541 30.199 29.6598 30.0313C29.6691 29.7574 29.6515 29.7467 29.3712 29.818C29.0734 29.8316 28.7752 29.8453 28.4773 29.8589C28.464 29.8686 28.4508 29.8782 28.4375 29.8876C28.4267 29.8901 28.4164 29.8929 28.4056 29.8954C27.7124 29.8954 27.0188 29.8958 26.3256 29.8962C26.3023 29.8962 26.2793 29.8962 26.256 29.8965C26.1958 29.8958 26.1356 29.8951 26.0754 29.8944C25.6596 29.8664 25.2438 29.8388 24.7982 29.8091C24.8316 30.3413 24.8563 30.8371 24.8964 31.3317C24.9183 31.5991 24.9463 31.8694 25.0068 32.13C25.1301 32.6601 25.2682 33.1877 25.4176 33.7111C25.5875 34.3061 25.8639 34.8531 26.2531 35.3355C26.4869 35.6251 26.7801 35.8596 27.1643 35.8936C27.5905 35.9313 27.9149 35.6854 28.1755 35.39C28.5974 34.9122 28.8597 34.3358 29.0512 33.734C29.2375 33.1494 29.3992 32.5569 29.449 31.9393C29.4824 31.5264 29.5408 31.1152 29.5892 30.7037C29.596 30.6467 29.6114 30.5908 29.6229 30.5342ZM27.9783 20.4361C27.9364 20.4146 27.8948 20.3745 27.8529 20.3741C27.3873 20.3698 26.9216 20.3709 26.4564 20.3727C26.4238 20.3727 26.3915 20.3928 26.3589 20.4035C26.3327 20.4157 26.3069 20.4372 26.28 20.4387C25.789 20.4645 25.2972 20.4809 24.8068 20.5146C24.4265 20.5404 24.0444 20.5695 23.6684 20.6293C23.1981 20.7039 22.7315 20.8043 22.2666 20.9071C21.8877 20.991 21.5084 21.0806 21.1382 21.1946C20.764 21.31 20.3958 21.4484 20.0331 21.5957C19.2933 21.8964 18.5961 22.2714 18.0997 22.9201C17.7068 23.4334 17.648 23.8786 17.9226 24.407C18.1488 24.8421 18.5054 25.1558 18.9126 25.4228C19.4194 25.7551 19.9639 26.0017 20.5324 26.2056C21.2077 26.4479 21.8938 26.6494 22.601 26.7759C22.8938 26.8286 23.1867 26.8838 23.482 26.9383C23.5039 26.8372 23.5179 26.7738 23.5315 26.71C23.6523 26.1343 23.7566 25.5543 23.8993 24.9841C24.0079 24.5489 24.1412 24.1166 24.3075 23.7005C24.4728 23.2868 24.6782 22.8868 24.8925 22.4954C25.1882 21.9556 25.5517 21.4681 26.0528 21.0907C26.7847 20.5394 27.6328 20.5491 28.3776 21.0641C28.9067 21.4297 29.2752 21.9398 29.586 22.4918C29.9089 23.065 30.1455 23.6743 30.3595 24.2969C30.6143 25.0382 30.7706 25.7995 30.9133 26.5651C30.9792 26.9196 30.9656 26.9433 31.3212 26.8745C31.8986 26.7627 32.4739 26.6354 33.0435 26.4892C33.6969 26.3211 34.3303 26.0902 34.9325 25.7816C35.5017 25.4902 36.0483 25.1658 36.4193 24.6235C36.7028 24.2087 36.7921 23.7557 36.5863 23.2829C36.4225 22.9065 36.1598 22.5997 35.8089 22.3807C35.4228 22.1395 35.045 21.8764 34.635 21.685C34.2152 21.4889 33.7661 21.3473 33.3188 21.2193C32.718 21.0476 32.1101 20.8971 31.499 20.7666C31.1251 20.6871 30.7398 20.6609 30.3591 20.6132C29.9695 20.5645 29.5806 20.505 29.1892 20.4759C28.787 20.4462 28.3823 20.4476 27.9791 20.4354L27.9783 20.4361ZM23.239 29.6112C22.8709 29.5374 22.4995 29.4764 22.1354 29.3864C21.4153 29.209 20.6851 29.0549 19.9847 28.8169C19.3205 28.5911 18.6753 28.2964 18.0462 27.9839C17.31 27.6179 16.6286 27.1634 16.0537 26.5598C15.5035 25.982 15.1235 25.3278 15.021 24.5037C14.9719 24.541 14.9217 24.5622 14.8977 24.5998C14.6156 25.0371 14.3134 25.4637 14.064 25.9192C13.6016 26.7637 13.3291 27.6724 13.246 28.6344C13.2342 28.6839 13.2127 28.7334 13.2123 28.7828C13.2094 29.1467 13.2098 29.5105 13.2123 29.8743C13.2123 29.918 13.232 29.9614 13.2424 30.0051C13.2446 30.0944 13.2324 30.1869 13.2514 30.2722C13.4087 30.9815 13.5657 31.688 13.8844 32.3526C14.2486 33.1132 14.6988 33.8125 15.2497 34.4466C16.2042 35.5445 17.3416 36.4191 18.6223 37.1019C19.2144 37.4177 19.8213 37.7138 20.4439 37.9636C21.0195 38.1945 21.6228 38.3593 22.2185 38.5382C22.5601 38.6407 22.9078 38.7303 23.2587 38.7948C23.7885 38.8927 24.3222 38.9708 24.8559 39.0436C25.2158 39.0924 25.5789 39.1182 25.9413 39.1508C25.9815 39.1544 26.0237 39.1354 26.1022 39.1196C26.0091 39.0339 25.9388 38.9791 25.8804 38.9139C25.6334 38.6389 25.351 38.3855 25.1542 38.0783C24.8782 37.6478 24.638 37.1883 24.4355 36.7184C24.2305 36.2427 24.071 35.7452 23.9269 35.247C23.7996 34.8068 23.7132 34.3541 23.6222 33.9043C23.5354 33.4748 23.4401 33.0447 23.3949 32.6099C23.3329 32.016 23.3143 31.4174 23.2774 30.8209C23.2792 30.4464 23.282 30.0714 23.2809 29.6969C23.2809 29.6682 23.2544 29.6395 23.2401 29.6112H23.239ZM31.233 29.599C31.2219 29.6237 31.2014 29.6485 31.2014 29.6736C31.2014 29.9603 31.2043 30.2474 31.2065 30.5342C31.1803 30.9278 31.1574 31.3217 31.1269 31.7153C31.0954 32.1239 31.0799 32.5361 31.0151 32.94C30.9165 33.5541 30.79 34.1641 30.6602 34.7724C30.4286 35.8592 30.044 36.8897 29.4709 37.8439C29.1881 38.3145 28.859 38.7504 28.3916 39.0612C28.3748 39.0723 28.3776 39.1135 28.3665 39.1619C28.6486 39.1354 28.916 39.1088 29.1838 39.0852C29.4816 39.059 29.7827 39.0519 30.0777 39.0067C30.5269 38.9382 30.9767 38.8644 31.4176 38.7569C32.3513 38.5289 33.2729 38.2561 34.1661 37.897C35.0049 37.56 35.8078 37.1557 36.5752 36.675C37.4609 36.1201 38.2689 35.475 38.9832 34.7143C39.6327 34.0225 40.1665 33.2483 40.5704 32.3895C40.8102 31.8801 40.992 31.3486 41.0912 30.7923C41.1389 30.5241 41.1823 30.2553 41.2278 29.9865C41.24 29.961 41.2629 29.9352 41.2633 29.9098C41.2651 29.5345 41.2662 29.1588 41.2608 28.7835C41.2601 28.7323 41.2228 28.6814 41.2027 28.6301C41.1568 28.304 41.1443 27.9685 41.0565 27.6541C40.9307 27.2043 40.7704 26.7609 40.5858 26.3311C40.4235 25.9526 40.2217 25.5888 40.0116 25.2335C39.8568 24.9715 39.66 24.7339 39.4822 24.4855L39.4252 24.512C39.4166 24.5977 39.4141 24.6848 39.3983 24.7694C39.2506 25.5561 38.8219 26.1877 38.2578 26.7268C37.6943 27.2648 37.0412 27.6846 36.3437 28.0319C36.0953 28.1556 35.8354 28.2566 35.5791 28.3645C35.1898 28.5283 34.806 28.709 34.407 28.8456C34.0027 28.9839 33.584 29.0828 33.1689 29.1882C32.7822 29.2864 32.3933 29.3753 32.0033 29.4592C31.7484 29.5141 31.49 29.5531 31.2334 29.5994L31.233 29.599ZM28.7515 27.2043C28.7515 27.1953 28.7519 27.186 28.7522 27.177C28.9472 27.1627 29.1418 27.1419 29.3372 27.1365C29.4612 27.1329 29.4548 27.0487 29.4462 26.977C29.4221 26.7806 29.4046 26.5802 29.3501 26.3913C29.2046 25.8845 29.0415 25.3826 28.8852 24.879C28.7268 24.369 28.4436 23.9353 28.0938 23.5342C27.7063 23.0897 26.9385 23.0126 26.5628 23.3779C26.3252 23.6087 26.1058 23.8697 25.9288 24.1489C25.5481 24.7489 25.351 25.4264 25.1836 26.1114C25.1201 26.3716 25.0603 26.6325 25.0033 26.8938C24.966 27.0637 25.0043 27.1125 25.1925 27.1336C25.4259 27.1598 25.6599 27.1935 25.8944 27.1992C26.3367 27.21 26.7793 27.2035 27.2217 27.2039C27.7317 27.2039 28.2418 27.2039 28.7519 27.2039L28.7515 27.2043Z" fill="#6A7685"/>
<path d="M71.0769 21.6532C74.5617 21.6299 77.8999 25.2469 78.1114 29.1891C78.3784 34.1635 74.4248 37.5946 70.4561 37.7361C68.0807 37.8207 66.0462 37.054 64.3672 35.4034C62.8532 33.9148 62.0445 32.0778 61.9857 29.9486C61.923 27.6779 62.6879 25.7 64.2773 24.0752C65.8662 22.4507 67.8165 21.6381 71.0766 21.6535L71.0769 21.6532ZM65.5024 29.7318C65.5655 30.1379 65.6186 30.5461 65.6953 30.9498C65.7462 31.2161 65.7999 31.4896 65.9071 31.7362C66.3032 32.6459 66.8451 33.4463 67.6771 34.0273C68.3918 34.527 69.1804 34.8084 70.0475 34.8163C70.512 34.8206 70.9669 34.7059 71.4149 34.551C71.9512 34.3657 72.4143 34.0775 72.8354 33.713C73.619 33.0345 74.0947 32.1588 74.3656 31.1774C74.4814 30.7583 74.528 30.3132 74.5477 29.8773C74.566 29.474 74.5341 29.0633 74.4742 28.6632C74.3739 27.993 74.1033 27.3761 73.7649 26.794C73.5154 26.3653 73.1964 25.9828 72.8175 25.6591C71.9841 24.9473 71.0396 24.5716 69.9177 24.6168C69.17 24.6473 68.4997 24.8408 67.8703 25.2304C67.0136 25.7606 66.4121 26.518 66.0121 27.4166C65.6892 28.1421 65.5153 28.921 65.5028 29.7318H65.5024Z" fill="#6A7685"/>
<path d="M101.328 37.7268C100.683 37.725 100.065 37.5688 99.452 37.3892C98.4448 37.0938 97.5422 36.5934 96.7321 35.935C96.0325 35.3661 95.4371 34.6984 94.9708 33.9227C94.7944 33.6291 94.594 33.3431 94.4679 33.0284C94.2367 32.4516 94.0216 31.8663 93.9162 31.248C93.818 30.6695 93.7503 30.0899 93.7657 29.5013C93.7875 28.6622 93.9424 27.8478 94.2137 27.056C94.5019 26.2151 94.927 25.4495 95.4733 24.7458C96.1755 23.8415 97.034 23.1293 98.0387 22.5869C98.7986 22.1769 99.6015 21.8912 100.458 21.7665C100.747 21.7245 101.038 21.6941 101.328 21.6586C101.687 21.6586 102.045 21.6586 102.404 21.6586C102.875 21.7385 103.355 21.789 103.817 21.9066C104.293 22.0278 104.766 22.1855 105.217 22.3794C105.837 22.6457 106.403 23.0095 106.928 23.4382C107.505 23.9099 107.997 24.453 108.434 25.0584C108.804 25.5731 109.094 26.1251 109.336 26.7047C109.449 26.975 109.515 27.2646 109.606 27.5442C109.891 28.4102 109.933 29.3052 109.887 30.2024C109.859 30.7497 109.759 31.2899 109.617 31.8262C109.429 32.5359 109.145 33.1972 108.773 33.8223C108.384 34.4754 107.902 35.0503 107.347 35.5765C106.53 36.3529 105.589 36.9114 104.538 37.291C103.968 37.4967 103.38 37.6469 102.772 37.6946C102.625 37.706 102.478 37.7168 102.332 37.7283C101.997 37.7283 101.663 37.7279 101.328 37.7275V37.7268ZM101.325 34.7568C101.623 34.8328 101.923 34.8364 102.225 34.7855C102.62 34.6801 103.024 34.5976 103.409 34.4639C103.948 34.2779 104.4 33.9424 104.8 33.5417C105.441 32.9 105.893 32.1466 106.104 31.2595C106.181 30.9369 106.242 30.6107 106.31 30.2863C106.31 29.8798 106.309 29.4733 106.308 29.0665C106.307 29.0307 106.311 28.9945 106.305 28.9593C106.191 28.2209 105.976 27.517 105.592 26.8703C105.03 25.9219 104.257 25.2186 103.211 24.8326C102.68 24.6369 102.139 24.5989 101.574 24.6175C100.895 24.6397 100.291 24.8483 99.7273 25.1871C98.9943 25.628 98.434 26.2405 98.0204 26.9929C97.5748 27.803 97.349 28.6701 97.3203 29.587C97.3107 29.8963 97.3558 30.2085 97.391 30.5175C97.4569 31.0956 97.6397 31.6444 97.8939 32.1624C98.3828 33.1585 99.1122 33.9331 100.121 34.4206C100.499 34.6034 100.904 34.7159 101.326 34.7568H101.325Z" fill="#6A7685"/>
<path d="M78.502 22.1872C79.6655 22.1898 80.829 22.1994 81.9922 22.1872C82.2112 22.1851 82.3126 22.2632 82.4141 22.4417C83.0775 23.607 83.755 24.7648 84.4231 25.9276C84.8321 26.6391 85.2307 27.3563 85.6372 28.0693C85.7246 28.2223 85.8246 28.3686 85.9333 28.5406C85.9766 28.4865 86.0297 28.4349 86.0652 28.3736C86.6394 27.3789 87.2104 26.3825 87.7846 25.3878C88.3789 24.358 88.9757 23.3296 89.5736 22.3019C89.5987 22.2586 89.6446 22.227 89.6808 22.1901C89.6933 22.1898 89.7055 22.1894 89.718 22.189C89.7535 22.1887 89.7887 22.1883 89.8241 22.188C89.8603 22.188 89.8969 22.188 89.9331 22.188C91.0436 22.188 92.154 22.188 93.2645 22.188C93.3125 22.1876 93.3609 22.1872 93.4089 22.1869C93.4322 22.1869 93.4559 22.1869 93.4792 22.1869C93.5036 22.188 93.5279 22.189 93.5527 22.1898C93.5079 22.2912 93.4742 22.3994 93.4161 22.4926C92.6498 23.7189 91.882 24.9444 91.1106 26.1678C90.1815 27.641 89.2474 29.1113 88.3173 30.5838C88.1094 30.9128 87.9076 31.2458 87.705 31.5784C87.6882 31.6064 87.6885 31.6444 87.6807 31.6781C87.6807 31.6906 87.6814 31.7028 87.6817 31.7154C87.6799 32.8882 87.6778 34.061 87.6764 35.2338C87.6756 35.8769 87.6774 36.5199 87.6746 37.163C87.6746 37.2307 87.6513 37.2985 87.6387 37.3666C86.505 37.3666 85.3709 37.3659 84.2371 37.3659C84.2342 37.3547 84.231 37.344 84.2274 37.3329C84.2299 37.3153 84.2342 37.2978 84.2342 37.2798C84.2346 35.4213 84.235 33.5628 84.2335 31.7043C84.2335 31.6612 84.2102 31.6182 84.1977 31.5752C83.4528 30.392 82.7087 29.2081 81.9624 28.0252C81.2735 26.933 80.5806 25.8434 79.8924 24.7505C79.3856 23.9454 78.8841 23.1368 78.3805 22.3295C78.359 22.2951 78.3411 22.2586 78.3163 22.2138C78.3619 22.2034 78.3952 22.1959 78.4289 22.1883C78.4533 22.1883 78.4773 22.1883 78.5017 22.188L78.502 22.1872Z" fill="#6A7685"/>
<path d="M60.871 22.2005C60.947 22.1966 61.023 22.1923 61.1108 22.1876V24.9702C61.0581 24.9774 61.0018 24.9853 60.9452 24.9932C60.9158 24.9903 60.886 24.9853 60.8566 24.9853C59.4103 24.9849 57.964 24.9845 56.5173 24.986C56.4736 24.986 56.4302 25.005 56.3865 25.0154L56.3876 25.019C56.3772 25.1039 56.3571 25.1889 56.3571 25.2738C56.3553 29.3049 56.3553 33.3363 56.3553 37.3673L56.3521 37.3634C55.2309 37.3644 54.11 37.3652 52.9888 37.3662L52.986 37.3687C52.9867 33.29 52.9874 29.2117 52.9863 25.1329C52.9863 25.0831 52.9637 25.0337 52.9516 24.9838C52.8834 24.9727 52.8153 24.9523 52.7469 24.9523C51.2411 24.9501 49.7352 24.9501 48.2294 24.9498C48.2284 24.8186 48.2276 24.6878 48.2266 24.5566C48.2366 24.5118 48.2556 24.467 48.2556 24.4222C48.2574 23.7963 48.2574 23.1708 48.2556 22.545C48.2556 22.5002 48.2366 22.4554 48.2266 22.4106C48.2266 22.3984 48.2266 22.3858 48.2266 22.3737C48.256 22.2478 48.3388 22.2285 48.4592 22.2285C52.5218 22.2321 56.5844 22.2314 60.6466 22.2299C60.7212 22.2299 60.7961 22.2106 60.8706 22.2002L60.871 22.2005Z" fill="#6A7685"/>
<path d="M123.791 24.9799C123.734 24.9839 123.676 24.9878 123.619 24.9914C123.601 24.9892 123.583 24.9857 123.565 24.9857C122.12 24.9857 120.673 24.9849 119.227 24.9864C119.184 24.9864 119.14 25.0054 119.096 25.0158V25.0176C119.083 25.0319 119.07 25.0466 119.057 25.0609C119.048 25.1244 119.031 25.1875 119.031 25.2509C119.029 29.1196 119.029 32.9882 119.031 36.8569C119.031 36.9196 119.049 36.9824 119.059 37.0455C119.062 37.1534 119.065 37.2612 119.067 37.3691L119.064 37.3666C117.941 37.3677 116.818 37.3691 115.696 37.3702L115.695 37.3695C115.696 33.3026 115.697 29.2354 115.695 25.1685C115.695 25.1201 115.673 25.0713 115.66 25.0229L115.658 25.0247C115.66 25.0151 115.659 25.0054 115.657 24.9957C115.591 24.981 115.526 24.953 115.46 24.953C114.022 24.9505 112.584 24.9495 111.145 24.9541C111.004 24.9545 110.962 24.915 110.963 24.7731C110.97 24.0103 110.967 23.2476 110.967 22.4848C110.967 22.3161 111.049 22.2317 111.213 22.2317C115.331 22.2317 119.448 22.2317 123.566 22.2317C123.644 22.2317 123.721 22.2296 123.799 22.2285L123.802 22.226C123.8 22.2973 123.796 22.3687 123.796 22.4404C123.793 23.287 123.792 24.1336 123.791 24.9803L123.791 24.9799Z" fill="#6A7685"/>
<path d="M123.799 22.2281C123.722 22.2292 123.644 22.2313 123.567 22.2313C119.449 22.2313 115.331 22.2313 111.213 22.2313C111.049 22.2313 110.967 22.3157 110.967 22.4844C110.967 23.2471 110.971 24.0099 110.964 24.7727C110.963 24.9146 111.005 24.954 111.146 24.9537C112.584 24.949 114.023 24.9501 115.461 24.9526C115.526 24.9526 115.592 24.9802 115.657 24.9953C115.586 24.9924 115.514 24.987 115.443 24.987C113.951 24.9885 112.458 24.9906 110.965 24.9924C110.951 24.9669 110.937 24.9411 110.924 24.9157C110.924 24.9035 110.923 24.891 110.922 24.8788C110.922 24.0321 110.922 23.1855 110.922 22.3388C110.922 22.3148 110.922 22.2908 110.922 22.2668C110.973 22.2399 111.024 22.2134 111.074 22.1865C111.087 22.1865 111.099 22.1865 111.111 22.1865C111.159 22.1887 111.206 22.1926 111.254 22.1926C115.327 22.1926 119.401 22.1926 123.474 22.1926C123.522 22.1926 123.569 22.1887 123.617 22.1865C123.664 22.1844 123.712 22.1822 123.759 22.1801C123.773 22.1962 123.786 22.212 123.799 22.2281Z" fill="#6A7685"/>
<path d="M52.9516 24.9838C52.9637 25.0336 52.9863 25.0831 52.9863 25.1329C52.9874 29.2117 52.9863 33.29 52.986 37.3687C52.9749 37.2949 52.9537 37.2211 52.9537 37.1469C52.9523 33.1893 52.9523 29.2317 52.9523 25.2742V25.0236C52.8619 25.0236 52.7924 25.0236 52.7229 25.0236C51.3024 25.0236 49.8819 25.024 48.4614 25.0222C48.3925 25.0222 48.3241 25.0032 48.2552 24.9931C48.3327 24.9914 48.4097 24.9881 48.4872 24.9881C49.9754 24.9863 51.4637 24.9853 52.9523 24.9838H52.9516Z" fill="#6A7685"/>
<path d="M60.871 22.2005C60.7964 22.2109 60.7215 22.2303 60.647 22.2303C56.5844 22.2317 52.5218 22.2321 48.4596 22.2288C48.3391 22.2288 48.2563 22.2482 48.2269 22.374C48.2205 22.2898 48.1793 22.1869 48.3284 22.1869C48.3409 22.1869 48.3531 22.1869 48.3656 22.1869C48.437 22.189 48.5083 22.193 48.58 22.193C52.6057 22.193 56.6313 22.193 60.657 22.1937C60.7283 22.1937 60.7997 22.1984 60.871 22.2009V22.2005Z" fill="#6A7685"/>
<path d="M56.3553 37.3677C56.3553 33.3366 56.3553 29.3052 56.3571 25.2742C56.3571 25.1892 56.3769 25.1043 56.3876 25.0193C56.389 25.1147 56.3915 25.21 56.3915 25.3054C56.3915 29.2529 56.3919 33.2001 56.3901 37.1476C56.3901 37.2211 56.3675 37.2942 56.3553 37.3677Z" fill="#6A7685"/>
<path d="M115.661 25.0226C115.673 25.071 115.696 25.1197 115.696 25.1681C115.697 29.235 115.696 33.3022 115.696 37.3691C115.684 37.296 115.663 37.2229 115.663 37.1494C115.661 33.1073 115.661 29.0647 115.661 25.0226H115.661Z" fill="#6A7685"/>
<path d="M119.068 37.3688C119.065 37.2609 119.062 37.153 119.06 37.0451C119.062 36.9974 119.065 36.9501 119.065 36.9025C119.065 33.0148 119.065 29.1271 119.065 25.2395C119.065 25.18 119.06 25.1205 119.057 25.0609C119.071 25.0466 119.083 25.0319 119.097 25.0176C119.098 25.095 119.102 25.1724 119.102 25.2498C119.102 29.2157 119.102 33.1811 119.101 37.1469C119.101 37.2208 119.079 37.295 119.068 37.3688H119.068Z" fill="#6A7685"/>
<path d="M84.1977 31.5745C84.2102 31.6175 84.2335 31.6605 84.2335 31.7036C84.2353 33.5621 84.235 35.4206 84.2343 37.2791C84.2343 37.2967 84.2296 37.3143 84.2274 37.3322C84.2181 37.2634 84.2006 37.1942 84.2006 37.1254C84.1984 35.2751 84.1984 33.4248 84.1977 31.5745Z" fill="#6A7685"/>
<path d="M52.9515 24.9838C51.4632 24.9853 49.975 24.9867 48.4864 24.9881C48.409 24.9881 48.3319 24.9913 48.2545 24.9931C48.2462 24.9788 48.2376 24.9641 48.2294 24.9498C49.7352 24.9498 51.241 24.9498 52.7468 24.9523C52.8149 24.9523 52.883 24.9727 52.9515 24.9838Z" fill="#6A7685"/>
<path d="M110.966 24.9929C112.458 24.9911 113.951 24.9889 115.444 24.9875C115.515 24.9875 115.587 24.9929 115.658 24.9957C115.66 25.0054 115.661 25.0151 115.659 25.0248C114.163 25.024 112.667 25.024 111.171 25.0215C111.103 25.0215 111.034 25.0029 110.966 24.9929Z" fill="#6A7685"/>
<path d="M56.3865 25.0157C56.4302 25.0057 56.4736 24.9864 56.5173 24.9864C57.9636 24.9849 59.4099 24.9849 60.8566 24.9856C60.886 24.9856 60.9158 24.9907 60.9451 24.9935C60.9 25.0032 60.8552 25.0215 60.81 25.0215C59.3594 25.0229 57.9084 25.0226 56.4578 25.0218C56.4341 25.0218 56.4101 25.0179 56.3865 25.0157Z" fill="#6A7685"/>
<path d="M119.096 25.0158C119.14 25.0057 119.184 24.9864 119.227 24.9864C120.673 24.985 122.12 24.9853 123.565 24.9857C123.583 24.9857 123.601 24.9896 123.619 24.9914C123.574 25.0018 123.529 25.0212 123.484 25.0215C122.039 25.0226 120.594 25.0219 119.15 25.0215C119.132 25.0215 119.114 25.0179 119.096 25.0161V25.0158Z" fill="#6A7685"/>
<path d="M135.476 37.3358C136.79 37.3344 138.104 37.3329 139.418 37.3318C139.421 37.3397 139.425 37.3476 139.427 37.3559C139.428 37.3598 139.423 37.3645 139.422 37.3688C138.108 37.3666 136.794 37.3648 135.481 37.3627C135.474 37.3548 135.472 37.3458 135.476 37.3361L135.476 37.3358Z" fill="#6A7685"/>
<path d="M135.48 37.3627C136.794 37.3648 138.108 37.3666 139.421 37.3688C139.366 37.3806 139.311 37.4025 139.256 37.4025C138.058 37.4043 136.86 37.4046 135.661 37.4025C135.601 37.4025 135.541 37.3767 135.48 37.363V37.3627Z" fill="#6A7685"/>
<path d="M122.686 37.3659C122.746 37.3648 122.806 37.3634 122.866 37.3623C124.12 37.3641 125.374 37.3659 126.628 37.368C126.579 37.3799 126.53 37.4025 126.481 37.4025C125.264 37.4042 124.048 37.4042 122.831 37.4025C122.783 37.4025 122.734 37.3788 122.686 37.3659Z" fill="#6A7685"/>
<path d="M126.628 37.3677C125.374 37.3659 124.12 37.3641 122.866 37.3619C122.905 37.3519 122.944 37.3333 122.983 37.3333C124.2 37.3333 125.418 37.3343 126.635 37.3358C126.639 37.3476 126.637 37.3583 126.628 37.3677Z" fill="#6A7685"/>
<path d="M84.2368 37.3652C85.3706 37.3652 86.5047 37.3659 87.6384 37.3659C87.59 37.3784 87.542 37.4017 87.4936 37.4021C86.4559 37.4042 85.4182 37.4042 84.3802 37.4021C84.3322 37.4021 84.2845 37.3781 84.2365 37.3652H84.2368Z" fill="#6A7685"/>
<path d="M115.696 37.3699C116.819 37.3688 117.942 37.3673 119.065 37.3663C119.022 37.3788 118.98 37.4021 118.938 37.4021C117.901 37.4043 116.863 37.4043 115.826 37.4021C115.783 37.4021 115.74 37.381 115.696 37.3695V37.3699Z" fill="#6A7685"/>
<path d="M52.9888 37.3662C54.11 37.3651 55.2309 37.3644 56.3521 37.3633C56.2976 37.377 56.2431 37.4017 56.1886 37.4021C55.176 37.4046 54.1638 37.4042 53.1512 37.4021C53.0971 37.4021 53.043 37.3788 52.9888 37.3662Z" fill="#6A7685"/>
<path d="M123.791 24.9799C123.793 24.1332 123.794 23.2866 123.796 22.4399C123.796 22.3686 123.801 22.2973 123.803 22.2256C123.812 22.2697 123.83 22.3134 123.83 22.3575C123.832 23.1837 123.833 24.0099 123.83 24.8361C123.83 24.8838 123.805 24.9318 123.791 24.9795L123.791 24.9799Z" fill="#6A7685"/>
<path d="M48.2269 22.4106C48.2369 22.4554 48.2559 22.5002 48.2559 22.545C48.2577 23.1708 48.2577 23.7963 48.2559 24.4222C48.2559 24.467 48.2369 24.5118 48.2269 24.5566C48.2269 23.8411 48.2269 23.1257 48.2269 22.4106Z" fill="#6A7685"/>
<path d="M101.328 37.7268C101.662 37.7268 101.997 37.7268 102.332 37.7269C101.997 37.7269 101.662 37.7268 101.328 37.7268Z" fill="#6A7685"/>
<path d="M93.5526 22.1898C93.5282 22.1887 93.5039 22.1876 93.4791 22.1869C93.5035 22.188 93.5279 22.189 93.5526 22.1898Z" fill="#6A7685"/>
<path d="M129.028 22.1859C129.004 22.1859 128.98 22.1859 128.955 22.1859C128.98 22.1859 129.004 22.1859 129.028 22.1859Z" fill="#6A7685"/>
<path d="M110.923 24.8788C110.923 24.891 110.924 24.9036 110.924 24.9158C110.919 24.9072 110.914 24.8989 110.911 24.8896C110.91 24.8874 110.918 24.8824 110.923 24.8788Z" fill="#6A7685"/>
<path d="M87.6817 31.715C87.6814 31.7025 87.681 31.6903 87.6807 31.6777C87.6853 31.6863 87.6907 31.6949 87.6936 31.7043C87.6943 31.7064 87.686 31.7114 87.6817 31.715Z" fill="#6A7685"/>
<path d="M28.4058 29.8956C28.3664 29.9045 28.3269 29.9217 28.2871 29.9217C27.6724 29.9239 27.0577 29.9246 26.4433 29.9235C26.4042 29.9235 26.3648 29.9056 26.3257 29.8963C27.019 29.8963 27.7126 29.8959 28.4058 29.8956Z" fill="#6A7685"/>
<path d="M27.9789 20.4363C27.4391 20.4255 26.8993 20.4148 26.3594 20.404C26.3921 20.3932 26.4243 20.3732 26.4569 20.3732C26.9225 20.371 27.3882 20.37 27.8534 20.3746C27.8954 20.375 27.9369 20.4151 27.9789 20.4366V20.4363Z" fill="#6A7685"/>
<path d="M41.2288 29.987C41.2202 29.5347 41.2119 29.0827 41.2033 28.6303C41.2237 28.6816 41.2607 28.7325 41.2614 28.7837C41.2668 29.159 41.2657 29.5347 41.2639 29.91C41.2639 29.9358 41.2409 29.9612 41.2284 29.9867L41.2288 29.987Z" fill="#6A7685"/>
<path d="M29.6233 30.5343C29.624 30.3694 29.6129 30.2031 29.6284 30.0397C29.643 29.8845 29.5975 29.816 29.4366 29.8407C29.4165 29.844 29.3932 29.826 29.3717 29.8182C29.652 29.7468 29.6696 29.7576 29.6602 30.0314C29.6545 30.1992 29.6362 30.3669 29.6233 30.5343Z" fill="#6A7685"/>
<path d="M23.2768 30.8214C23.2653 30.6591 23.2485 30.497 23.2442 30.3347C23.2377 30.0938 23.2406 29.8526 23.2395 29.6117C23.2538 29.6404 23.2804 29.6687 23.2804 29.6974C23.2814 30.0719 23.2786 30.4469 23.2768 30.8214Z" fill="#6A7685"/>
<path d="M31.2339 29.5995C31.2249 29.9113 31.2159 30.2228 31.207 30.5347C31.2048 30.2479 31.202 29.9608 31.202 29.674C31.202 29.6493 31.2224 29.6246 31.2335 29.5995H31.2339Z" fill="#6A7685"/>
<path d="M28.4775 29.8591C28.4642 29.8687 28.4509 29.8784 28.4377 29.8877C28.4509 29.8781 28.4642 29.8684 28.4775 29.8591Z" fill="#6A7685"/>
<path d="M106.31 30.2859C106.309 29.8795 106.309 29.473 106.307 29.0662C106.308 29.4726 106.309 29.8791 106.31 30.2859Z" fill="#6A7685"/>
<path d="M101.325 34.7567C101.625 34.7664 101.924 34.7757 102.224 34.7854C101.923 34.8366 101.623 34.8327 101.325 34.7567Z" fill="#6A7685"/>
<path d="M128.957 31.3864C130.31 31.3878 131.663 31.3885 133.016 31.391C133.095 31.391 133.162 31.3889 133.149 31.2824C133.229 31.3907 133.185 31.4276 133.068 31.4272C132.83 31.4265 132.592 31.4272 132.353 31.4272C131.281 31.4272 130.208 31.4279 129.136 31.4254C129.076 31.4254 129.017 31.3996 128.957 31.386L128.957 31.3864Z" fill="#6A7685"/>
<path d="M119.057 25.061C119.06 25.1205 119.065 25.18 119.065 25.2395C119.066 29.1271 119.066 33.0148 119.065 36.9025C119.065 36.9501 119.062 36.9975 119.06 37.0451C119.05 36.9824 119.031 36.9197 119.031 36.8566C119.03 32.9879 119.03 29.1193 119.031 25.2506C119.031 25.1871 119.048 25.1241 119.057 25.0606V25.061Z" fill="#6A7685"/>
</g>
<defs>
<clipPath id="clip0_106_1615">
<rect width="128.402" height="21.1105" fill="white" transform="translate(11.0245 19.1183)"/>
</clipPath>
</defs>
</svg>
