<svg width="54" height="37" viewBox="0 0 54 37" fill="none" xmlns="http://www.w3.org/2000/svg">
<path fill-rule="evenodd" clip-rule="evenodd" d="M5.61106 1.698H48.3329C50.9892 1.698 53.2028 4.17095 53.2028 7.13849V25.3147C53.2028 28.2822 50.9892 30.7552 48.3329 30.7552H33.0593L35.1622 36.5666L25.8652 30.7552H5.61106C2.95478 30.7552 0.741211 28.2822 0.741211 25.3147V7.13849C0.741211 4.17095 2.95478 1.698 5.61106 1.698Z" fill="#9B5C8F"/>
<g clip-path="url(#clip0_441_4563)">
<path d="M5.61106 0.182129H48.3329C50.9892 0.182129 53.2027 2.74082 53.2027 5.81125V24.6176C53.2027 27.6881 50.9892 30.2468 48.3329 30.2468H33.0593L35.1622 36.2597L25.8652 30.2468H5.61106C2.95478 30.2468 0.741211 27.6881 0.741211 24.6176V5.81125C0.741211 2.74082 2.95478 0.182129 5.61106 0.182129Z" fill="#9B5C8F"/>
<path d="M3.39747 5.2994C3.61882 4.78766 4.06154 4.65972 4.72561 4.53179C5.83239 4.40385 6.49646 5.04353 6.60714 6.32287C7.27121 11.5682 8.04596 15.918 8.8207 19.5001L13.4692 9.13743C13.9119 8.24189 14.4653 7.73015 15.1294 7.60222C16.1255 7.47428 16.6789 8.24189 16.9002 9.64917C17.4536 12.9755 18.1177 15.79 18.8924 18.0929C19.4458 11.8241 20.4419 7.21842 21.7701 4.40385C22.1021 3.76418 22.5448 3.38038 23.2089 3.25244C23.6516 3.25244 24.205 3.38038 24.537 3.76418C24.8691 4.14798 25.0904 4.78766 25.0904 5.42733C25.0904 5.81113 25.0904 6.19494 24.8691 6.57874C23.9836 8.36983 23.3196 11.3123 22.7662 15.5342C22.2128 19.6281 21.9914 22.6985 22.2128 25.0013C22.2128 25.641 22.2128 26.1527 21.9914 26.6645C21.7701 27.1762 21.3274 27.56 20.8846 27.56C20.3313 27.56 19.7779 27.3042 19.2245 26.6645C17.2323 24.3617 15.6828 20.7795 14.4653 16.0459C13.0265 19.2443 12.0304 21.5471 11.3663 23.2102C10.1488 26.0248 9.04206 27.4321 8.15663 27.56C7.60324 27.56 7.04985 27.0483 6.60714 25.8969C5.50035 22.6985 4.28289 16.4297 3.06543 7.09048C2.95475 6.32287 3.06543 5.81113 3.39747 5.2994Z" fill="white"/>
<path d="M49.4396 9.26549C48.6648 7.73028 47.5581 6.7068 46.0086 6.45093C45.5658 6.323 45.2338 6.323 44.9018 6.323C42.7989 6.323 41.1387 7.60234 39.8106 10.0331C38.7038 12.0801 38.1504 14.5108 38.1504 17.0695C38.1504 18.9885 38.4824 20.6517 39.1465 21.931C39.9212 23.4662 41.028 24.4897 42.5775 24.7456C43.0202 24.8735 43.3523 24.8735 43.6843 24.8735C45.7872 24.8735 47.4474 23.5942 48.7755 21.1634C49.8823 18.9885 50.4357 16.6857 50.4357 14.127C50.5464 12.208 50.2143 10.5448 49.4396 9.26549ZM46.7833 16.046C46.4513 17.7092 45.8979 18.8606 45.1231 19.7561C44.4591 20.3958 43.9057 20.6517 43.3523 20.5237C42.7989 20.3958 42.3562 19.8841 42.1348 18.8606C41.9135 18.093 41.8028 17.3254 41.8028 16.5578C41.8028 15.9181 41.8028 15.2784 41.9135 14.7667C42.1348 13.7432 42.4668 12.7197 43.0202 11.8242C43.6843 10.5448 44.4591 10.161 45.2338 10.289C45.7872 10.4169 46.2299 10.9286 46.4513 11.9521C46.6726 12.7197 46.7833 13.4873 46.7833 14.2549C46.894 14.8946 46.894 15.5343 46.7833 16.046Z" fill="white"/>
<path d="M36.0477 9.26549C35.273 7.73028 34.1662 6.7068 32.6167 6.45093C32.174 6.323 31.842 6.323 31.5099 6.323C29.407 6.323 27.7469 7.60234 26.4187 10.0331C25.3119 12.0801 24.7585 14.5108 24.7585 17.0695C24.7585 18.9885 25.0906 20.6517 25.7546 21.931C26.5294 23.4662 27.6362 24.4897 29.1857 24.7456C29.6284 24.8735 29.9604 24.8735 30.2925 24.8735C32.3954 24.8735 34.0555 23.5942 35.3837 21.1634C36.4904 18.9885 37.0438 16.6857 37.0438 14.127C37.0438 12.208 36.7118 10.5448 36.0477 9.26549ZM33.3915 16.046C33.0594 17.7092 32.506 18.8606 31.7313 19.7561C31.0672 20.3958 30.5138 20.6517 29.9604 20.5237C29.407 20.3958 28.9643 19.8841 28.743 18.8606C28.5216 18.093 28.4109 17.3254 28.4109 16.5578C28.4109 15.9181 28.4109 15.2784 28.5216 14.7667C28.743 13.7432 29.075 12.7197 29.6284 11.8242C30.2925 10.5448 31.0672 10.161 31.842 10.289C32.3953 10.4169 32.8381 10.9286 33.0594 11.9521C33.2808 12.7197 33.3915 13.4873 33.3915 14.2549C33.5021 14.8946 33.3915 15.5343 33.3915 16.046Z" fill="white"/>
</g>
<defs>
<clipPath id="clip0_441_4563">
<rect width="52.4615" height="36.0776" fill="white" transform="translate(0.741211 0.182129)"/>
</clipPath>
</defs>
</svg>
